<svg width="94" height="75" viewBox="0 0 94 75" fill="none" xmlns="http://www.w3.org/2000/svg">
<g clip-path="url(#clip0_110_746)">
<path d="M31.7869 40.867C33.6679 40.867 35.5873 40.6727 37.5172 40.2821C37.6639 40.3403 37.8212 40.3749 37.9848 40.3749C38.0018 40.3749 38.0188 40.3749 38.038 40.3749C47.4964 39.9799 55.8517 34.9878 60.3854 27.0238C64.9191 19.0576 65.0084 9.21587 60.6256 0.697168C60.396 0.252563 59.9369 -0.0172209 59.4438 0.00220355C49.9854 0.397168 41.63 5.38925 37.0964 13.3533C36.6968 14.0547 36.3354 14.7713 36.0039 15.4986C35.4257 14.7497 34.8051 14.031 34.1355 13.3511C27.8483 6.96695 18.4281 4.65976 8.93356 7.17846C8.48721 7.29717 8.13863 7.65113 8.02172 8.10436C5.54127 17.7454 7.81555 27.3108 14.1006 33.695C18.7108 38.3785 25.0087 40.867 31.7869 40.867ZM10.3066 9.50077C18.6641 7.52163 26.8494 9.61947 32.3289 15.1835C33.2939 16.1634 34.1504 17.2295 34.8986 18.3648C33.517 22.6921 33.262 27.3303 34.1419 31.8756L20.7641 18.2893C20.2667 17.7842 19.459 17.7842 18.9595 18.2893C18.4622 18.7943 18.4622 19.6144 18.9595 20.1216L35.6765 37.0965C35.7871 37.3727 35.9018 37.649 36.0209 37.9252C28.3372 39.1857 20.9617 37.0058 15.8988 31.8648C10.4235 26.3008 8.35755 17.9871 10.3066 9.50077ZM44.831 8.10005L47.8726 19.1116L43.509 26.7777L39.9318 13.8216C39.919 13.7741 39.902 13.7288 39.885 13.6857C41.2389 11.549 42.9117 9.67343 44.831 8.10005ZM40.5354 37.5454C40.4589 37.5562 40.3845 37.5691 40.308 37.5799L40.6502 36.9777L43.9234 31.2281L56.7806 27.8914C52.9781 33.136 47.1563 36.5979 40.5354 37.5454ZM61.2717 14.8943C61.1506 14.89 61.0273 14.9008 60.9019 14.9331L51.8622 17.2792L59.3715 4.08566C60.7977 7.59501 61.429 11.2813 61.2717 14.8943ZM58.5724 24.7511L45.7089 28.09L50.0768 20.4173L61.0082 17.5813C60.6256 20.0569 59.8604 22.4655 58.7126 24.7252C58.6659 24.7295 58.6191 24.7382 58.5724 24.7511ZM57.1568 2.79933L49.6559 15.9777L47.1393 6.86336C47.1053 6.74033 47.0543 6.6281 46.9905 6.52451C49.9939 4.58206 53.452 3.29789 57.1568 2.79933ZM37.7149 18.0367C37.8509 17.6763 37.9976 17.3202 38.1506 16.9662L39.4344 21.613L40.7841 26.4972L41.7278 29.9116L41.1943 30.8483L39.8553 33.2029L38.2441 36.0346L38.2271 36.0626L38.106 36.2763C38.021 36.0648 37.9381 35.8533 37.8573 35.6418C36.1335 31.0641 35.7424 26.2144 36.6798 21.6389C36.8137 20.9806 36.9795 20.3288 37.1686 19.6857C37.3302 19.131 37.5108 18.5806 37.7149 18.0367Z" fill="#666666"/>
<path d="M73.7017 39.9475C73.6635 39.8979 73.6231 39.8547 73.5827 39.8072L73.5869 39.8029C73.4615 39.6519 73.3361 39.5094 73.2107 39.367C73.1895 39.3432 73.1661 39.3173 73.1448 39.2936C73.0003 39.1317 72.8537 38.9742 72.7049 38.8231C72.6581 38.7756 72.6113 38.7303 72.5646 38.6849C72.4477 38.5684 72.3287 38.454 72.2096 38.3439C72.1692 38.3072 72.1289 38.2684 72.0863 38.2317C71.9184 38.0806 71.7484 37.9382 71.5784 37.8001C71.5741 37.7957 71.5699 37.7936 71.5656 37.7893C69.0044 35.7324 66.237 35.2598 62.8447 35.2598C58.5788 35.2598 54.0898 36.6195 50.7846 39.2742C50.4361 39.5526 50.1024 39.8461 49.7814 40.1547C48.0215 41.8468 46.7101 43.9706 46.1192 46.513H29.6317C29.4 46.513 28.7029 46.3684 28.1184 46.2195L18.4878 39.7814C15.6821 37.9058 11.8966 38.6979 10.0474 41.5468C9.65845 42.1447 9.37788 42.8072 9.21422 43.4979C7.74975 43.8475 6.40644 44.7411 5.51586 46.1137C5.12264 46.7224 4.83995 47.3914 4.67629 48.0929C3.2182 48.4447 1.88339 49.336 0.99493 50.7044L1.01406 50.7173C1.01193 50.7216 1.00768 50.726 1.00556 50.7281C0.110725 52.1094 -0.201723 53.7605 0.125603 55.3792C0.452929 56.9979 1.3839 58.39 2.75271 59.3051L17.306 68.8533C18.3794 69.5569 19.5548 70.0554 20.8024 70.336L40.4165 74.7389C41.1753 74.9094 41.949 74.9957 42.7248 74.9957C43.0521 74.9957 43.3773 74.9806 43.7046 74.9504L51.2863 74.2425C52.6806 74.113 54.0154 73.7137 55.2567 73.0554C69.0129 65.7648 73.0258 63.6 74.2586 62.9051L87.1242 64.9749L87.324 63.695L87.5238 62.4152L74.2225 60.2763C73.8994 60.2245 73.5699 60.3001 73.3021 60.4878C72.656 60.8806 65.3145 64.8022 54.077 70.759C53.1333 71.2598 52.1152 71.5641 51.0546 71.6634L43.4729 72.3691C42.6355 72.4468 41.7917 72.3929 40.9712 72.2094L21.3572 67.8065C20.4071 67.5929 19.5122 67.213 18.696 66.6777L4.15342 57.1339C3.36273 56.6051 2.82286 55.7957 2.63156 54.8547C2.44027 53.9137 2.62306 52.9533 3.14381 52.1504C3.76445 51.1943 4.76556 50.6072 5.89207 50.5382C5.95158 50.5339 6.00897 50.5231 6.06636 50.5101C6.74652 50.5036 7.4373 50.6957 8.04945 51.1058L22.777 60.8008C22.981 60.9346 23.2212 61.008 23.4657 61.0101L31.7232 61.049V61.0101H51.0928V59.7152V58.4202H29.6338C27.1045 58.4202 25.047 56.331 25.047 53.7605C25.047 51.1921 27.1045 49.1029 29.6338 49.1029H47.1756C47.8089 49.1029 48.3467 48.6303 48.4381 47.9936C49.0354 43.8324 51.9983 40.9101 55.7094 39.3044C56.0814 39.1447 56.4597 38.9957 56.8444 38.8619C58.7659 38.1907 60.834 37.8497 62.8468 37.8497C67.2211 37.8497 69.3593 38.7303 71.64 41.4713L72.6113 40.6382L72.6135 40.636L72.6113 40.6382L71.6485 41.4907C71.7484 41.6137 71.8483 41.7346 71.9482 41.8641C72.1097 42.0734 72.3287 42.2267 72.5795 42.3044L93.1585 48.6885L93.2563 48.7188L94.0023 46.2411L73.7017 39.9475ZM23.2361 50.5533L13.9583 44.3504C13.3143 43.9209 12.6214 43.6317 11.9093 43.4763C11.9859 43.3015 12.0751 43.1331 12.1793 42.9734C13.2548 41.318 15.4547 40.8562 17.0871 41.9483L25.7123 47.713C24.6581 48.4188 23.8015 49.3986 23.2361 50.5533ZM73.2872 60.5008C73.2575 60.5224 73.2256 60.5461 73.198 60.5698C73.215 60.5569 73.2426 60.531 73.2872 60.5008ZM23.844 58.4245L9.4374 48.9411C8.79337 48.5116 8.10046 48.2224 7.38842 48.067C7.46494 47.8921 7.55421 47.7238 7.65836 47.5641C8.279 46.608 9.28011 46.0209 10.4066 45.9519C10.4683 45.9475 10.5278 45.9367 10.5852 45.9238C11.2632 45.9195 11.9476 46.1094 12.5555 46.5152L22.5219 53.1778C22.5071 53.372 22.4964 53.5684 22.4964 53.767C22.4964 55.5411 23.1277 57.1684 24.1735 58.4288L23.844 58.4245Z" fill="#666666"/>
</g>
<defs>
<clipPath id="clip0_110_746">
<rect width="94" height="75" fill="white"/>
</clipPath>
</defs>
</svg>
