<svg width="86" height="76" viewBox="0 0 86 76" fill="none" xmlns="http://www.w3.org/2000/svg">
<path d="M48.5147 26.1759C48.5147 24.0424 46.7825 22.3054 44.6549 22.3054H43.4321V24.7577H44.6549C45.4354 24.7577 46.0692 25.3932 46.0692 26.1759C46.0692 26.9586 45.4354 27.5942 44.6549 27.5942H43.4321V30.0464H44.6549C46.7845 30.0444 48.5147 28.3094 48.5147 26.1759Z" fill="#666666"/>
<path d="M36.2933 35.466C35.9143 35.2637 35.5148 35.0921 35.1011 34.9572C34.6589 34.8121 34.2004 34.7079 33.7255 34.6466C33.4178 34.6057 33.106 34.5832 32.7881 34.5812C32.7738 34.5812 32.7596 34.5812 32.7453 34.5812C28.5778 34.5812 25.1765 37.9694 25.152 42.1546C25.148 42.7268 25.2111 43.2908 25.3293 43.8365C25.4292 44.2983 25.5739 44.7499 25.7573 45.1832C25.9264 45.5817 26.1302 45.9658 26.3666 46.3316C26.6479 46.7669 26.9739 47.1756 27.3469 47.5516C28.7734 48.9985 30.6748 49.7996 32.7045 49.8118C32.7188 49.8118 32.7331 49.8118 32.7473 49.8118C34.7588 49.8118 36.654 49.0312 38.0846 47.6109C38.7572 46.9447 39.289 46.1722 39.6661 45.3323C40.0981 44.3719 40.3325 43.3235 40.3386 42.2384C40.3467 40.859 39.984 39.5634 39.3481 38.4435C38.6349 37.1826 37.5711 36.1465 36.2933 35.466ZM32.7473 47.3575C32.7372 47.3575 32.727 47.3575 32.7168 47.3575C31.3412 47.3493 30.0512 46.8058 29.0852 45.8248C28.6776 45.41 28.3475 44.9379 28.1029 44.4291C27.8991 44.004 27.7545 43.5524 27.675 43.0824C27.624 42.782 27.5975 42.4775 27.5975 42.1669C27.5996 41.8562 27.6301 41.5538 27.6852 41.2575C28.0438 39.3079 29.4948 37.7426 31.3738 37.2215C31.8119 37.0988 32.2705 37.0334 32.7473 37.0334C32.7575 37.0334 32.7677 37.0334 32.7759 37.0334C32.9145 37.0334 33.051 37.0416 33.1855 37.0539C33.6644 37.0948 34.127 37.201 34.5611 37.3645C36.5175 38.1043 37.9094 40.0068 37.8951 42.2241C37.887 43.6035 37.3449 44.8971 36.3667 45.8657C35.3946 46.8282 34.1107 47.3575 32.7473 47.3575Z" fill="#666666"/>
<path d="M84.7772 50.2184H81.1518C82.1585 48.2852 82.7536 46.1395 82.8881 43.9059C82.8922 43.8875 82.8983 43.8691 82.9003 43.8507C82.9615 43.5013 83.096 42.9536 83.2366 42.3732C83.6054 40.8508 84.0253 39.126 83.9539 38.0163C83.8704 36.7371 82.8005 35.9258 81.8569 35.2126C81.4921 34.9367 80.8808 34.4728 80.7911 34.2644C80.7136 34.0212 80.5628 33.8066 80.359 33.6533L79.3829 32.9197C79.3197 32.8421 79.2545 32.7685 79.1893 32.6929C77.2288 28.3054 72.0545 25.2175 67.1799 24.2468V12.5332C67.1799 11.7586 66.8966 9.85405 66.4381 8.12519C65.9123 6.14294 65.1603 4.11573 63.5666 4.11573C62.3092 4.11573 61.5756 5.37661 61.0641 6.88475C60.5526 5.37865 59.8189 4.11573 58.5615 4.11573C56.9679 4.11573 56.2159 6.14294 55.6901 8.12519C55.2316 9.852 54.9483 11.7586 54.9483 12.5332V27.4041C54.7527 27.5758 54.5631 27.7556 54.3756 27.9396C53.7459 27.9273 53.0897 28.0152 52.4906 28.3707C52.1156 28.5935 51.8201 28.8878 51.5796 29.2147V24.7782C51.5796 19.0378 46.923 14.3683 41.1985 14.3683H40.5728C39.8983 14.3683 39.3501 14.918 39.3501 15.5944V29.2086C39.2115 29.0533 39.0709 28.9 38.9282 28.7529C38.6613 27.3857 37.9602 26.1535 36.9005 25.2175C35.9142 24.347 34.7159 23.83 33.4768 23.6808L35.3517 21.5902C37.6851 18.9888 37.4732 14.967 34.8789 12.6272C32.9245 10.8656 30.1693 10.5489 27.9296 11.6136C27.7931 9.82748 27.092 7.26894 26.1301 5.11912C24.6282 1.77585 22.7982 0.00408712 20.8377 0C20.8356 0 20.8316 0 20.8295 0C18.8711 0 17.037 1.75951 15.5248 5.09051C14.5507 7.2342 13.8374 9.78661 13.6907 11.5727C12.955 11.2171 12.15 11.0087 11.3125 10.9596C9.62507 10.8615 7.99881 11.4276 6.73735 12.5556C4.13085 14.8832 3.89649 18.9029 6.21768 21.5166L8.08237 23.6154C6.84128 23.7584 5.64095 24.2693 4.65052 25.1358C3.37479 26.2495 2.60853 27.7924 2.49237 29.4845C2.37621 31.1766 2.92237 32.8114 4.03303 34.0907C4.03915 34.0968 4.04322 34.1029 4.04934 34.1091L4.95009 35.1043C2.86938 36.5818 1.63033 38.7275 1.63033 41.239C1.63441 43.0006 3.10578 44.4331 4.90934 44.4331H8.84251V50.2184H1.22275C0.548199 50.2184 0 50.7682 0 51.4446V57.7326C0 61.2435 1.83005 64.3313 4.58123 66.0949C4.58938 71.5573 9.02389 76 14.4733 76H71.5247C76.9741 76 81.4086 71.5573 81.4167 66.0949C84.1679 64.3313 85.998 61.2435 85.998 57.7326V51.4446C86 50.7661 85.4518 50.2184 84.7772 50.2184ZM80.9235 63.4219C80.4732 63.8061 79.9759 64.1371 79.442 64.4048C79.0915 64.5806 78.7267 64.7318 78.3476 64.8524C77.6405 65.0772 76.8864 65.1998 76.1059 65.1998H63.9661V65.633V66.0806V66.428V67.3067V67.6541H76.1059C77.0026 67.6541 77.8687 67.5315 78.6961 67.3067C78.7572 67.2903 78.8184 67.272 78.8816 67.2536C78.8795 67.272 78.8754 67.2883 78.8714 67.3067C78.8612 67.366 78.851 67.4252 78.8388 67.4845C78.8306 67.5254 78.8245 67.5662 78.8163 67.6071C78.798 67.6991 78.7756 67.791 78.7532 67.8809C78.7471 67.9034 78.743 67.9279 78.7369 67.9504C78.7083 68.0649 78.6757 68.1773 78.6411 68.2896C78.6329 68.3183 78.6227 68.3448 78.6126 68.3734C78.5861 68.4572 78.5575 68.539 78.529 68.6207C78.5147 68.6595 78.4984 68.6984 78.4842 68.7392C78.4577 68.8087 78.4312 68.8782 78.4026 68.9456C78.3843 68.9885 78.366 69.0294 78.3476 69.0723C78.3191 69.1357 78.2906 69.199 78.262 69.2624C78.2417 69.3053 78.2213 69.3482 78.1989 69.3911C78.1683 69.4524 78.1377 69.5137 78.1051 69.573C78.0827 69.6159 78.0603 69.6568 78.0379 69.6977C78.0053 69.7569 77.9706 69.8162 77.936 69.8755C77.9115 69.9163 77.8891 69.9551 77.8646 69.996C77.828 70.0553 77.7892 70.1145 77.7505 70.1738C77.7261 70.2106 77.7016 70.2494 77.6772 70.2862C77.6344 70.3496 77.5916 70.4088 77.5467 70.4701C77.5243 70.5008 77.5019 70.5335 77.4795 70.5641C77.4204 70.6418 77.3613 70.7194 77.2981 70.7951C77.2879 70.8073 77.2777 70.8216 77.2675 70.8339C77.1942 70.9218 77.1208 71.0076 77.0434 71.0934C77.023 71.1159 77.0006 71.1384 76.9802 71.1609C76.9231 71.2222 76.8681 71.2814 76.809 71.3407C76.7805 71.3713 76.7499 71.3999 76.7193 71.4286C76.6684 71.4796 76.6154 71.5287 76.5624 71.5777C76.5298 71.6084 76.4952 71.639 76.4605 71.6697C76.4096 71.7147 76.3586 71.7596 76.3056 71.8046C76.269 71.8352 76.2323 71.8638 76.1956 71.8945C76.1426 71.9374 76.0896 71.9783 76.0366 72.0191C75.9999 72.0478 75.9612 72.0764 75.9225 72.105C75.8675 72.1458 75.8125 72.1847 75.7574 72.2235C75.7187 72.2501 75.682 72.2766 75.6433 72.3032C75.5842 72.342 75.5251 72.3788 75.466 72.4176C75.4293 72.4422 75.3906 72.4646 75.3539 72.4871C75.2887 72.5259 75.2215 72.5648 75.1542 72.6016C75.1216 72.62 75.089 72.6404 75.0564 72.6567C74.9647 72.7058 74.8709 72.7548 74.7772 72.7998C74.767 72.8039 74.7589 72.81 74.7507 72.8141C74.6468 72.8652 74.5428 72.9122 74.4369 72.9571C74.4043 72.9715 74.3717 72.9837 74.3391 72.996C74.2636 73.0266 74.1903 73.0573 74.1149 73.0859C74.0741 73.1022 74.0313 73.1145 73.9906 73.1308C73.9233 73.1554 73.854 73.1778 73.7868 73.2003C73.7419 73.2146 73.6951 73.2289 73.6502 73.2412C73.583 73.2616 73.5178 73.28 73.4505 73.2984C73.4036 73.3107 73.3547 73.3229 73.3079 73.3352C73.2406 73.3515 73.1734 73.3679 73.1061 73.3822C73.0572 73.3924 73.0083 73.4026 72.9594 73.4128C72.8921 73.4272 72.8228 73.4374 72.7535 73.4496C72.7046 73.4578 72.6578 73.466 72.6089 73.4721C72.5375 73.4823 72.4642 73.4905 72.3928 73.5007C72.346 73.5069 72.3011 73.513 72.2543 73.5171C72.1748 73.5252 72.0933 73.5314 72.0117 73.5355C71.973 73.5375 71.9323 73.5416 71.8935 73.5436C71.7733 73.5498 71.651 73.5539 71.5288 73.5539H14.4733C14.351 73.5539 14.2287 73.5498 14.1085 73.5436C14.0677 73.5416 14.029 73.5375 13.9903 73.5355C13.9088 73.5293 13.8293 73.5252 13.7478 73.5171C13.7009 73.513 13.654 73.5069 13.6092 73.5007C13.5358 73.4926 13.4645 73.4844 13.3932 73.4721C13.3443 73.466 13.2954 73.4558 13.2485 73.4496C13.1792 73.4374 13.1099 73.4251 13.0427 73.4128C12.9937 73.4026 12.9448 73.3924 12.8959 73.3822C12.8287 73.3679 12.7614 73.3515 12.6942 73.3352C12.6473 73.3229 12.5984 73.3107 12.5515 73.2984C12.4843 73.28 12.4191 73.2616 12.3518 73.2412C12.307 73.2269 12.2601 73.2146 12.2153 73.2003C12.146 73.1778 12.0787 73.1554 12.0115 73.1308C11.9707 73.1165 11.9279 73.1022 11.8872 73.0859C11.8118 73.0573 11.7363 73.0266 11.663 72.996C11.6304 72.9837 11.5978 72.9715 11.5672 72.9571C11.4612 72.9122 11.3553 72.8652 11.2513 72.8141C11.2411 72.81 11.233 72.8039 11.2248 72.7998C11.1311 72.7548 11.0373 72.7058 10.9456 72.6567C10.913 72.6383 10.8804 72.62 10.8478 72.6016C10.7806 72.5648 10.7133 72.5259 10.6481 72.4871C10.6094 72.4646 10.5727 72.4401 10.536 72.4176C10.4769 72.3809 10.4178 72.342 10.3587 72.3032C10.32 72.2766 10.2813 72.2501 10.2446 72.2235C10.1896 72.1847 10.1325 72.1458 10.0795 72.105C10.0408 72.0764 10.0041 72.0478 9.9654 72.0191C9.91242 71.9783 9.85943 71.9374 9.80644 71.8945C9.76976 71.8638 9.73308 71.8352 9.6964 71.8046C9.64341 71.7596 9.59246 71.7147 9.54152 71.6697C9.50687 71.639 9.47426 71.6104 9.43962 71.5777C9.38663 71.5287 9.33569 71.4796 9.2827 71.4286C9.25213 71.3999 9.22156 71.3713 9.19303 71.3407C9.13597 71.2814 9.07891 71.2222 9.02185 71.1609C9.00147 71.1384 8.97905 71.1159 8.95867 71.0934C8.88123 71.0096 8.80787 70.9218 8.7345 70.8339C8.72431 70.8216 8.71412 70.8073 8.70393 70.7951C8.6428 70.7194 8.58166 70.6418 8.52256 70.5641C8.50014 70.5335 8.47773 70.5008 8.45531 70.4701C8.41047 70.4088 8.36768 70.3475 8.32488 70.2842C8.30043 70.2474 8.27597 70.2106 8.25152 70.1738C8.2128 70.1145 8.17408 70.0553 8.13739 69.996C8.11294 69.9572 8.08848 69.9163 8.06607 69.8755C8.03142 69.8162 7.99678 69.7569 7.96417 69.6977C7.94175 69.6568 7.91934 69.6139 7.89692 69.573C7.86431 69.5137 7.83374 69.4524 7.80317 69.3911C7.7828 69.3482 7.76038 69.3053 7.74 69.2624C7.70943 69.199 7.6809 69.1357 7.65441 69.0723C7.63607 69.0294 7.61772 68.9885 7.59938 68.9456C7.57085 68.8782 7.54436 68.8087 7.51787 68.7392C7.5036 68.7004 7.4873 68.6616 7.47303 68.6227C7.44246 68.541 7.41597 68.4572 7.38948 68.3755C7.38133 68.3469 7.37114 68.3203 7.36095 68.2917C7.3263 68.1793 7.2937 68.0669 7.26517 67.9525C7.25905 67.93 7.25498 67.9055 7.24886 67.883C7.22644 67.791 7.20403 67.7011 7.18569 67.6091C7.17753 67.5683 7.17142 67.5274 7.16327 67.4865C7.15104 67.4273 7.14085 67.368 7.13066 67.3087C7.12863 67.2903 7.12455 67.274 7.12047 67.2556C7.18161 67.274 7.24275 67.2924 7.30592 67.3087C8.13128 67.5335 8.99943 67.6562 9.89611 67.6562H22.036V67.3087V66.43V66.0826V65.6351V65.2018H9.89408C9.11355 65.2018 8.35953 65.0792 7.65237 64.8544C7.27332 64.7339 6.90853 64.5847 6.55801 64.4069C6.02408 64.1371 5.52682 63.8081 5.07645 63.4239C3.76403 62.3041 2.84085 60.7367 2.54536 58.9588H8.84047H10.0632H14.7463H15.9691H19.4825H20.7052H21.928H83.4546C83.1591 60.7367 82.238 62.3041 80.9235 63.4219ZM2.4455 52.6707H8.84047H10.0632H11.286H13.5236H14.7463H15.9691H19.4947H20.7174H21.9402H27.0676H29.4275H36.0283H38.3882H46.5215H47.8319H49.4806H49.988H50.7217H51.3045H51.3453H51.763H52.4498H54.2534H62.5069H69.0282H70.3875H72.1646H76.2099H79.5582H83.5545V56.5065H74.979H69.6498H62.5905H56.7029H55.7614H52.8737H21.9341H20.7113H19.4886H15.9691H14.7463H13.5236H11.286H10.0632H8.84047H2.4455V52.6707ZM4.07583 41.2227C4.07583 39.3508 5.08867 37.9162 6.60896 36.9435C6.9554 36.7207 7.32834 36.5225 7.72166 36.3488C8.11701 36.1731 8.53275 36.0218 8.96275 35.8972C10.049 35.5784 11.2309 35.4169 12.4068 35.4169C12.6228 35.4169 12.8389 35.4231 13.0549 35.4353C13.6683 35.466 14.2776 35.5416 14.8707 35.6581C15.6532 35.8134 16.4032 36.0443 17.092 36.3488C18.058 36.7759 18.8996 37.3501 19.5293 38.0654C20.1285 38.7439 20.5361 39.5511 20.6787 40.4829C20.6848 40.5197 20.6889 40.5585 20.695 40.5953C20.7215 40.8017 20.7378 41.0143 20.7378 41.2329C20.7378 41.2983 20.7256 41.3596 20.7073 41.4189C20.7011 41.4414 20.693 41.4638 20.6828 41.4863C20.5952 41.6988 20.4056 41.8664 20.1652 41.9379C20.0816 41.9625 19.994 41.9788 19.9023 41.9788H19.5191H18.7366H15.9691H14.7463H14.4631H13.5236H12.8124H11.286H11.1617H10.0632H8.84047H4.9073C4.44877 41.9809 4.07583 41.6457 4.07583 41.2227ZM4.92768 29.6521C4.999 28.6139 5.46976 27.6657 6.25232 26.9832C7.51787 25.8776 9.33976 25.7141 10.7826 26.5724C11.3002 26.881 11.9666 26.7645 12.3498 26.2986C12.7329 25.8326 12.7207 25.1542 12.3192 24.7026L8.04161 19.8838C6.61711 18.2796 6.75976 15.8131 8.35953 14.3846C9.13393 13.6939 10.1325 13.3444 11.1678 13.4058C12.203 13.465 13.1547 13.9269 13.8436 14.7055L13.9658 14.8424C14.3021 15.2225 14.8381 15.3533 15.3129 15.1734C15.7877 14.9936 16.1016 14.5379 16.1016 14.0311L16.1056 12.1919C16.1097 10.9882 16.6844 8.44603 17.7462 6.10616C18.973 3.40866 20.1733 2.45227 20.8295 2.45227H20.8316C21.4878 2.45432 22.682 3.41683 23.8945 6.12251C24.9441 8.46647 25.5086 11.0107 25.5045 12.2164L25.5004 14.0556C25.4984 14.5645 25.8102 15.0202 26.285 15.2041C26.7578 15.386 27.2958 15.2572 27.6341 14.8792L27.7564 14.7422C29.189 13.1462 31.6488 13.0134 33.2425 14.4521C34.8341 15.8887 34.9645 18.3553 33.5318 19.9533L29.2298 24.7516C28.8263 25.2012 28.81 25.8776 29.1911 26.3476C29.2909 26.4702 29.4112 26.5683 29.5416 26.6399C25.8999 28.3769 23.1629 32.8645 22.2072 37.6076C22.1358 37.485 22.0584 37.3624 21.9789 37.2439L21.9993 28.1173L22.1562 28.2584L30.3099 19.1686L28.4921 17.5276L22.0074 24.7577L22.038 10.5795L19.5925 10.5734L19.5619 24.7679L13.0936 17.4867L12.1806 18.3021L11.2676 19.1175L19.3745 28.2502L19.5518 28.0928L19.5375 34.8795C18.0967 33.9415 16.2931 33.31 14.2471 33.0709L11.1657 29.5213L9.32142 31.1316L10.9701 33.0301C9.58635 33.1547 8.30654 33.4531 7.16735 33.9067L5.86919 32.4701C5.18853 31.6874 4.85635 30.6861 4.92768 29.6521ZM41.7936 16.841C45.8918 17.1475 49.1341 20.5909 49.1341 24.7761V33.1935C48.9018 33.4592 48.6776 33.731 48.4616 34.0069C48.1641 32.1656 46.5745 30.7556 44.6568 30.7556H43.4341V33.2079H44.6568C45.4373 33.2079 46.0711 33.8434 46.0711 34.6261C46.0711 35.4088 45.4373 36.0443 44.6568 36.0443H43.4341V38.2636C43.1406 36.4305 42.5781 34.62 41.7956 32.9728V16.841H41.7936ZM52.5558 32.8625C52.729 32.5192 52.8676 32.1656 52.998 31.8325C53.2161 31.2746 53.4606 30.6432 53.7378 30.4797C53.7745 30.4572 53.8213 30.4409 53.8723 30.4286C53.9782 30.4 54.1087 30.3877 54.2554 30.3877C54.4653 30.3877 54.7058 30.4102 54.9483 30.4388C55.0583 30.4511 55.1684 30.4654 55.2764 30.4797C55.2988 30.4817 55.3192 30.4858 55.3416 30.4879C55.6086 30.5226 55.8857 30.5574 56.169 30.5757C56.5725 30.6023 56.9862 30.5941 57.3917 30.5083C57.4773 30.4899 57.5629 30.4695 57.6465 30.445C58.4657 30.1956 59.124 29.6275 59.7027 29.1269C59.7109 29.1207 59.719 29.1126 59.7272 29.1064C59.8006 29.0431 59.876 28.9797 59.9514 28.9143C60.31 28.6119 60.6911 28.3176 60.9173 28.3054C60.9275 28.3054 60.9398 28.3094 60.9499 28.3094C61.0152 28.3135 61.0906 28.3299 61.1741 28.3626C61.4635 28.475 61.8405 28.7365 62.1727 28.9756C62.1992 28.994 62.2257 29.0124 62.2501 29.0308C62.299 29.0656 62.348 29.1003 62.3969 29.1371C62.9471 29.5315 63.5626 29.9422 64.2718 30.1139C64.3003 30.12 64.3288 30.1303 64.3573 30.1364C64.4817 30.1629 64.608 30.1793 64.7323 30.1916C65.144 30.2304 65.5577 30.1977 65.9551 30.1364C66.2282 30.0935 66.4931 30.0403 66.7458 29.9892C66.8844 29.9606 67.0311 29.93 67.1778 29.9034C67.6099 29.8237 68.0399 29.7706 68.2314 29.8687C68.3027 29.9055 68.3782 29.9831 68.4515 30.0853C68.6431 30.3489 68.8346 30.7821 68.9977 31.15C69.2993 31.8325 69.6417 32.607 70.2449 33.1752C70.8318 33.7269 71.6103 34.011 72.2971 34.2623C72.833 34.4585 73.5015 34.7037 73.6625 34.9755C73.8235 35.2473 73.7154 35.9524 73.6299 36.5184C73.5198 37.2418 73.3955 38.0634 73.5952 38.844C73.801 39.6471 74.3146 40.3194 74.767 40.9141C75.1073 41.3596 75.5292 41.9134 75.521 42.2036C75.5129 42.4938 75.0645 43.0251 74.7038 43.4522C74.2168 44.0285 73.6665 44.6804 73.4261 45.4835C73.1876 46.2785 73.2916 47.1225 73.3812 47.8684C73.3955 47.9848 73.4098 48.1075 73.424 48.2321C73.475 48.7021 73.5035 49.1824 73.3772 49.3888C73.3568 49.4215 73.3262 49.4562 73.2895 49.4889C73.0572 49.6953 72.5212 49.8976 72.077 50.0631C71.9526 50.1101 71.8263 50.1592 71.6979 50.2082C71.6898 50.2123 71.6796 50.2144 71.6714 50.2184H52.9063C53.1753 49.1599 53.5809 47.9419 54.1861 46.6688C54.4205 46.1783 54.6772 45.7083 54.9463 45.2485C55.1439 44.9113 55.3498 44.5844 55.5658 44.2635C55.7594 43.9774 55.9611 43.6974 56.169 43.4236C56.2179 43.3603 56.2627 43.2949 56.3137 43.2315C56.4523 43.0558 56.597 42.8862 56.7396 42.7186C56.9149 42.9025 57.1289 43.0905 57.3917 43.2703C57.6078 43.4175 57.8523 43.5605 58.1356 43.6872C58.6165 43.9059 59.1484 44.0571 59.7272 44.1491C59.8006 44.1613 59.876 44.1716 59.9514 44.1818C60.2693 44.2226 60.6035 44.2451 60.9499 44.2472C60.9866 44.2472 61.0213 44.2492 61.06 44.2492C61.0987 44.2492 61.1374 44.2472 61.1762 44.2472C61.4981 44.2431 61.8303 44.2247 62.1747 44.192C62.2481 44.1838 62.3235 44.1756 62.3989 44.1675C63.1264 44.0837 63.9049 43.9325 64.7344 43.7179C65.1317 43.6137 65.5373 43.4972 65.9571 43.3643C66.3545 43.2376 66.7621 43.0966 67.1799 42.9434C67.6751 42.7615 68.1825 42.5612 68.7042 42.3426L67.7586 40.0803C67.5609 40.1641 67.3694 40.2418 67.1799 40.3174C66.7539 40.487 66.3463 40.6403 65.9571 40.7772C65.5271 40.9284 65.1216 41.0572 64.7344 41.1696C63.8499 41.4271 63.0755 41.5926 62.3989 41.6866C62.3235 41.6968 62.2481 41.707 62.1747 41.7152C61.814 41.7581 61.4798 41.7806 61.1762 41.7847C61.1008 41.7867 61.0233 41.7867 60.952 41.7847C60.5729 41.7785 60.2428 41.7458 59.9534 41.6927C59.876 41.6784 59.8006 41.6621 59.7292 41.6457C59.0608 41.4863 58.6573 41.2186 58.4494 40.9673C58.855 40.6076 59.285 40.2684 59.7292 39.9414C59.8046 39.8862 59.878 39.829 59.9534 39.7759C60.2774 39.5449 60.6076 39.3222 60.952 39.1076C61.0253 39.0627 61.1028 39.0177 61.1762 38.9727C61.5002 38.7766 61.8344 38.5906 62.1747 38.4108C62.2481 38.3719 62.3255 38.3351 62.3989 38.2963C63.1407 37.9162 63.9171 37.5729 64.7344 37.2664C65.1338 37.1172 65.5393 36.9741 65.9571 36.8413C66.3565 36.7146 66.7641 36.594 67.1799 36.4837C67.19 36.4816 67.2002 36.4775 67.2104 36.4755L67.1799 36.3611L66.5848 34.1029C66.3728 34.1602 66.165 34.2194 65.9571 34.2787C65.5373 34.3992 65.1317 34.528 64.7344 34.6629C63.911 34.9428 63.1326 35.2494 62.3989 35.5804C62.3235 35.6152 62.2481 35.6479 62.1747 35.6806C61.8324 35.84 61.5002 36.0055 61.1762 36.1751C61.1008 36.2139 61.0253 36.2528 60.952 36.2916C60.6443 36.4571 60.3488 36.6267 60.0573 36.8004C60.0105 36.639 59.9758 36.4775 59.9554 36.3202C59.9554 36.3161 59.9554 36.3141 59.9534 36.31C59.9086 35.983 59.9126 35.6642 59.9534 35.3556C60.0757 34.4115 60.5322 33.5736 60.952 32.979C61.0294 32.8686 61.1048 32.7685 61.1762 32.6765C61.4574 32.3169 61.6856 32.0941 61.7182 32.0614L61.6775 32.0185L61.1762 31.4892L60.952 31.2522L60.0349 30.2835C60.0084 30.308 59.9819 30.3367 59.9554 30.3612C59.8821 30.4327 59.8067 30.5104 59.7313 30.5921C58.8224 31.5689 57.781 33.1976 57.5344 35.0614C57.4162 35.9605 57.4835 36.9149 57.8381 37.8774C57.8788 37.9898 57.9257 38.1022 57.9746 38.2146C57.7769 38.3658 57.5833 38.5211 57.3958 38.6744C56.9618 39.032 56.5562 39.3978 56.1731 39.7677C55.7329 40.1948 55.3273 40.628 54.9503 41.0633C54.8729 41.1532 54.7954 41.2431 54.72 41.3351C54.4388 41.6723 54.1739 42.0115 53.9273 42.3487C53.8967 42.3916 53.8641 42.4325 53.8335 42.4754C53.7928 42.41 53.7541 42.3405 53.7133 42.271C53.6236 42.1096 53.534 41.9339 53.4504 41.7438C53.3791 41.5865 53.3118 41.4189 53.2487 41.2431C52.9837 40.4972 52.8044 39.5858 52.8411 38.5027C52.8635 37.8447 52.9674 37.1233 53.1814 36.3406L52.4355 36.1363L51.5817 35.9013L50.8236 35.6928C50.3487 37.4319 50.3018 38.9462 50.4853 40.2336C50.6238 41.1961 50.8908 42.034 51.2108 42.7411C51.329 43.0026 51.4533 43.2438 51.5817 43.4706C51.867 43.9754 52.1645 44.3943 52.4335 44.7233C52.2725 45.0237 52.1217 45.32 51.9831 45.6102C51.8384 45.9127 51.706 46.211 51.5817 46.5053C51.2821 47.2144 51.0375 47.9031 50.8358 48.555C50.6544 49.1415 50.5097 49.6994 50.3936 50.2164H50.3589H49.1362H49.0567C48.9711 50.0856 48.8875 49.9528 48.8081 49.82C48.0275 48.4998 47.5608 47.1674 47.3428 45.8534C47.2266 45.1484 47.1838 44.4495 47.2022 43.7588C47.2103 43.4236 47.2348 43.0926 47.2735 42.7635C47.2796 42.7165 47.2837 42.6695 47.2898 42.6246C47.3713 41.9686 47.5099 41.3249 47.6913 40.6955C48.0316 39.5184 48.5329 38.3985 49.1362 37.3665C49.5091 36.7289 49.9208 36.1261 50.3589 35.562C50.7502 35.0593 51.1598 34.5893 51.5817 34.154C51.6652 34.0682 51.7467 33.9824 51.8323 33.9006C52.136 33.6002 52.3663 33.2385 52.5558 32.8625ZM57.3917 12.5332C57.3917 11.4337 57.9909 8.5666 58.5595 7.16268C59.1281 8.5666 59.7272 11.4317 59.7272 12.5332V13.2239H57.3917V12.5332ZM77.0943 34.013C77.0984 34.0212 77.1025 34.0294 77.1045 34.0396C77.1881 34.2521 77.3287 34.4401 77.51 34.577L77.671 34.6976L78.637 35.4231C79.014 36.1322 79.7089 36.6594 80.3835 37.1703C80.7483 37.4462 81.4208 37.955 81.5145 38.1982C81.5533 38.9421 81.1375 40.6566 80.8604 41.7949C80.7055 42.4345 80.571 42.9863 80.4956 43.4113C80.4874 43.4338 80.4752 43.4583 80.4589 43.4829C80.251 43.8303 79.4236 44.472 78.9631 44.8296C78.0766 45.5183 77.241 46.1681 76.8783 46.9733C76.7682 47.2165 76.2832 47.4923 75.8288 47.7314C75.8226 47.6763 75.8165 47.6231 75.8084 47.57C75.7432 47.0407 75.6759 46.493 75.7676 46.1926C75.8614 45.8779 76.2221 45.4529 76.5706 45.0401C77.2105 44.2819 77.9339 43.4236 77.9665 42.2731C77.9971 41.1164 77.3144 40.2193 76.7091 39.4264C76.3831 38.9993 76.0468 38.5579 75.9633 38.2371C75.8879 37.9407 75.9673 37.4074 76.0468 36.8904C76.1915 35.9381 76.3708 34.7528 75.7656 33.7269C75.1603 32.701 74.0354 32.2903 73.1346 31.9613C72.6455 31.7814 72.1401 31.5975 71.916 31.3891C71.7244 31.2093 71.543 30.8516 71.3678 30.4634C71.3229 30.3632 71.2781 30.261 71.2333 30.1609C70.8298 29.2495 70.3753 28.2175 69.3482 27.6902C69.3197 27.6759 69.2911 27.6637 69.2626 27.6494C68.5799 27.3265 67.8646 27.3265 67.1799 27.4205C66.864 27.4634 66.5562 27.5268 66.2587 27.5881C66.1589 27.6085 66.057 27.6289 65.9571 27.6494C65.5312 27.7332 65.1236 27.7965 64.8648 27.7413C64.824 27.7332 64.7792 27.7188 64.7344 27.7025C64.4389 27.5901 64.0537 27.3142 63.6787 27.0445C63.4036 26.8462 63.1122 26.6378 62.8065 26.4518C62.9879 26.4314 63.1672 26.411 63.3547 26.3987C63.801 26.3701 64.2636 26.3701 64.7364 26.3946C65.1379 26.4171 65.5454 26.46 65.9591 26.5193C66.3627 26.5785 66.7723 26.6542 67.1819 26.7482C68.1927 26.9791 69.2117 27.3122 70.196 27.7372C73.2773 29.0615 76.0224 31.2767 77.0943 34.013ZM22.0197 43.6688C22.1012 44.2104 22.2092 44.7397 22.3417 45.2567H21.9565L21.9606 43.7179C21.9809 43.7015 21.9993 43.6852 22.0197 43.6688ZM19.513 45.2505L17.4181 45.2444L16.6824 44.4311H19.5151L19.513 45.2505ZM15.9691 47.2962C16.1994 47.5496 16.5275 47.6967 16.8699 47.6967L19.5069 47.7028L19.5008 50.2184H15.9691V47.2962ZM21.9524 47.709L23.2037 47.713C23.6113 48.6163 24.1004 49.4582 24.6608 50.2184H21.9463L21.9524 47.709ZM43.4687 38.4966H44.6548C45.1154 38.4966 45.5535 38.4108 45.9631 38.2636C45.8184 38.6151 45.6839 38.9686 45.5657 39.3242C45.2723 39.2527 44.9686 39.2118 44.6548 39.2118H43.5604C43.536 38.9727 43.5054 38.7357 43.4687 38.4966ZM41.5266 49.1395C41.8221 49.5216 42.142 49.8813 42.4864 50.2184H40.8072C41.0619 49.8751 41.3024 49.5134 41.5266 49.1395ZM43.6582 41.6621H44.6568C44.7648 41.6621 44.8688 41.6764 44.9707 41.6988C44.8137 42.6368 44.7526 43.5707 44.7811 44.4924C44.7404 44.4965 44.6996 44.4985 44.6568 44.4985H43.4341V46.9508H44.6568C44.7974 46.9508 44.9381 46.9426 45.0746 46.9263C45.2865 47.9154 45.6106 48.8799 46.0426 49.8138C44.6487 49.0761 43.4993 47.9358 42.7493 46.5462C43.2853 45.0421 43.6032 43.393 43.6582 41.6621ZM64.7344 23.9403C64.2086 23.9137 63.693 23.9158 63.1937 23.9485C62.9267 23.9669 62.6618 23.9914 62.3989 24.0241V15.6761H64.7344V23.9403ZM64.7344 13.2239H62.3989V12.5332C62.3989 11.4337 62.9981 8.5666 63.5666 7.16268C64.1352 8.5666 64.7344 11.4317 64.7344 12.5332V13.2239ZM57.3917 15.6761H59.7272V24.631C58.9181 24.9008 58.1376 25.2461 57.3917 25.663V15.6761ZM41.2229 41.2247C41.2168 42.4345 41.0558 43.5953 40.7705 44.6824C40.5912 45.3629 40.3629 46.0148 40.0899 46.63C39.4561 48.0584 38.5818 49.2845 37.5425 50.2184H27.9154C27.0044 49.3969 26.2259 48.3506 25.6247 47.1408C25.4291 46.7464 25.2498 46.3357 25.0928 45.9086C24.9318 45.4692 24.7953 45.0135 24.6791 44.5455C24.4142 43.4686 24.2716 42.3221 24.2777 41.1307C24.2797 40.814 24.294 40.4952 24.3164 40.1805C24.3673 39.4366 24.4692 38.7009 24.618 37.9796C24.8218 37.0007 25.1091 36.0525 25.4678 35.1533C27.0248 31.2522 29.8982 28.3319 32.7962 28.3319C32.8043 28.3319 32.8125 28.3319 32.8206 28.3319C34.129 28.3401 35.4251 28.945 36.5948 29.9627C36.978 30.2978 37.3489 30.6738 37.7014 31.0928C38.0193 31.4688 38.3209 31.8775 38.6083 32.3128C38.8712 32.7113 39.1157 33.1343 39.346 33.5757C39.8412 34.5219 40.2549 35.5539 40.5688 36.639C40.9947 38.1022 41.2311 39.6594 41.2229 41.2247ZM11.286 44.4331H13.3789H13.5236V44.5925V50.2184H11.286V44.4331ZM76.3668 50.2184C76.4931 50.149 76.6256 50.0795 76.758 50.012C77.6384 49.5543 78.635 49.0352 79.1098 47.9807C79.1771 47.8397 79.4379 47.5986 79.7334 47.3493C79.3808 48.3609 78.9101 49.3254 78.3211 50.2184H76.3668Z" fill="#666666"/>
</svg>
