<svg width="200" height="50" viewBox="0 0 200 50" fill="none" xmlns="http://www.w3.org/2000/svg">
<path d="M25.3018 19.7234C26.7782 21.8406 27.6488 24.4105 27.6488 27.1893C27.6488 34.3766 21.8335 40.1988 14.6601 40.1988C7.48676 40.1988 1.67146 34.3696 1.67146 27.1893C1.67146 21.4088 5.43922 16.5058 10.6486 14.8135C4.52688 16.3874 0 21.959 0 28.5822C0 36.4311 6.35852 42.7966 14.1935 42.7966C22.0355 42.7966 28.387 36.4311 28.387 28.5822C28.394 25.2323 27.2379 22.154 25.3018 19.7234Z" fill="#D0A392"/>
<path d="M23.2055 17.1673C18.2817 9.44377 27.0847 5.98941 27.0847 5.98941C33.6313 3.02257 30.5948 0 30.5948 0C36.8906 2.97381 34.0283 7.80017 34.0283 7.80017C33.0463 9.77807 28.8885 11.8952 28.8885 11.8952C22.92 14.7228 24.5149 18.2886 24.5149 18.2886C24.8213 19.2427 25.5874 20.1342 25.5874 20.1342C24.0413 18.4418 23.2055 17.1673 23.2055 17.1673Z" fill="#D0A392"/>
<path d="M8.54536 23.352C9.68753 22.175 9.89646 20.6289 11.1709 19.5076C11.5192 18.2888 12.4663 17.3417 12.6613 16.0672C12.9399 15.6841 12.9678 15.0295 13.316 14.6952C13.1976 14.6882 13.0862 14.6882 12.9678 14.6882C7.12461 14.6882 2.38184 19.431 2.38184 25.2881C2.38184 27.0362 2.80667 28.6798 3.55883 30.1284C3.60758 30.1075 3.66329 30.0796 3.70508 30.0587L4.12991 29.9821C5.2094 28.826 6.21227 27.8022 6.90871 26.486C7.15943 25.309 8.37821 24.5568 8.54536 23.352ZM23.0453 22.0636C22.9408 22.0566 22.8503 22.0357 22.7737 22.0078C21.9797 21.7919 21.3042 21.2696 20.4406 21.2139C19.8974 20.6707 19.2984 20.2667 18.5811 20.1483C17.7175 19.3962 16.4778 18.7972 16.0948 17.6551C15.8093 17.4044 15.1894 17.0422 15.3009 16.6522C16.0948 17.2094 16.9445 17.676 17.7175 18.2958C18.4697 18.1983 18.8179 19.2987 19.5074 19.1455C20.1829 19.4171 20.9211 19.4937 21.6315 19.6469C21.7429 19.7235 21.8683 19.7653 22.0006 19.7792C20.2943 16.9726 17.3136 15.0225 13.8662 14.73C13.908 15.0016 13.7478 15.3568 14.0821 15.5031C14.298 16.687 13.3508 17.5715 13.1001 18.6371C12.7728 19.5842 11.5958 19.9882 11.749 21.1303C11.359 21.98 10.377 22.3909 10.3213 23.352C9.99396 24.334 9.22091 25.1279 8.89358 26.1377C8.44786 26.1726 8.60107 26.7367 8.31553 26.9874C7.91159 27.4331 7.36837 27.8022 7.33355 28.4151C6.59532 29.3066 6.03816 30.2746 5.1119 30.992C4.73582 30.8318 4.49902 31.0825 4.2692 31.3402C6.18441 34.0911 9.36019 35.8949 12.9608 35.8949C15.5307 35.8949 17.8847 34.9756 19.7233 33.4504C19.2079 33.3738 18.6298 33.3877 18.1563 33.4852C17.4598 33.0604 16.7286 33.6384 16.0878 33.5409C15.1825 33.3111 14.1378 33.6384 13.2324 33.8334C12.3061 33.8543 11.3451 34.1817 10.6068 33.5409C10.7252 32.8863 10.5441 32.0366 11.3033 31.6884C12.1878 31.3193 13.309 31.1243 13.7269 30.1214C14.3258 29.8359 14.1169 29.1951 14.3676 28.7703C14.0194 28.5614 13.713 28.039 13.2255 28.3455C12.3549 28.5614 12.1042 30.2955 11.0247 29.5643L10.8088 29.1951C11.3311 28.631 12.0067 28.1087 12.3758 27.4122C12.529 27.259 12.8772 27.1824 12.8772 26.9108C12.1251 26.6601 10.8854 26.9526 10.7392 25.8452C10.6834 25.6502 10.8158 25.497 10.8784 25.3438C11.9928 26.1586 12.7867 24.8006 13.8105 24.71C14.4442 24.4802 14.3258 23.7977 14.4442 23.2823C14.0194 22.955 13.5388 23.3032 13.1488 23.4913C12.6474 23.4356 12.2992 23.8395 11.8744 23.9927C11.9719 23.6654 12.6126 23.4495 12.5151 22.9898C12.2853 22.7182 11.8952 22.5093 11.7977 22.1402C13.1628 21.8128 14.1726 20.5523 15.6351 20.4408C15.8302 20.6916 16.0948 20.7334 16.2898 20.998C16.8678 20.9214 17.237 21.388 17.7802 21.4228C17.6827 21.785 17.237 21.8268 16.9305 22.0009C16.4848 22.2725 15.865 22.2725 15.5794 22.7739C16.0809 22.9829 16.4291 23.7002 17.0629 23.6445C17.3763 23.7977 17.6688 24.0136 18.0657 23.9161C18.2816 24.2086 18.7622 24.132 18.7761 24.5568C18.1981 25.3647 17.237 25.1767 16.5545 25.7129C16.1157 25.5388 15.8998 25.9636 15.5725 26.0611C15.5516 26.2352 15.5725 26.4651 15.7814 26.486C17.1325 26.3327 18.6577 25.504 19.8347 26.6253C20.0436 26.7576 20.4127 26.6462 20.4685 26.9944C20.4127 27.8231 19.4656 28.3455 18.9015 28.9305C18.2886 29.3553 17.7245 29.9194 17.0489 30.205C16.8609 30.6298 16.3943 30.4557 16.1227 30.7064L15.4123 31.6327C15.5446 32.0784 15.9903 31.6745 16.2828 31.6954C16.4569 31.3054 16.8957 31.5561 17.2091 31.4795C17.5364 31.8068 17.9613 31.4795 18.3513 31.4795C19.0059 31.4377 19.0616 32.4266 19.7581 32.2734C20.0785 32.364 20.0854 32.74 20.3988 32.8236C22.328 30.9014 23.5328 28.241 23.5328 25.2951C23.5467 24.1668 23.3726 23.0804 23.0453 22.0636ZM16.7355 28.5544C17.2161 28.1714 18.01 27.7605 18.0866 27.1267L18.01 27.071C17.1952 27.0919 16.443 27.3217 15.7326 27.6351C15.656 27.9833 15.5794 28.4708 15.8093 28.7773C16.0739 28.8051 16.4569 28.7285 16.7355 28.5544Z" fill="#D0A392"/>
<g clip-path="url(#clip0_108_441)">
<path fill-rule="evenodd" clip-rule="evenodd" d="M51.5439 23.2084C52.4145 22.7885 53.5368 21.079 54.767 22.0237C54.8102 22.0612 55.134 22.4511 55.134 22.4511C55.3282 22.4286 56.2491 20.5542 56.3786 20.3293C56.8678 19.4895 57.1628 18.9497 57.6952 18.3799C57.6016 17.3902 58.1772 17.1877 58.6448 16.8503C58.9974 16.7754 59.2708 17.2327 59.4506 16.8503C60.4434 17.6826 61.8751 19.2721 61.0622 20.9291C60.7888 24.8729 60.3355 29.9563 61.501 33.1578C61.8248 34.0425 62.3356 34.5524 62.5298 35.617C62.2564 37.1166 63.1414 39.3959 62.091 40.543C60.9758 41.0229 60.2204 40.2581 59.2348 40.2056C58.2491 39.6208 57.688 38.5486 56.3067 38.4212C55.9757 37.2141 54.1843 37.7089 53.5224 36.8917C55.1915 36.5093 57.4362 36.7867 59.0118 36.2993C57.983 32.0556 58.6952 26.1775 58.501 21.274C58.465 20.4342 58.6952 19.3321 58.2779 18.6423C57.9038 18.6123 57.5297 19.1071 57.3283 19.4895C56.6952 20.6667 56.1052 22.3536 55.9397 24.0781C55.8894 24.558 56.0045 25.0453 55.9397 25.5177C55.8966 25.8626 55.6951 26.185 55.6448 26.5373C55.5512 27.2496 55.8462 27.9919 55.7887 28.6592C55.7455 29.199 55.3138 29.6339 55.2779 30.0988C54.767 30.0088 54.4433 29.7089 53.8893 29.6714C53.6087 29.3265 53.508 28.9366 53.2274 28.3968C53.1123 28.1718 52.8893 28.0219 52.8605 27.8869C52.5008 26.3274 53.0836 25.3302 53.3713 24.1531C52.2346 24.1156 51.6591 25.4502 51.177 26.4474C51.1554 27.812 52.7742 30.5861 51.5439 31.4558C51.1914 31.7108 50.5223 31.6733 50.1554 31.2834C50.0331 31.1484 49.8892 30.766 49.7166 30.4361C49.5583 30.1362 49.2273 29.7539 49.2058 29.6714C49.0547 29.199 49.3065 28.5467 48.7669 28.1419C49.6086 24.4755 51.0763 21.5364 53.3066 19.482C52.2202 19.707 51.5296 21.4239 50.3065 21.4314C48.882 21.4464 48.0762 19.6695 48.4791 17.9525C49.7022 18.4848 50.5727 17.4277 51.7022 16.6779C52.5008 16.1456 53.3426 15.6582 53.9757 15.3208C55.5297 14.4811 57.4218 13.4389 58.8823 12.944C59.3571 12.7866 59.8463 12.8766 60.2708 12.7716C60.7456 12.6591 61.1989 12.2168 61.7384 12.4342C61.8679 12.4117 61.9039 12.2917 61.8823 12.0968C62.1917 12.2767 62.7744 12.1343 63.1989 12.1793C63.278 12.3367 63.2924 12.5767 63.3428 12.7716C64.2637 13.3789 64.9472 14.691 64.8105 16.2505C63.8248 17.1053 62.8248 16.2505 61.8104 16.2505C61.2492 16.2505 60.5945 16.5204 59.9758 16.5879C59.3643 16.6554 59.0118 16.6254 58.5081 16.8428C57.1412 17.4427 55.4577 17.84 54.4073 18.9647C53.2634 20.1793 52.1843 21.4164 51.5439 23.2084Z" fill="#D0A392"/>
<path fill-rule="evenodd" clip-rule="evenodd" d="M46.4143 26.35C46.1841 26.3875 46.2057 26.1325 46.1193 26.0126C45.7092 26.3275 45.5797 26.9723 45.0186 27.1147C45.2056 26.5674 44.6157 27.2272 44.3567 27.1972C44.0401 26.8223 43.7164 27.0323 43.3279 26.6874C43.0761 26.4549 43.0041 25.9076 42.7451 25.6677C42.5653 25.5027 42.1696 25.5327 41.8674 25.3303C41.5365 25.1054 41.1336 24.6255 40.4789 24.5655C40.4717 28.022 41.0185 32.2582 42.0257 35.0923C42.7595 34.2301 43.2272 33.0979 43.7811 32.0332C44.3207 30.9985 44.8315 29.8889 45.3207 28.8092C45.1337 30.4887 44.2776 33.3678 44.0761 35.6021C43.9034 37.5215 44.3063 38.1663 45.0977 39.2535C44.9682 39.6659 44.9107 39.7858 44.8819 40.1907C43.4862 41.3679 42.5005 40.4981 41.443 39.426C40.8314 38.8036 40.1767 38.2863 39.8314 37.6415C37.9609 34.1551 39.0256 27.9545 38.9537 23.2084C38.9393 22.0388 39.2774 20.9291 39.2487 19.9844C39.2271 19.3546 38.7522 18.23 39.4717 18.035C39.8026 17.9451 40.2918 18.4249 40.3494 18.5449C40.8098 19.4821 40.04 21.7389 40.4213 22.7061C41.2487 23.126 42.371 23.5908 43.5725 23.2984C44.1553 21.7164 43.8171 18.7173 43.6444 16.9329C42.7811 15.7333 41.5868 14.9385 41.4358 12.9366C41.9538 12.1494 43.6444 12.0969 44.3639 12.4268C45.2056 12.8166 46.0906 14.4287 46.6373 15.3134C47.1194 16.0931 47.6589 17.3827 47.7381 18.6274C47.8748 20.7642 47.0978 23.0135 47.0762 25.0829C46.7524 25.3753 46.7021 26.0051 46.4143 26.35Z" fill="#D0A392"/>
<path fill-rule="evenodd" clip-rule="evenodd" d="M118.32 22.1979C118.227 22.5428 118.083 24.4499 118.158 24.3718C117.846 25.4718 118.22 28.3031 118.483 28.4724C118.695 29.6895 118.67 32.1108 118.889 33.8291C119.694 33.7575 120.007 34.0309 120.675 33.9137C121.262 35.0983 123.179 35.6516 122.38 37.5131C120.925 38.2161 119.17 36.309 117.671 37.3439C117.402 37.2853 117.152 37.2072 116.859 37.1747C115.866 37.6628 114.535 37.793 113.449 38.177C113.143 38.3007 113.293 37.9492 113.043 38.0078C111.238 38.7042 109.527 38.5675 107.44 39.0101C106.666 38.6652 106.76 37.4285 106.466 36.5824C104.792 36.0161 103.574 34.9877 101.919 34.4084C101.064 34.8901 100.071 35.235 99.4025 35.912C98.3844 36.1918 96.2485 36.3936 95.9112 35.0723C96.6419 34.6297 97.4726 34.9617 98.1846 34.8185C98.9153 34.6753 99.1464 33.9398 99.7272 33.6469C98.6093 32.9309 97.5038 32.1954 96.9667 30.8871C96.5233 30.9327 96.6419 31.2972 96.5608 31.5576C96.0611 32.1889 95.3991 32.6445 94.8557 33.2303C92.6823 33.3475 91.0272 32.4883 90.9585 30.7179C93.057 30.6593 94.2062 28.941 96.236 28.544C96.3422 23.7144 98.7842 21.2997 100.864 18.5074C101.795 18.4423 101.738 20.1151 102.325 20.6813C102.069 23.5127 100.108 24.5866 99.3213 26.8712C100.808 26.0641 102.332 25.2896 103.787 24.4434C103.749 23.6624 102.463 23.2328 103.462 22.6014C103.781 22.5233 103.518 23.044 103.706 23.1026C104.418 21.9115 103.506 20.9026 103.624 19.7571C105.142 20.2713 106.56 21.2932 106.466 23.1872C107.172 22.8813 107.759 22.4582 108.902 22.6014C109.826 23.044 110.338 23.9097 111.094 24.528C111.956 24.0203 112.718 23.1286 113.936 23.5257C114.679 23.7665 115.185 24.6257 115.479 25.3677C115.553 23.5582 115.76 20.6358 115.397 18.6766C114.329 19.0216 112.649 20.4861 111.987 18.8458C112.899 17.5831 114.267 16.7891 115.56 15.9169C116.734 16.6849 117.852 17.518 118.807 18.5074C118.876 18.9695 118.651 21.0068 118.32 22.1979ZM108.902 26.383C108.952 25.2245 109.171 24.0724 108.496 23.6233C108.384 23.6233 108.315 23.5843 108.252 23.5387C107.403 24.0073 106.666 24.5866 106.141 25.3807C106.16 27.2943 105.648 28.6676 105.167 30.067C104.955 30.2883 105.298 30.1321 105.248 30.399C104.549 30.77 104.674 31.6096 103.949 32.1564C104.18 32.254 104.418 32.3451 104.68 32.4037C104.83 32.28 104.774 31.9416 105.086 31.9871C105.748 33.2824 107.303 33.6664 108.09 34.8315C107.853 35.1504 108.059 35.3782 108.334 35.5865C108.79 35.1114 109.414 34.8055 109.714 34.1676C109.096 33.8291 109.014 32.9374 108.415 32.5794C108.558 31.128 108.802 28.583 108.902 26.383ZM111.744 25.9665C112.093 26.4416 111.625 27.3529 112.068 27.8085C112.237 26.5913 112.893 25.8688 113.286 24.8795C112.612 25.0748 112.15 25.4913 111.744 25.9665ZM113.773 27.802C114.823 27.8605 115.197 29.5593 115.803 29.4747C115.591 28.225 115.703 27.0925 115.641 25.628C115.535 25.6215 115.528 25.5174 115.397 25.5434C114.973 26.4156 113.898 26.6239 113.773 27.802ZM98.9965 29.8132C99.7085 30.4445 100.583 30.9132 101.676 31.154C102.382 29.7025 103.293 28.4659 103.624 26.6369C102.107 27.7239 100.121 28.3227 98.9965 29.8132ZM112.068 29.8978C112.531 30.0605 112.762 30.4706 113.205 30.6528C113.255 30.425 113.542 30.4445 113.53 30.1516C113.211 29.9304 113.567 30.0735 113.692 29.8978C112.437 30.2167 112.393 28.8369 111.906 28.6416C112.075 29.0386 111.969 29.6309 112.068 29.8978ZM114.504 31.9025C115.004 32.2475 115.404 32.7031 116.047 32.9049C115.991 32.293 115.884 31.7333 115.884 31.0629C115.335 31.2581 115.06 31.7268 114.504 31.9025ZM112.312 31.9025C112.325 31.6942 112.187 31.6422 112.068 31.5706C111.894 31.7919 112.037 32.0978 112.312 31.9025ZM112.718 32.5729H112.556C111.993 33.5558 110.826 34.3629 110.363 35.1634C111.544 34.6492 113.037 34.4605 114.342 34.0765C113.686 33.6924 113.399 32.9309 112.718 32.5729Z" fill="#D0A392"/>
<path fill-rule="evenodd" clip-rule="evenodd" d="M83.9558 26.167C83.4493 26.355 81.8047 26.2899 82.1447 27.353C83.1023 27.3096 83.6436 26.8178 84.4901 26.6515C85.0661 27.3313 86.0792 27.5554 86.3706 28.5389C86.0098 28.8354 85.8571 29.3561 85.4963 29.6598C85.1285 29.7394 84.4415 29.7972 84.0877 29.6598C83.6713 29.9708 83.0607 30.0793 82.4084 30.1516C82.4292 30.6795 82.339 30.665 82.3459 31.1278C83.3313 31.1495 84.3999 31.4316 85.0314 32.039C84.9897 32.2198 85.1701 32.4151 85.1632 32.5959C85.1563 32.726 84.962 33.3262 84.8926 33.4347C84.8232 33.5577 84.6497 33.4709 84.5595 33.5721C84.3999 33.7457 84.3999 34.1362 84.2264 34.3387C83.9905 34.6135 83.6158 34.8521 83.3521 35.1052C83.0468 35.4017 82.7207 35.6331 82.4778 35.8067C82.3529 35.9585 82.4292 36.3201 82.4084 36.5732C83.0954 36.6311 83.8031 36.2189 84.622 36.0815C87.0159 35.6837 89.0283 37.4555 87.8417 39.2995C87.5849 39.3284 87.5294 39.3501 87.3698 39.5816C86.6343 39.0103 85.3783 38.9452 84.0807 38.8801C83.4701 38.8512 82.8664 38.8656 82.2696 38.9524C80.3822 39.2127 78.4254 40.095 77.1694 40.7024C77.2249 40.9483 77.1763 40.876 77.2388 41.1219C74.8448 41.1291 75.2403 38.5185 76.6351 37.7664C77.447 38.0557 78.4462 37.8243 78.8486 37.2747C77.3845 37.1807 75.1501 36.6455 76.2326 34.8955C76.3367 34.7292 76.753 34.3531 76.9682 34.194C78.016 33.4492 79.5772 32.4874 80.1879 32.0969C80.1463 31.8438 80.0977 31.5907 80.1185 31.258C79.4523 31.5256 78.7307 32.5525 77.5719 32.3789C76.8155 32.2632 75.8163 31.2869 75.8926 30.3541C76.0036 28.9873 77.3984 28.5317 78.3074 27.8375C78.814 27.4542 79.2719 27.042 79.5842 26.7166C78.356 26.4346 77.329 25.9428 76.9682 24.7568C76.5865 25.0822 76.2812 25.4872 75.962 25.8777C74.8934 26.2465 74.1578 27.1071 73.4154 27.8375C72.6382 28.5968 71.8055 29.1753 70.7299 29.6526C70.7646 29.5514 70.834 29.479 70.9312 29.4429C69.4878 29.9419 66.275 30.166 65.9697 28.3943C66.0808 28.1557 66.1432 28.3871 66.3722 28.3943C66.2265 27.8592 66.5179 27.7579 66.5734 27.2734C67.2951 26.7455 67.6559 25.6391 68.4539 25.0389C68.4955 25.0099 68.6413 24.9087 68.6551 24.9015C69.2866 24.6194 69.8487 24.3591 70.5356 23.9252C71.0699 23.5853 71.639 23.1586 72.2773 22.8043C73.4986 22.1318 75.1293 21.546 75.9689 20.8445C76.5171 20.389 77.8217 18.1038 77.8494 17.3517C77.8633 16.8166 77.4747 16.5273 77.5163 16.0934C77.6482 15.768 78.1409 15.8114 78.5919 15.8114C79.6258 16.5345 80.5695 17.3445 81.2079 18.4654C81.2357 18.8197 81.1663 19.0728 81.0761 19.3042C83.5533 19.0728 86.6551 19.1524 88.5911 20.0708C88.9172 20.9024 90.1385 21.5749 90.5341 22.6597C90.6451 22.9562 90.9157 23.1948 90.9365 23.3611C91.0545 24.2 90.3814 24.8508 89.4585 24.9665C89.0977 24.2217 88.2372 23.9975 87.7792 23.3611C86.7523 23.2093 85.642 23.0863 84.3583 23.3611C84.733 23.9035 84.5803 24.6773 84.8301 25.2486C84.3444 25.4655 83.9766 26.5358 83.7546 26.5792C83.8517 26.4779 83.8934 26.3116 83.9558 26.167ZM79.9311 21.0615C79.716 21.3291 79.4801 21.5749 79.4593 22.0378C79.8201 21.9944 80.063 21.828 80.4655 21.828C80.8124 21.9582 80.8749 22.3849 81.201 22.5295C81.8602 22.1028 83.2897 22.0016 83.7476 22.6669C84.393 22.5223 85.073 22.421 85.5587 22.1101C84.1779 21.2351 82.1586 20.8445 79.9311 21.0615ZM73.0823 23.0213C72.1733 23.701 70.945 24.2578 69.9944 24.981C69.1478 25.6318 67.6837 26.5213 68.2527 27.9893C69.9944 27.541 70.945 26.2755 72.0761 25.1907C73.2627 24.1638 74.4423 23.137 75.2958 21.763C75.3305 21.763 75.3722 21.7051 75.2958 21.6906C74.4632 21.8931 73.7623 22.515 73.0823 23.0213ZM78.0507 23.7155C78.5988 23.8456 78.925 23.5708 79.2581 23.296C78.9458 23.0574 79.1262 22.6886 79.3274 22.4572C79.2372 22.4572 79.265 22.3342 79.1956 22.3198C78.689 22.6597 78.2172 23.0285 78.0507 23.7155ZM78.8556 28.4015C79.1123 28.0906 80.0005 28.4305 79.9311 27.7724C79.5911 27.7001 78.807 28.0834 78.8556 28.4015ZM79.1193 35.1124C79.4662 35.2426 79.7715 35.4089 80.2573 35.3945C80.174 34.9461 80.4238 34.1506 80.1254 33.9265C79.7854 34.317 79.3552 34.6135 79.1193 35.1124Z" fill="#D0A392"/>
<path fill-rule="evenodd" clip-rule="evenodd" d="M130.111 34.9077C130.011 34.8584 129.911 34.8037 129.801 34.7653C129.428 34.6229 129.112 34.3764 128.771 34.1847C128.471 34.0148 128.245 33.7519 127.987 33.5273C127.903 33.4561 127.824 33.3739 127.74 33.2972C127.656 33.2205 127.598 33.1384 127.567 33.0124C127.52 32.8097 127.435 32.618 127.372 32.4262C127.362 32.3934 127.357 32.355 127.351 32.3167C127.341 32.2729 127.33 32.2236 127.32 32.1797C127.304 32.1195 127.288 32.0702 127.351 32.0154C127.472 31.9113 127.577 31.7963 127.688 31.6758C127.74 31.621 127.788 31.6155 127.856 31.6319C128.156 31.7086 128.455 31.7853 128.755 31.8565C128.786 31.8675 128.818 31.8675 128.855 31.8675C129.375 31.8127 129.895 31.7525 130.416 31.6922C130.71 31.6593 131.004 31.6046 131.299 31.5772C131.94 31.5169 132.566 31.4019 133.191 31.243C133.375 31.1992 133.57 31.1663 133.748 31.1061C133.943 31.0458 134.127 30.9527 134.321 30.887C134.668 30.761 134.978 30.5692 135.257 30.3063C135.273 30.2899 135.288 30.2789 135.304 30.268C135.546 30.1036 135.714 29.879 135.867 29.627C136.045 29.3367 136.203 29.0354 136.387 28.7506C136.413 28.7122 136.429 28.652 136.429 28.6027C136.439 28.3014 136.445 28.0056 136.455 27.7043C136.455 27.6386 136.424 27.5564 136.534 27.5235C136.576 27.5126 136.555 27.4085 136.508 27.3647C136.492 27.3482 136.466 27.3208 136.466 27.3044C136.497 27.0415 136.371 26.8169 136.303 26.5758C136.292 26.543 136.308 26.5046 136.308 26.4663C136.308 26.4444 136.303 26.406 136.298 26.4006C136.203 26.3786 136.203 26.2855 136.182 26.2198C136.15 26.1047 136.061 26.0445 135.977 25.9952C135.83 25.913 135.672 25.8582 135.514 25.7925C135.52 25.7596 135.52 25.7322 135.525 25.6939C135.488 25.6994 135.451 25.6994 135.42 25.6994C135.399 25.6994 135.372 25.7103 135.357 25.7049C135.073 25.5898 134.794 25.4638 134.505 25.3543C134.421 25.3214 134.39 25.2557 134.337 25.1954C134.326 25.179 134.316 25.1516 134.305 25.1571C134.221 25.1735 134.195 25.0968 134.142 25.053C134.106 25.0256 134.079 24.9708 134.022 25.0201C134.016 25.0256 133.995 25.0146 133.985 25.0037C133.895 24.9051 133.759 24.8503 133.706 24.7134C133.701 24.7024 133.685 24.6969 133.669 24.686C133.517 24.56 133.359 24.434 133.207 24.308C133.186 24.2916 133.17 24.2587 133.16 24.2313C133.112 24.1163 133.065 23.9958 133.012 23.8807C132.912 23.6561 132.76 23.4863 132.529 23.3768C132.55 23.059 132.476 22.7304 132.613 22.4181C132.634 22.3633 132.66 22.3414 132.713 22.3414C132.997 22.3305 133.275 22.3195 133.559 22.3031C133.69 22.2976 133.822 22.2702 133.953 22.2593C134.001 22.2538 134.053 22.2702 134.1 22.2702C134.121 22.2702 134.148 22.2702 134.169 22.2647C134.358 22.21 134.542 22.1552 134.731 22.1004C134.747 22.0949 134.768 22.1114 134.789 22.1114C134.815 22.1114 134.852 22.1223 134.863 22.1114C134.952 22.0182 135.073 22.0182 135.183 21.9963C135.551 21.9142 135.919 21.821 136.292 21.7608C136.471 21.7334 136.623 21.6567 136.776 21.58C137.459 21.2349 138.143 20.8898 138.826 20.5392C138.842 20.5282 138.857 20.5118 138.873 20.5009C138.889 20.5009 138.91 20.5009 138.926 20.5009C139.068 20.5282 139.21 20.5392 139.346 20.5775C139.478 20.6159 139.599 20.6707 139.725 20.72C139.756 20.7309 139.772 20.7747 139.804 20.7912C139.935 20.8679 140.072 20.9391 140.203 21.0158C140.224 21.0267 140.24 21.0322 140.261 21.0377C140.324 21.0596 140.387 21.0706 140.445 21.0979C140.634 21.1965 140.813 21.3116 140.97 21.454C141.07 21.5417 141.181 21.6074 141.286 21.6896C141.465 21.8265 141.585 22.0073 141.68 22.21C141.696 22.2428 141.67 22.2976 141.664 22.3469C141.659 22.3798 141.643 22.4181 141.654 22.44C141.727 22.5605 141.717 22.692 141.706 22.818C141.706 22.8454 141.67 22.8837 141.643 22.8947C141.564 22.9385 141.48 22.9714 141.396 23.0097C141.244 23.07 141.076 23.1029 140.944 23.196C140.792 23.3001 140.629 23.3384 140.461 23.3877C140.292 23.437 140.129 23.4808 139.966 23.5411C139.872 23.5794 139.793 23.6506 139.704 23.6999C139.651 23.7273 139.588 23.7273 139.53 23.7492C139.488 23.7657 139.451 23.7931 139.409 23.8205C139.388 23.8369 139.378 23.8643 139.357 23.8752C139.225 23.9629 139.094 24.0451 138.957 24.1272C138.81 24.2203 138.668 24.308 138.574 24.4669C138.489 24.6148 138.39 24.7517 138.311 24.8996C138.242 25.0256 138.179 25.1516 138.248 25.3105C138.295 25.4255 138.316 25.546 138.358 25.6665C138.379 25.7213 138.405 25.7761 138.442 25.8199C138.589 25.9678 138.673 26.1431 138.679 26.3567C138.679 26.3732 138.684 26.4006 138.694 26.406C138.8 26.4718 138.789 26.5868 138.8 26.6909C138.805 26.7402 138.8 26.8059 138.826 26.8443C138.889 26.9319 138.889 27.0305 138.905 27.1346C138.905 27.151 138.905 27.1675 138.915 27.1784C138.989 27.2661 138.968 27.3537 138.92 27.4414C138.994 27.4742 139.005 27.529 138.968 27.5947C138.957 27.6112 138.963 27.6386 138.968 27.655C139.036 27.8248 138.973 27.9891 138.942 28.148C138.868 28.4876 138.705 28.7834 138.484 29.0464C138.405 29.1395 138.332 29.2381 138.263 29.3422C138.174 29.4846 138.1 29.6325 138.016 29.7804C138.001 29.8078 137.964 29.8297 137.959 29.8626C137.932 29.9448 137.932 30.0434 137.89 30.12C137.822 30.2625 137.885 30.383 137.917 30.4871C137.995 30.4816 138.064 30.4871 138.127 30.4761C138.169 30.4652 138.227 30.4816 138.237 30.4049C138.242 30.372 138.29 30.3392 138.327 30.3282C138.526 30.268 138.731 30.2132 138.936 30.1584C138.957 30.2734 138.989 30.2844 139.104 30.2515C139.099 30.2186 139.099 30.1858 139.094 30.1584C139.309 30.1091 139.336 30.1091 139.351 30.1529C139.299 30.1748 139.241 30.1913 139.183 30.2132C139.183 30.2241 139.189 30.2296 139.189 30.2406C139.294 30.2406 139.394 30.2406 139.499 30.2406C139.52 30.2406 139.546 30.2186 139.567 30.2132C139.599 30.2022 139.63 30.1858 139.662 30.1967C139.735 30.2187 139.756 30.1748 139.756 30.12C139.756 30.0653 139.777 30.0434 139.83 30.0324C139.977 29.9941 140.119 29.9557 140.261 29.9174C140.729 29.8023 141.186 29.627 141.675 29.638C141.722 29.638 141.769 29.6325 141.817 29.6435C141.948 29.6818 142.08 29.7311 142.216 29.7749C142.221 29.7859 142.216 29.8297 142.232 29.8352C142.327 29.8845 142.442 29.89 142.532 29.9667C142.584 30.016 142.673 29.9667 142.742 29.9667C142.81 29.9667 142.873 29.879 142.942 29.8407C142.973 29.8188 143.036 29.7914 143.047 29.8023C143.152 29.8955 143.157 29.8023 143.178 29.7366C143.189 29.7092 143.199 29.6873 143.204 29.6599C143.225 29.5887 143.267 29.6051 143.32 29.6216C143.378 29.6435 143.441 29.6599 143.499 29.6873C143.583 29.7311 143.614 29.6599 143.656 29.6161C143.672 29.5996 143.698 29.5942 143.72 29.5942C143.83 29.5777 143.935 29.5723 144.045 29.5503C144.198 29.523 144.345 29.4901 144.492 29.4627C144.513 29.4572 144.545 29.4737 144.566 29.4791C144.597 29.4846 144.629 29.4901 144.66 29.4956C144.687 29.501 144.713 29.501 144.739 29.512C144.85 29.5777 144.971 29.5832 145.086 29.627C145.212 29.6709 145.365 29.6106 145.465 29.7366C145.496 29.7749 145.549 29.8023 145.591 29.8242C145.727 29.9009 145.754 30.0981 145.922 30.142C145.99 30.1639 146.048 30.2241 146.111 30.2625C146.405 30.4268 146.716 30.5692 146.942 30.8377C147.015 30.9198 147.068 31.0184 147.152 31.0951C147.241 31.1828 147.289 31.3197 147.346 31.4402C147.394 31.5388 147.43 31.6484 147.467 31.7525C147.488 31.8127 147.494 31.8785 147.509 31.9442C147.509 31.988 147.509 32.0318 147.509 32.0757C147.451 32.1743 147.404 32.2893 147.325 32.366C147.047 32.6399 146.747 32.8864 146.369 33.0014C146.174 33.0617 145.98 33.0891 145.78 33.0398C145.638 33.0069 145.507 32.9521 145.365 32.9193C145.223 32.8864 145.112 32.7933 144.971 32.7494C144.576 32.6289 144.187 32.4865 143.798 32.3605C143.651 32.3112 143.504 32.2674 143.357 32.2236C143.267 32.1962 143.178 32.1633 143.089 32.1469C142.747 32.0921 142.405 32.0428 142.069 31.988C141.37 31.873 140.666 31.8072 139.961 31.7908C139.924 31.7908 139.888 31.7908 139.856 31.7963C139.641 31.8346 139.425 31.8785 139.204 31.9223C138.358 32.0921 137.507 32.2455 136.66 32.4317C135.993 32.5796 135.315 32.7001 134.668 32.9357C134.127 33.1329 133.554 33.2479 133.039 33.5383C132.986 33.5711 132.918 33.5766 132.849 33.5985C132.818 33.6259 132.781 33.6642 132.734 33.6916C132.613 33.7629 132.481 33.8176 132.361 33.8943C131.987 34.1244 131.614 34.3545 131.246 34.5955C131.057 34.7215 130.863 34.7817 130.642 34.8091C130.479 34.831 130.321 34.8694 130.158 34.9023C130.148 34.9077 130.132 34.9077 130.111 34.9077Z" fill="#666666"/>
<path fill-rule="evenodd" clip-rule="evenodd" d="M155.599 35.4205C155.52 35.3822 155.441 35.3493 155.368 35.3055C155.273 35.2452 155.178 35.1795 155.089 35.1028C154.989 35.0097 154.895 34.9056 154.8 34.807C154.763 34.7687 154.716 34.7358 154.732 34.6646C154.737 34.6536 154.716 34.6207 154.7 34.6153C154.584 34.5495 154.553 34.4345 154.516 34.314C154.495 34.2483 154.437 34.1989 154.411 34.1332C154.353 33.9963 154.248 33.8812 154.253 33.7224C154.253 33.7114 154.227 33.7059 154.222 33.695C154.211 33.6676 154.19 33.6292 154.201 33.6073C154.232 33.5142 154.211 33.454 154.117 33.4211C154.096 33.2622 154.059 33.1034 154.048 32.9445C154.038 32.7473 154.043 32.5501 154.048 32.3529C154.048 32.2488 154.059 32.1393 154.069 32.0352C154.075 31.9914 154.106 31.9475 154.122 31.9037C154.132 31.9037 154.143 31.9092 154.153 31.9092C154.132 31.8544 154.101 31.7942 154.09 31.7394C154.08 31.6736 154.064 31.6024 154.122 31.5367C154.174 31.4819 154.195 31.4107 154.201 31.3285C154.211 31.2464 154.259 31.1751 154.29 31.0985C154.295 31.082 154.311 31.0601 154.311 31.0492C154.238 30.8793 154.332 30.726 154.379 30.5781C154.506 30.1891 154.516 29.7892 154.558 29.3894C154.6 28.9566 154.616 28.5238 154.674 28.0911C154.716 27.7679 154.805 27.4557 154.874 27.1325C154.931 26.8476 154.979 26.5628 155.026 26.2779C155.047 26.1464 154.947 26.015 154.826 26.004C154.579 25.9821 154.327 25.9492 154.08 26.0204C154.064 26.0259 154.048 26.0259 154.038 26.0259C154.022 26.0259 154.001 26.0259 153.98 26.004C154.08 25.9876 154.174 25.9602 154.274 25.9547C154.337 25.9547 154.39 25.9547 154.453 25.9218C154.537 25.8835 154.637 25.8725 154.732 25.8671C154.879 25.8561 155.031 25.8506 155.178 25.8671C155.368 25.889 155.546 25.9492 155.715 26.0533C155.73 26.0643 155.741 26.0807 155.751 26.0971C155.83 26.2012 155.914 26.2998 155.993 26.4039C156.04 26.4696 156.093 26.5244 156.177 26.5354C156.198 26.5354 156.23 26.5682 156.24 26.5901C156.34 26.7654 156.456 26.9353 156.535 27.1215C156.582 27.2256 156.587 27.3516 156.587 27.4666C156.582 27.8884 156.571 28.3102 156.55 28.7375C156.545 28.9018 156.545 29.0771 156.482 29.2195C156.429 29.3455 156.498 29.4332 156.487 29.5044C156.54 29.5701 156.587 29.6085 156.608 29.6632C156.666 29.7892 156.713 29.9207 156.766 30.0522C156.776 30.085 156.782 30.1179 156.787 30.1508C156.813 30.5561 156.845 30.967 156.871 31.3724C156.871 31.3943 156.866 31.4162 156.86 31.4326C156.824 31.5257 156.813 31.6189 156.881 31.701C156.824 31.7996 156.85 31.8873 156.887 31.9804C156.929 32.0845 156.939 32.1886 156.897 32.2981C156.881 32.3365 156.866 32.3803 156.876 32.4132C156.939 32.6104 156.871 32.8076 156.876 33.0048C156.876 33.1362 156.871 33.2732 156.86 33.4047C156.855 33.4485 156.839 33.4978 156.829 33.5526C156.829 33.5526 156.839 33.5635 156.86 33.5745C156.839 33.6019 156.818 33.6292 156.803 33.6566C156.792 33.6785 156.787 33.7224 156.797 33.7333C156.892 33.8265 156.871 33.947 156.86 34.0565C156.845 34.2811 156.824 34.5057 156.787 34.7248C156.771 34.818 156.692 34.9001 156.645 34.9878C156.582 35.1028 156.498 35.1685 156.377 35.2178C156.161 35.3 155.951 35.3986 155.715 35.3986C155.699 35.3986 155.678 35.4096 155.662 35.415C155.636 35.4205 155.62 35.4205 155.599 35.4205Z" fill="#666666"/>
<path fill-rule="evenodd" clip-rule="evenodd" d="M152.44 26.1521C152.408 26.1905 152.382 26.2233 152.34 26.2726C152.477 26.2891 152.587 26.3055 152.671 26.2014C152.676 26.196 152.692 26.1905 152.703 26.1905C152.792 26.1631 152.881 26.1412 152.981 26.1083C152.986 26.1247 152.997 26.1521 153.013 26.196C153.065 26.1576 153.118 26.1247 153.181 26.0809C153.202 26.0974 153.234 26.1302 153.276 26.174C153.076 26.2343 152.892 26.3 152.703 26.3493C152.44 26.4205 152.193 26.5192 151.946 26.6342C151.877 26.6671 151.799 26.678 151.725 26.7054C151.683 26.7218 151.646 26.7492 151.609 26.7711C151.594 26.7821 151.583 26.7985 151.567 26.7985C151.404 26.7985 151.347 26.941 151.257 27.0396C151.226 27.0724 151.178 27.0889 151.142 27.1217C151.042 27.2094 150.942 27.297 150.852 27.3901C150.737 27.5107 150.632 27.6421 150.527 27.7736C150.484 27.8229 150.442 27.8667 150.395 27.9105C150.369 27.9325 150.337 27.9544 150.322 27.9653C150.29 27.9325 150.264 27.9105 150.237 27.8831C150.232 27.9215 150.227 27.9598 150.222 28.0201C150.138 28.0639 150.038 28.1187 149.922 28.1735C149.922 28.1023 149.922 28.0365 149.922 27.9708C149.912 27.9763 149.906 27.9818 149.896 27.9872C149.864 27.9434 149.833 27.8941 149.791 27.8558C149.77 27.8338 149.738 27.8065 149.707 27.8065C149.57 27.801 149.438 27.801 149.302 27.8065C149.249 27.8065 149.223 27.7955 149.207 27.7352C149.181 27.6312 149.144 27.5326 149.113 27.434C149.092 27.3792 149.102 27.3408 149.144 27.3025C149.297 27.1546 149.433 26.9957 149.601 26.8697C149.712 26.7821 149.859 26.7492 149.99 26.6944C149.996 26.689 150.011 26.6999 150.022 26.7054C150.09 26.7547 150.132 26.7109 150.174 26.6671C150.374 26.4534 150.569 26.2398 150.768 26.0371C150.805 25.9988 150.868 25.9988 150.9 25.9823C150.942 26.0152 150.979 26.07 151.01 26.0645C151.078 26.059 151.147 26.0316 151.205 25.9988C151.257 25.9714 151.304 25.9221 151.341 25.8728C151.389 25.8125 151.415 25.7358 151.457 25.6646C151.357 25.6317 151.315 25.6975 151.294 25.7468C151.262 25.8125 151.226 25.8399 151.157 25.8399C151.131 25.8399 151.105 25.8618 151.063 25.8563C151.094 25.818 151.126 25.7796 151.152 25.7413C151.168 25.7194 151.199 25.6865 151.194 25.6646C151.184 25.566 151.252 25.5222 151.304 25.4674C151.341 25.429 151.378 25.3907 151.415 25.3524C151.436 25.3304 151.457 25.2921 151.499 25.3304C151.509 25.3414 151.562 25.2976 151.588 25.2702C151.662 25.1935 151.72 25.1113 151.793 25.0401C151.872 24.9634 151.956 24.9032 152.04 24.832C152.046 24.8265 152.051 24.8155 152.051 24.81C152.056 24.6731 152.145 24.5909 152.224 24.5033C152.466 24.2349 152.713 23.9719 152.96 23.7145C152.992 23.6816 153.044 23.6597 153.071 23.6213C153.407 23.1119 153.849 22.6956 154.248 22.2409C154.469 21.9889 154.7 21.7424 154.931 21.4959C154.973 21.4521 154.984 21.4083 154.968 21.3535C154.937 21.2385 154.926 21.1125 154.994 21.0139C155.089 20.8824 155.11 20.7126 155.189 20.5811C155.268 20.4442 155.373 20.3236 155.467 20.1977C155.578 20.0552 155.683 19.9073 155.799 19.7594C155.751 19.7211 155.667 19.7156 155.699 19.6225C155.715 19.5677 155.73 19.502 155.725 19.4472C155.72 19.376 155.694 19.3102 155.667 19.25C155.604 19.1295 155.525 19.0144 155.467 18.8939C155.446 18.8446 155.457 18.7679 155.478 18.7186C155.531 18.5926 155.562 18.4447 155.704 18.3845C155.746 18.3626 155.799 18.3571 155.835 18.3297C156.014 18.2201 156.156 18.3023 156.298 18.4119C156.33 18.4392 156.377 18.4447 156.419 18.4557C156.492 18.4666 156.582 18.4612 156.587 18.5762C156.692 18.5817 156.776 18.62 156.866 18.6584C157.002 18.7131 157.071 18.8556 157.192 18.8994C157.349 18.9542 157.449 19.0747 157.57 19.1678C157.691 19.2609 157.801 19.3705 157.922 19.4636C157.985 19.5129 158.069 19.5294 158.132 19.5787C158.185 19.6225 158.232 19.6773 158.264 19.743C158.295 19.8087 158.295 19.8909 158.395 19.8964C158.406 19.8964 158.422 19.9183 158.432 19.9347C158.59 20.1703 158.753 20.3949 158.879 20.6578C158.984 20.8769 159.042 21.107 159.079 21.3425C159.105 21.5124 159.136 21.6822 159.163 21.852C159.168 21.8848 159.157 21.9177 159.152 21.9506C159.152 21.9615 159.142 21.9725 159.136 21.9835C159.068 22.104 159.026 22.2628 158.926 22.334C158.779 22.4381 158.59 22.4819 158.416 22.5532C158.337 22.586 158.253 22.6189 158.174 22.6463C157.717 22.7942 157.265 22.9695 156.829 23.1722C156.797 23.1886 156.755 23.1831 156.729 23.1941C156.671 23.2215 156.619 23.2598 156.566 23.2872C156.34 23.3967 156.114 23.5008 155.893 23.6213C155.799 23.6706 155.709 23.7473 155.625 23.8185C155.362 24.0322 155.11 24.2513 154.847 24.4595C154.763 24.5252 154.658 24.5635 154.563 24.6183C154.548 24.6293 154.527 24.6457 154.527 24.6621C154.527 24.6786 154.548 24.695 154.558 24.706C154.29 25.0018 154.022 25.3031 153.754 25.6043C153.686 25.681 153.612 25.7577 153.549 25.8399C153.517 25.8837 153.481 25.933 153.47 25.9823C153.465 26.0042 153.517 26.0426 153.554 26.0535C153.565 26.0754 153.575 26.1028 153.58 26.1193C153.544 26.1302 153.507 26.1412 153.465 26.1521C153.423 26.1631 153.381 26.174 153.333 26.174C153.381 26.1193 153.339 26.0207 153.428 25.9878C153.412 25.9714 153.396 25.9385 153.381 25.9385C153.349 25.933 153.312 25.944 153.265 25.9495C153.339 25.9056 153.402 25.8728 153.465 25.8344C153.423 25.7577 153.375 25.7522 153.339 25.8015C153.297 25.8454 153.218 25.8289 153.202 25.9111C153.202 25.9221 153.149 25.9385 153.128 25.933C153.081 25.9221 153.039 25.8837 152.997 25.8837C152.96 25.8837 152.923 25.9166 152.876 25.944C152.876 25.9495 152.871 25.9823 152.866 26.0261C152.839 25.9275 152.855 25.8892 152.918 25.8508C152.95 25.8289 152.971 25.7906 152.992 25.7632C153.013 25.7358 153.002 25.6701 153.071 25.6865C153.081 25.6865 153.102 25.6482 153.118 25.6263C153.134 25.6098 153.144 25.5879 153.155 25.5715C153.16 25.577 153.17 25.577 153.176 25.5824C153.144 25.6372 153.113 25.692 153.081 25.7522C153.181 25.7796 153.207 25.6975 153.249 25.6591C153.391 25.5222 153.528 25.3743 153.67 25.2318C153.722 25.1771 153.775 25.1223 153.833 25.0675C153.859 25.0401 153.891 25.0182 153.917 24.9908C153.938 24.9634 153.954 24.9306 153.98 24.8813C153.88 24.8758 153.833 24.9032 153.785 24.9689C153.728 25.0566 153.68 25.1606 153.554 25.1606C153.538 25.1606 153.507 25.1935 153.507 25.2099C153.502 25.3085 153.439 25.3414 153.36 25.3743C153.333 25.3852 153.312 25.4017 153.291 25.4181C153.291 25.4071 153.286 25.3852 153.281 25.3469C153.213 25.3743 153.149 25.4017 153.086 25.4236C153.092 25.4564 153.097 25.4784 153.097 25.4838C153.029 25.5824 152.929 25.577 152.834 25.5989C152.797 25.6098 152.676 25.6482 152.734 25.7632C152.734 25.7632 152.708 25.7906 152.692 25.7851C152.545 25.7742 152.471 25.8837 152.398 25.9878C152.366 26.0316 152.319 26.059 152.282 26.0974C152.272 26.1083 152.266 26.1247 152.245 26.1631C152.319 26.1412 152.382 26.1467 152.44 26.1521ZM154.516 24.2513C154.563 24.2294 154.6 24.2075 154.637 24.1856C154.7 24.1417 154.768 24.0979 154.821 24.0431C154.847 24.0158 154.863 23.95 154.847 23.9226C154.826 23.8843 154.789 23.9007 154.747 23.9391C154.674 24.0103 154.584 24.0596 154.5 24.1198C154.469 24.1417 154.442 24.1691 154.411 24.191C154.448 24.213 154.474 24.2294 154.516 24.2513ZM151.772 25.9166C151.767 25.9604 151.757 25.9933 151.762 26.0207C151.762 26.0481 151.778 26.0754 151.783 26.1028C151.804 26.0919 151.83 26.0809 151.851 26.0645C151.888 26.0207 151.925 25.9768 151.956 25.933C151.983 25.8947 151.998 25.8508 152.019 25.8125C152.009 25.807 152.004 25.8015 151.993 25.7961C151.914 25.8289 151.841 25.8728 151.772 25.9166ZM155.215 23.8514C155.21 23.8459 155.199 23.8405 155.194 23.8295C155.152 23.8405 155.115 23.8514 155.079 23.8678C155.052 23.8843 155.015 23.9171 155.015 23.9336C155.021 23.9774 155.047 24.0158 155.068 24.0541C155.105 24.0267 155.147 24.0048 155.173 23.9719C155.194 23.9445 155.199 23.8952 155.215 23.8514ZM152.093 26.2014V26.196C152.061 26.196 152.035 26.1905 152.004 26.196C151.983 26.2014 151.967 26.2179 151.951 26.2288C151.967 26.2398 151.977 26.2507 151.993 26.2617C152.03 26.2836 152.067 26.3 152.103 26.3165C152.124 26.3274 152.156 26.3439 152.161 26.3384C152.182 26.311 152.203 26.2781 152.214 26.2398C152.214 26.2288 152.177 26.2069 152.151 26.196C152.135 26.1905 152.114 26.2014 152.093 26.2014ZM153.223 25.2921C153.281 25.2592 153.333 25.2373 153.375 25.2045C153.381 25.199 153.37 25.1387 153.36 25.1387C153.291 25.1168 153.213 25.1935 153.223 25.2921ZM153.633 24.5362C153.575 24.5471 153.512 24.5416 153.502 24.6238C153.502 24.6348 153.544 24.6676 153.565 24.6676C153.649 24.6676 153.649 24.6074 153.633 24.5362ZM151.657 25.7961C151.646 25.7906 151.636 25.7851 151.63 25.7796C151.594 25.8235 151.557 25.8673 151.525 25.9111C151.52 25.9221 151.525 25.9495 151.53 25.9549C151.541 25.9659 151.562 25.9659 151.578 25.9659C151.657 25.933 151.62 25.8508 151.657 25.7961ZM151.919 25.4893C151.93 25.4948 151.935 25.5003 151.94 25.5112C151.977 25.4893 152.019 25.4729 152.056 25.4455C152.072 25.4345 152.072 25.4126 152.082 25.3962C152.067 25.3907 152.04 25.3743 152.03 25.3797C151.993 25.4126 151.956 25.451 151.919 25.4893ZM151.241 26.174C151.21 26.1357 151.189 26.1193 151.168 26.0974C151.152 26.1247 151.131 26.1467 151.126 26.174C151.126 26.1905 151.152 26.2233 151.168 26.2233C151.184 26.2288 151.205 26.2014 151.241 26.174ZM151.609 26.2014C151.615 26.2124 151.625 26.2288 151.636 26.2398C151.693 26.2179 151.757 26.2069 151.741 26.1028C151.699 26.1302 151.651 26.1686 151.609 26.2014Z" fill="#666666"/>
<path fill-rule="evenodd" clip-rule="evenodd" d="M152.445 26.1522C152.445 26.1413 152.44 26.1303 152.44 26.1194C152.44 26.1084 152.45 26.092 152.456 26.092C152.508 26.0646 152.566 26.0427 152.624 26.0208C152.629 26.0317 152.634 26.0427 152.634 26.0536C152.571 26.081 152.508 26.1139 152.445 26.1522C152.44 26.1522 152.445 26.1522 152.445 26.1522Z" fill="#666666"/>
<path fill-rule="evenodd" clip-rule="evenodd" d="M155.073 23.8733C155.11 23.8514 155.152 23.8459 155.189 23.835C155.195 23.8404 155.205 23.8514 155.211 23.8569" fill="white"/>
<path fill-rule="evenodd" clip-rule="evenodd" d="M159.957 20.5208C159.957 20.5044 159.957 20.4824 159.957 20.466C160.02 20.3345 160.151 20.2414 160.162 20.0771C160.162 20.0607 160.172 20.0497 160.183 20.0333C160.346 19.7046 160.487 19.3704 160.566 19.0089C160.598 18.8774 160.614 18.746 160.598 18.6145C160.582 18.4611 160.572 18.3132 160.577 18.1598C160.577 18.0612 160.65 17.9626 160.561 17.864C160.551 17.8531 160.561 17.8202 160.561 17.7983C160.556 17.7599 160.551 17.7271 160.545 17.6887C160.524 17.5408 160.403 17.4148 160.472 17.2505C160.477 17.245 160.456 17.2286 160.451 17.2121C160.414 17.1464 160.445 16.9054 160.477 16.8396C160.514 16.7575 160.54 16.7137 160.645 16.7301C160.698 16.741 160.74 16.7356 160.777 16.7849C160.792 16.8068 160.824 16.8123 160.85 16.8287C160.845 16.7958 160.845 16.7684 160.84 16.7356C160.84 16.7246 160.834 16.7137 160.834 16.7027C160.84 16.6917 160.845 16.6863 160.85 16.6808C160.929 16.7246 161.008 16.7684 161.087 16.8068C161.102 16.8177 161.139 16.8232 161.144 16.8177C161.187 16.763 161.223 16.7903 161.265 16.8123C161.439 16.8999 161.602 17.0149 161.78 17.0752C161.98 17.1409 162.133 17.2779 162.306 17.3874C162.359 17.4203 162.406 17.4696 162.459 17.4806C162.611 17.497 162.653 17.612 162.7 17.7325C162.832 18.0722 162.968 18.4118 163.179 18.7131C163.273 18.8446 163.331 18.9979 163.31 19.1678C163.289 19.3485 163.284 19.5293 163.194 19.6882C163.163 19.7484 163.163 19.7977 163.21 19.8361C163.252 19.8689 163.3 19.8854 163.363 19.8525C163.463 19.8087 163.552 19.7429 163.646 19.6882C163.804 19.6005 163.978 19.5348 164.141 19.4581C164.156 19.4526 164.172 19.4526 164.188 19.4581C164.219 19.4636 164.246 19.4745 164.277 19.48C164.267 19.4471 164.261 19.4143 164.251 19.3704C164.261 19.3595 164.283 19.3376 164.309 19.3211C164.451 19.228 164.593 19.1239 164.74 19.0472C164.971 18.9212 165.213 18.8117 165.444 18.6912C165.47 18.6802 165.486 18.6419 165.512 18.6254C165.555 18.5981 165.597 18.5488 165.639 18.5488C165.702 18.5488 165.781 18.5268 165.807 18.4775C165.828 18.4392 165.859 18.4008 165.896 18.3735C166.001 18.3077 166.117 18.2639 166.212 18.1872C166.311 18.1105 166.396 18.1982 166.49 18.1817C166.537 18.1708 166.595 18.1927 166.648 18.1927C166.716 18.1927 166.79 18.1598 166.842 18.2365C166.853 18.2475 166.879 18.2529 166.895 18.2529C167.005 18.2639 167.121 18.2584 167.226 18.2968C167.468 18.3735 167.71 18.4666 167.941 18.5707C168.051 18.62 168.146 18.7021 168.235 18.7843C168.277 18.8226 168.277 18.8993 168.304 18.9596C168.367 19.1075 168.44 19.2554 168.503 19.4033C168.54 19.4909 168.54 19.5786 168.498 19.6717C168.388 19.9292 168.293 20.1976 168.177 20.4551C168.099 20.6249 167.93 20.707 167.788 20.8111C167.783 20.8166 167.778 20.8111 167.773 20.8111C167.678 20.8166 167.583 20.8276 167.489 20.833C167.394 20.8385 167.31 20.8659 167.237 20.9316C167.053 21.085 166.863 21.2329 166.679 21.3808C166.648 21.4082 166.611 21.4301 166.574 21.4466C166.511 21.4739 166.448 21.5013 166.385 21.5287C166.327 21.5616 166.269 21.5999 166.212 21.6328C166.17 21.6547 166.122 21.6602 166.085 21.6876C165.838 21.8684 165.597 22.0491 165.344 22.2299C165.244 22.3011 165.139 22.3614 165.039 22.4271C165.018 22.4435 165.008 22.4654 164.992 22.4928C164.961 22.5421 164.94 22.6024 164.903 22.6462C164.792 22.7777 164.666 22.9037 164.556 23.0352C164.445 23.1666 164.346 23.309 164.24 23.4405C164.23 23.4515 164.219 23.4679 164.219 23.4789C164.24 23.5884 164.156 23.6432 164.109 23.7089C163.983 23.8787 163.851 24.0431 163.71 24.2019C163.589 24.3389 163.51 24.5087 163.352 24.6073C163.336 24.6183 163.326 24.6457 163.321 24.6676C163.268 24.8757 163.215 25.0839 163.158 25.292C163.147 25.3249 163.126 25.3578 163.105 25.3742C163.037 25.4126 162.984 25.5988 163.021 25.67C163.042 25.7138 163.058 25.7631 163.058 25.807C163.053 25.8782 163.031 25.9549 163.021 26.0261C163.005 26.2123 162.995 26.3986 162.984 26.5794C162.979 26.6889 162.968 26.7985 162.958 26.9245C163.121 26.8423 163.258 26.7601 163.405 26.6944C163.878 26.4643 164.356 26.2397 164.829 26.0097C164.876 25.9877 164.919 25.9603 164.955 25.9275C165.155 25.7412 165.36 25.5824 165.633 25.5331C165.723 25.5166 165.807 25.4838 165.891 25.4564C166.106 25.3906 166.327 25.418 166.527 25.4728C166.811 25.555 167.079 25.681 167.252 25.9494C167.284 25.9987 167.315 26.0535 167.331 26.0809C167.378 26.1302 167.421 26.1576 167.442 26.1959C167.515 26.3328 167.578 26.4753 167.647 26.6122C167.741 26.8039 167.725 27.0231 167.683 27.2148C167.641 27.3901 167.536 27.5709 167.41 27.6859C166.921 28.1351 166.417 28.5678 165.917 29.0006C165.859 29.0499 165.796 29.0992 165.712 29.1649C165.665 29.0663 165.623 28.9896 165.576 28.902C165.518 28.9129 165.376 28.8253 165.36 28.7541C165.371 28.7322 165.381 28.7157 165.381 28.7157C165.329 28.6883 165.276 28.6719 165.239 28.6336C165.171 28.5733 165.113 28.5076 165.055 28.4418C165.024 28.409 164.997 28.3706 164.966 28.3323C164.876 28.2282 164.761 28.2282 164.645 28.2282C164.524 28.2282 164.43 28.1844 164.346 28.0913C164.267 28.0091 164.172 27.9379 164.088 27.8612C164.067 27.8447 164.067 27.8119 164.046 27.79C164.025 27.7681 164.004 27.7297 163.978 27.7297C163.92 27.7188 163.862 27.7242 163.804 27.7242C163.746 27.7242 163.683 27.7297 163.625 27.7352C163.578 27.7407 163.536 27.7626 163.489 27.7626C163.305 27.7681 163.121 27.7626 162.937 27.7626C162.979 27.9762 163.01 28.1789 163.063 28.3761C163.084 28.4528 163.147 28.5185 163.179 28.5952C163.273 28.7869 163.305 28.9896 163.268 29.2087C163.258 29.258 163.279 29.3238 163.31 29.3731C163.363 29.4552 163.384 29.5374 163.368 29.636C163.352 29.7346 163.315 29.8332 163.378 29.9263C163.41 29.9811 163.447 30.0359 163.478 30.0907C163.478 30.1181 163.405 30.1729 163.505 30.1838C163.478 30.2057 163.463 30.2167 163.447 30.2331C163.573 30.3427 163.505 30.4851 163.52 30.6111C163.536 30.748 163.536 30.885 163.547 31.0219C163.678 31.0438 163.646 31.1644 163.668 31.2739C163.736 31.2684 163.804 31.2739 163.873 31.263C164.051 31.2246 164.225 31.1753 164.398 31.1424C164.466 31.1315 164.54 31.1589 164.608 31.1698C164.608 31.1808 164.608 31.1863 164.608 31.1972C164.545 31.2301 164.482 31.263 164.419 31.2958C164.424 31.3013 164.424 31.3123 164.43 31.3177C164.445 31.3177 164.466 31.3177 164.477 31.3123C164.619 31.2137 164.782 31.1479 164.95 31.1096C164.992 31.0986 165.034 31.0767 165.076 31.0603C165.097 31.0548 165.124 31.0438 165.145 31.0438C165.26 31.0658 165.36 31.0493 165.434 30.9398C165.449 30.9178 165.491 30.9124 165.523 30.9124C165.628 30.8959 165.728 30.8905 165.833 30.874C165.833 30.8631 165.833 30.8466 165.833 30.8357C165.765 30.8247 165.696 30.8083 165.623 30.7919C165.823 30.7645 166.022 30.7261 166.222 30.748C166.506 30.7754 166.79 30.8412 167.074 30.885C167.179 30.9014 167.279 30.9178 167.363 30.9945C167.426 31.0493 167.499 31.0877 167.568 31.137C167.594 31.1534 167.62 31.1808 167.641 31.2027C167.652 31.2137 167.657 31.2356 167.673 31.241C167.731 31.2739 167.788 31.3068 167.846 31.3396C167.909 31.378 167.983 31.4109 168.03 31.4656C168.083 31.5314 168.125 31.619 168.156 31.7012C168.209 31.8327 168.256 31.9641 168.304 32.0956C168.346 32.2216 168.325 32.3147 168.241 32.3585C168.267 32.4681 168.241 32.5393 168.156 32.6105C168.13 32.6324 168.099 32.6763 168.099 32.7091C168.104 32.8296 168.041 32.9173 167.951 32.9775C167.731 33.1254 167.489 33.2295 167.231 33.2843C167.21 33.2898 167.189 33.2843 167.168 33.2843C167.063 33.2733 166.958 33.246 166.858 33.2569C166.716 33.2733 166.606 33.1857 166.48 33.1528C166.364 33.1254 166.254 33.0652 166.138 33.0214C166.064 32.994 165.996 32.9666 165.917 32.9502C165.875 32.9392 165.828 32.9392 165.786 32.9556C165.723 32.9775 165.67 33.0214 165.607 33.0378C165.276 33.1254 164.95 33.224 164.603 33.1802C164.351 33.1474 164.146 33.0597 164.009 32.8735C163.983 32.8351 163.846 32.8461 163.825 32.8844C163.804 32.9282 163.788 32.9721 163.762 33.0268C163.773 33.0542 163.799 33.0981 163.809 33.1419C163.825 33.1912 163.825 33.2405 163.841 33.2843C163.873 33.3829 163.936 33.4706 163.951 33.5746C163.957 33.5911 163.972 33.613 163.983 33.613C164.035 33.6239 164.035 33.6623 164.035 33.7061C164.041 33.9143 164.046 34.1224 164.051 34.3251C164.051 34.3634 164.062 34.4073 164.062 34.4456C164.072 34.5607 164.13 34.6757 164.056 34.7743C164.078 34.8126 164.109 34.8455 164.12 34.8784C164.135 34.9551 164.146 35.0372 164.141 35.1194C164.135 35.2454 164.12 35.3714 164.114 35.4974C164.109 35.585 164.125 35.6727 164.12 35.7548C164.109 35.8644 164.088 35.9685 164.067 36.078C164.062 36.0999 164.046 36.1219 164.025 36.1383C163.788 36.3355 163.552 36.5272 163.31 36.7189C163.236 36.7792 163.158 36.834 163.079 36.8888C163.063 36.8888 163.042 36.8888 163.026 36.8888C162.879 36.8559 162.732 36.8285 162.59 36.7902C162.532 36.7737 162.469 36.7463 162.432 36.7025C162.296 36.5546 162.164 36.4012 162.033 36.2424C161.954 36.1492 161.88 36.0506 161.812 35.952C161.723 35.8151 161.644 35.6727 161.56 35.5302C161.544 35.5029 161.528 35.4755 161.523 35.4481C161.507 35.2673 161.491 35.0811 161.481 34.9003C161.449 34.4073 161.423 33.9088 161.397 33.4158C161.381 33.1309 161.36 32.8461 161.428 32.5612C161.455 32.4571 161.46 32.3531 161.465 32.2435C161.476 32.1066 161.47 31.9751 161.481 31.8381C161.486 31.756 161.507 31.6793 161.518 31.5971C161.523 31.5423 161.507 31.4876 161.512 31.4328C161.523 31.3068 161.549 31.1863 161.56 31.0603C161.57 30.9452 161.56 30.8302 161.57 30.7152C161.628 30.0907 161.686 29.4662 161.738 28.8362C161.77 28.4583 161.802 28.0858 161.833 27.7078C161.849 27.5161 161.875 27.3243 161.88 27.1326C161.88 26.9409 161.933 26.7546 161.954 26.5629C162.038 25.9494 162.148 25.3359 162.248 24.7223C162.269 24.5854 162.227 24.5087 162.096 24.4649C161.991 24.432 161.886 24.3991 161.77 24.4265C161.717 24.4375 161.66 24.4594 161.612 24.443C161.434 24.3772 161.244 24.3225 161.081 24.2293C160.929 24.1417 160.798 24.0047 160.661 23.8897C160.64 23.8733 160.619 23.8404 160.614 23.813C160.577 23.6815 160.535 23.5446 160.514 23.4131C160.477 23.194 160.388 23.0078 160.251 22.8434C160.214 22.7996 160.198 22.7393 160.188 22.6846C160.141 22.4764 160.177 22.2573 160.141 22.0437C160.083 21.6985 160.072 21.3425 160.046 20.9919C160.046 20.9535 160.072 20.9152 160.077 20.8769C160.083 20.844 160.083 20.8002 160.067 20.7837C160.014 20.7454 160.004 20.6906 159.999 20.6304C159.978 20.6139 159.967 20.5646 159.957 20.5208Z" fill="#666666"/>
<path fill-rule="evenodd" clip-rule="evenodd" d="M174.175 34.0457C174.175 34.0402 174.175 34.0347 174.175 34.0292C174.18 34.0183 174.196 34.0073 174.196 33.9909C174.233 33.8375 174.264 33.6841 174.306 33.5308C174.327 33.4486 174.359 33.3883 174.443 33.3555C174.601 33.2952 174.758 33.224 174.921 33.1637C175.068 33.109 175.226 33.0761 175.373 33.0158C175.583 32.9282 175.788 32.8241 175.999 32.72C176.309 32.5721 176.624 32.4242 176.934 32.2763C176.971 32.2599 177.018 32.2654 177.05 32.2489C177.145 32.1996 177.223 32.1229 177.323 32.0955C177.471 32.0572 177.492 31.9093 177.57 31.8162C177.618 31.7614 177.602 31.6628 177.639 31.5971C177.786 31.3177 177.823 31.0164 177.828 30.6987C177.828 30.4905 177.844 30.2878 177.807 30.0687C177.691 30.1454 177.539 30.0961 177.434 30.2002C177.423 30.2111 177.402 30.2166 177.381 30.2166C177.187 30.2276 176.987 30.244 176.792 30.255C176.761 30.255 176.729 30.2495 176.698 30.2385C176.34 30.118 175.993 29.9811 175.668 29.7893C175.599 29.751 175.536 29.7017 175.478 29.6469C175.336 29.5045 175.195 29.3621 175.058 29.2142C174.947 29.0991 174.832 28.9896 174.748 28.8581C174.648 28.6992 174.574 28.5185 174.495 28.3432C174.48 28.3048 174.459 28.2555 174.469 28.2227C174.495 28.146 174.537 28.0748 174.574 28.0036C174.516 27.9488 174.464 27.894 174.411 27.8447C174.332 27.7735 174.338 27.6913 174.438 27.653C174.69 27.5598 174.947 27.4722 175.205 27.39C175.605 27.2586 176.004 27.1326 176.403 27.0011C176.519 26.9627 176.624 26.8806 176.766 26.9354C176.75 26.9025 176.745 26.8861 176.735 26.8641C176.934 26.7765 177.129 26.6889 177.323 26.6067C177.334 26.6012 177.36 26.6012 177.365 26.6012C177.402 26.6834 177.423 26.6012 177.444 26.5903C177.465 26.5793 177.476 26.5519 177.497 26.541C177.612 26.4807 177.67 26.393 177.66 26.2506C177.654 26.1356 177.66 26.0151 177.681 25.8946C177.707 25.7302 177.654 25.544 177.791 25.4015C177.802 25.3906 177.802 25.3522 177.791 25.3413C177.733 25.2865 177.77 25.2482 177.802 25.2098C177.838 25.155 177.844 25.1057 177.775 25.0619C177.76 25.051 177.739 25.029 177.739 25.0126C177.739 24.9195 177.744 24.8264 177.754 24.7332C177.812 24.1909 177.833 23.6431 177.823 23.1008C177.823 23.057 177.817 23.0132 177.807 22.9694C177.739 22.6571 177.67 22.3504 177.602 22.0381C177.591 21.9833 177.581 21.9231 177.549 21.8847C177.423 21.7314 177.287 21.578 177.155 21.4301C177.139 21.4082 177.118 21.3753 177.124 21.3589C177.208 21.0685 177.292 20.7782 177.602 20.6522C177.607 20.6522 177.607 20.6467 177.607 20.6467C177.807 20.6467 178.001 20.6467 178.201 20.6467C178.206 20.6522 178.212 20.6577 178.217 20.6577C178.527 20.6906 178.832 20.7508 179.132 20.833C179.221 20.8604 179.326 20.8494 179.389 20.9425C179.421 20.9918 179.447 21.0302 179.51 20.9973C179.52 20.9918 179.552 21.0028 179.568 21.0137C179.71 21.1233 179.846 21.2383 179.983 21.3534C180.004 21.3698 180.015 21.4082 180.03 21.441C180.051 21.4465 180.088 21.441 180.104 21.4575C180.23 21.5944 180.356 21.7368 180.482 21.8793C180.503 21.9066 180.503 21.9559 180.53 21.9833C180.651 22.1039 180.782 22.2189 180.85 22.3832C180.892 22.4928 180.987 22.5804 180.945 22.7174C180.94 22.7283 180.971 22.7557 180.976 22.7722C180.998 22.8324 181.045 22.9091 181.029 22.9474C180.992 23.0296 181.045 23.0734 181.061 23.1337C181.066 23.1611 181.082 23.1885 181.087 23.2213C181.108 23.3528 181.129 23.4843 181.155 23.6158C181.171 23.7089 181.166 23.791 181.124 23.8787C181.066 24.0047 181.024 24.1471 180.961 24.2731C180.903 24.3881 180.95 24.4922 180.95 24.6073C180.95 24.6292 180.982 24.6511 180.998 24.6675C181.013 24.6839 181.034 24.6894 181.045 24.7113C181.108 24.8045 181.166 24.9031 181.229 24.9962C181.239 25.0126 181.26 25.0345 181.281 25.04C181.439 25.0784 181.602 25.1167 181.765 25.1441C181.833 25.155 181.854 25.1934 181.875 25.2427C181.896 25.292 181.917 25.3468 181.954 25.3796C182.059 25.4728 182.138 25.5823 182.138 25.7357C182.138 25.774 182.154 25.8233 182.175 25.8453C182.264 25.9329 182.259 26.0534 182.291 26.1575C182.327 26.2616 182.291 26.3383 182.233 26.4314C182.091 26.645 181.907 26.7875 181.66 26.8477C181.576 26.8696 181.471 26.8806 181.408 26.9354C181.329 27.0066 181.245 26.9956 181.166 27.023C181.097 27.0449 181.019 27.0559 180.95 27.0723C180.934 27.0778 180.919 27.0997 180.913 27.1216C180.892 27.2038 180.877 27.2914 180.856 27.3736C180.845 27.4119 180.845 27.4558 180.829 27.4886C180.766 27.5927 180.745 27.7297 180.63 27.8009C180.598 27.8228 180.588 27.8776 180.566 27.9214C180.551 27.9542 180.545 27.9871 180.524 28.0145C180.451 28.1022 180.393 28.1953 180.44 28.3213C180.446 28.3377 180.435 28.3651 180.425 28.3815C180.372 28.4966 180.298 28.6061 180.267 28.7321C180.22 28.9019 180.178 29.0717 180.199 29.2525C180.204 29.2909 180.193 29.3347 180.188 29.373C180.178 29.499 180.172 29.625 180.167 29.762C180.283 29.7839 180.398 29.7948 180.509 29.8222C180.577 29.8386 180.63 29.8222 180.682 29.7839C180.955 29.5867 181.224 29.384 181.507 29.1977C181.634 29.1156 181.739 28.9622 181.923 28.9841C181.933 28.9841 181.944 28.9731 181.954 28.9677C182.054 28.9074 182.154 28.8471 182.254 28.7869C182.291 28.765 182.338 28.7485 182.375 28.7321C182.39 28.7705 182.401 28.8033 182.417 28.8417C182.438 28.891 182.464 28.9403 182.49 28.995C182.48 28.995 182.496 28.995 182.506 28.995C182.506 29.0224 182.506 29.0444 182.506 29.0717C182.411 29.0937 182.422 29.1758 182.443 29.2361C182.532 29.4607 182.501 29.6962 182.454 29.9153C182.38 30.2221 182.259 30.5124 182.059 30.7699C181.865 31.0219 181.655 31.2574 181.439 31.4875C181.218 31.723 181.013 31.986 180.745 32.1722C180.651 32.238 180.577 32.3256 180.488 32.3968C180.23 32.594 179.973 32.7967 179.704 32.983C179.499 33.1254 179.326 33.3226 179.079 33.4102C179.068 33.4157 179.058 33.4157 179.058 33.4267C179.026 33.5417 178.927 33.5362 178.879 33.5472C178.821 33.6348 178.79 33.717 178.732 33.7553C178.59 33.843 178.532 33.9909 178.48 34.1224C178.427 34.2538 178.432 34.4127 178.422 34.5606C178.406 34.8181 178.364 35.0646 178.149 35.2344C178.001 35.3494 177.849 35.4535 177.702 35.574C177.591 35.6617 177.471 35.6945 177.339 35.7055C177.208 35.7164 177.082 35.7438 176.95 35.7603C176.908 35.7603 176.866 35.7603 176.824 35.7603C176.724 35.7493 176.624 35.7274 176.524 35.7219C176.283 35.7055 176.046 35.6671 175.825 35.5411C175.583 35.4042 175.326 35.2892 175.079 35.1577C175.037 35.1358 174.99 35.1139 174.958 35.081C174.79 34.9276 174.622 34.7688 174.459 34.6154C174.411 34.5716 174.343 34.5277 174.369 34.4401C174.375 34.4291 174.354 34.4182 174.348 34.4017C174.317 34.3415 174.28 34.2867 174.254 34.2264C174.206 34.1552 174.191 34.1005 174.175 34.0457Z" fill="#666666"/>
<path fill-rule="evenodd" clip-rule="evenodd" d="M195.021 22.8213C194.958 22.6624 194.869 22.5145 194.79 22.3612C194.732 22.2516 194.648 22.1749 194.543 22.1092C194.328 21.9722 194.117 21.8188 193.902 21.6819C193.849 21.649 193.776 21.6271 193.713 21.6216C193.634 21.6162 193.55 21.6381 193.471 21.6326C193.434 21.6326 193.397 21.5997 193.355 21.5833C193.282 21.5504 193.203 21.4847 193.145 21.5011C192.971 21.545 192.803 21.6162 192.635 21.6819C192.609 21.6929 192.577 21.6929 192.551 21.7038C192.446 21.7695 192.351 21.8572 192.215 21.8079C192.204 21.8024 192.194 21.8134 192.183 21.8188C192.015 21.8736 191.847 21.9284 191.673 21.9777C191.473 22.0325 191.268 22.0708 191.069 22.1256C190.985 22.153 190.906 22.2023 190.822 22.2461C190.806 22.2516 190.769 22.268 190.769 22.2626C190.722 22.1968 190.669 22.2352 190.622 22.2516C190.538 22.2735 190.448 22.2845 190.37 22.3502C190.317 22.394 190.217 22.3721 190.138 22.3885C189.939 22.4269 189.739 22.4652 189.544 22.5091C189.134 22.6022 188.724 22.7008 188.304 22.7994V22.6953C188.251 22.7391 188.209 22.772 188.167 22.7994C188.094 22.8596 188.015 22.9199 187.941 22.9747C187.889 23.013 187.831 23.0459 187.778 23.0788C187.757 23.0897 187.736 23.1062 187.715 23.1116C187.526 23.1609 187.337 23.2102 187.147 23.2595C186.99 23.3034 186.832 23.3417 186.674 23.3855C186.611 23.402 186.553 23.4348 186.49 23.4513C186.385 23.4787 186.28 23.4896 186.175 23.517C186.002 23.5663 185.828 23.6156 185.655 23.6704C185.313 23.7799 184.966 23.8457 184.609 23.8895C184.335 23.9224 184.067 23.9771 183.794 24.0319C183.589 24.0757 183.594 24.0867 183.573 24.2949C183.573 24.3168 183.573 24.3387 183.568 24.3606C183.531 24.5852 183.599 24.7714 183.752 24.9358C183.778 24.9632 183.794 25.0125 183.799 25.0508C183.815 25.1658 183.846 25.259 183.952 25.3137C183.988 25.3302 184.036 25.3685 184.036 25.4014C184.041 25.4945 184.109 25.5329 184.157 25.5931C184.267 25.7355 184.419 25.8232 184.567 25.9163C184.761 26.0423 184.987 26.0752 185.203 26.13C185.308 26.1519 185.418 26.1902 185.518 26.1738C185.723 26.1409 185.923 26.0697 186.122 26.0149C186.133 26.0149 186.138 26.0094 186.143 26.004C186.254 25.9163 186.359 25.8287 186.464 25.741C186.701 25.5438 186.948 25.3685 187.237 25.2535C187.405 25.1878 187.536 25.2644 187.531 25.4452C187.526 25.5712 187.505 25.6972 187.479 25.8232C187.389 26.2505 187.153 26.6065 186.937 26.9736C186.806 27.1981 186.674 27.4227 186.548 27.6473C186.517 27.7076 186.496 27.7733 186.459 27.8336C186.38 27.9541 186.291 28.0691 186.212 28.1842C186.191 28.2116 186.191 28.2554 186.17 28.2882C186.138 28.3376 186.091 28.3814 186.059 28.4307C185.944 28.6169 185.833 28.8032 185.712 28.9894C185.402 29.4605 185.092 29.9371 184.766 30.4027C184.546 30.7204 184.346 31.0601 184.062 31.334C183.941 31.449 183.825 31.5695 183.699 31.6845C183.589 31.7886 183.473 31.8872 183.352 31.9804C183.163 32.1228 182.974 32.2542 182.785 32.3857C182.469 32.6048 182.17 32.8623 181.807 33.0047C181.565 33.0978 181.45 33.3279 181.287 33.5251C181.36 33.5909 181.439 33.6511 181.507 33.7168C181.839 33.7223 182.17 33.7442 182.506 33.7442C182.538 33.7442 182.569 33.7497 182.595 33.7552C182.737 33.7497 182.879 33.7442 183.016 33.7442C183.058 33.7442 183.1 33.7497 183.137 33.7607C183.221 33.7168 183.31 33.684 183.4 33.6456C183.389 33.6347 183.384 33.6292 183.373 33.6182C183.384 33.5963 183.384 33.5635 183.4 33.558C183.489 33.5361 183.542 33.4813 183.568 33.3882C183.573 33.3663 183.605 33.3444 183.626 33.3334C183.694 33.3005 183.762 33.2786 183.852 33.2457C183.831 33.295 183.82 33.317 183.81 33.3389C183.815 33.3444 183.82 33.3498 183.825 33.3498C183.915 33.2896 184.004 33.2293 184.109 33.1581C184.051 33.1252 184.009 33.0978 183.962 33.0759C183.988 33.0376 184.009 33.0047 184.041 32.9499C184.057 32.9883 184.072 33.0102 184.083 33.0376C184.094 33.054 184.099 33.0814 184.115 33.0869C184.125 33.0924 184.146 33.0705 184.162 33.065C184.183 33.0595 184.204 33.054 184.23 33.0485C184.251 33.0431 184.283 33.054 184.299 33.0431C184.377 32.9938 184.456 32.939 184.53 32.8897C184.525 32.8842 184.514 32.8787 184.509 32.8733C184.525 32.8404 184.54 32.8075 184.561 32.7801C184.598 32.7308 184.64 32.7199 184.703 32.7308C184.756 32.7418 184.808 32.7308 184.819 32.6541C184.819 32.6322 184.856 32.6158 184.877 32.5994C184.992 32.5227 185.113 32.4405 185.229 32.3638C185.245 32.3529 185.26 32.3309 185.271 32.309C185.297 32.2597 185.313 32.2104 185.334 32.1611C185.287 32.1885 185.229 32.2269 185.171 32.2597C185.176 32.2104 185.197 32.1666 185.229 32.1337C185.287 32.068 185.287 32.0132 185.213 31.9804C185.176 31.9639 185.145 31.9475 185.087 31.9201C185.134 31.9037 185.171 31.8927 185.203 31.8818C185.224 31.8708 185.266 31.8544 185.26 31.8434C185.245 31.7119 185.371 31.701 185.423 31.6243C185.45 31.5859 185.502 31.5695 185.544 31.5366C185.55 31.5476 185.555 31.5531 185.56 31.5586C185.518 31.6024 185.471 31.6462 185.423 31.69C185.376 31.7284 185.35 31.8653 185.392 31.8708C185.523 31.8927 185.528 31.9858 185.523 32.1063C185.565 32.0735 185.597 32.0516 185.623 32.0242C185.733 31.9201 185.844 31.8215 185.949 31.7174C186.191 31.4709 186.438 31.2299 186.664 30.9669C186.722 30.9012 186.779 30.8464 186.837 30.7916C186.979 30.6547 187.111 30.5013 187.242 30.3534C187.31 30.2767 187.373 30.1891 187.442 30.1014C187.426 30.096 187.405 30.085 187.389 30.0795C187.426 30.0357 187.463 29.9919 187.494 29.9426C187.521 29.8933 187.536 29.833 187.563 29.7837C187.578 29.7563 187.61 29.7344 187.615 29.707C187.631 29.6413 187.657 29.6194 187.726 29.6139C187.799 29.6084 187.894 29.6139 187.936 29.5263C188.109 29.214 188.33 28.9346 188.43 28.5841C188.435 28.5621 188.446 28.5293 188.462 28.5183C188.677 28.354 188.898 28.1896 189.113 28.0253C189.292 28.0144 189.481 27.9596 189.649 27.9979C189.933 28.0637 190.196 28.2006 190.333 28.5019C190.375 28.6005 190.422 28.6936 190.469 28.7922C190.49 28.836 190.512 28.8744 190.533 28.9127C190.601 29.0442 190.674 29.1757 190.743 29.3017C190.748 29.3071 190.759 29.3126 190.764 29.3181C190.795 29.351 190.832 29.3784 190.853 29.4167C190.895 29.5098 190.937 29.6029 190.969 29.7015C191 29.8001 191.016 29.9042 191.037 30.0083C191.037 30.0138 191.037 30.0247 191.032 30.0247C190.943 30.074 190.969 30.1726 190.948 30.2493C190.785 30.8464 190.622 31.449 190.454 32.0461C190.443 32.0735 190.427 32.1009 190.412 32.1283C190.312 32.2981 190.217 32.4734 190.112 32.6377C189.807 33.1088 189.492 33.5799 189.182 34.051C189.155 34.0893 189.119 34.1277 189.082 34.1551C188.588 34.5221 188.094 34.8891 187.594 35.2561C187.552 35.2835 187.494 35.2945 187.447 35.3C187.331 35.3164 187.205 35.2726 187.1 35.3547C187.084 35.3657 187.058 35.3602 187.037 35.3602C186.911 35.3383 186.79 35.3164 186.664 35.2945C186.611 35.2835 186.559 35.2835 186.511 35.2616C186.448 35.2397 186.396 35.2014 186.338 35.1685C186.291 35.1411 186.249 35.1028 186.196 35.0863C186.065 35.0425 185.933 35.0096 185.807 34.9658C185.723 34.9329 185.644 34.8836 185.56 34.8508C185.408 34.7905 185.25 34.7357 185.103 34.67C184.687 34.4783 184.277 34.2756 183.862 34.0784C183.794 34.0455 183.715 34.0236 183.641 34.0017C183.631 34.0127 183.62 34.0236 183.61 34.0346C183.641 34.051 183.673 34.062 183.699 34.0784C183.799 34.166 183.899 34.2537 183.999 34.3413C184.03 34.3687 184.067 34.4016 184.104 34.4235C184.183 34.4618 184.23 34.5604 184.204 34.6426C184.125 34.6043 184.041 34.5769 183.967 34.5331C183.889 34.4892 183.82 34.429 183.731 34.3632C183.794 34.5057 183.846 34.6262 183.962 34.7083C184.036 34.7576 184.109 34.807 184.183 34.8563C184.178 34.8672 184.172 34.8782 184.167 34.8891C184.115 34.8617 184.057 34.8398 183.983 34.8015C183.999 34.8343 184.004 34.8453 184.009 34.8563C184.299 35.3493 184.588 35.8478 184.877 36.3408C184.945 36.4558 185.024 36.5708 185.118 36.664C185.234 36.7845 185.371 36.8831 185.492 36.9981C185.733 37.2227 185.986 37.4309 186.301 37.5404C186.485 37.6062 186.653 37.6993 186.832 37.7815H186.921C186.984 37.776 187.042 37.765 187.105 37.7595C187.226 37.7486 187.342 37.7431 187.463 37.7267C187.521 37.7212 187.573 37.7048 187.631 37.6883C187.663 37.6774 187.694 37.639 187.726 37.6445C187.852 37.6609 187.988 37.5404 188.104 37.6828C188.109 37.6883 188.115 37.6883 188.12 37.6883C188.251 37.6774 188.388 37.6993 188.509 37.6116C188.719 37.4583 188.929 37.3158 189.134 37.157C189.192 37.1131 189.297 37.1022 189.292 36.9817C189.292 36.9762 189.308 36.9652 189.313 36.9652C189.423 36.9762 189.492 36.8886 189.571 36.8338C189.807 36.664 190.059 36.5106 190.28 36.3243C190.827 35.8532 191.363 35.3657 191.899 34.8891C191.946 34.8453 191.983 34.8015 191.978 34.7248C191.978 34.6974 191.999 34.659 192.015 34.6371C192.067 34.5714 192.146 34.5221 192.183 34.4509C192.246 34.3359 192.314 34.2208 192.388 34.1113C192.561 33.8428 192.677 33.5416 192.861 33.2786C192.956 33.1417 193.035 32.9883 193.113 32.8404C193.192 32.698 193.266 32.5501 193.339 32.4076C193.476 32.1556 193.629 31.9091 193.744 31.6462C193.839 31.4326 193.965 31.2299 193.96 30.9724C193.96 30.9012 193.933 30.8081 194.007 30.7478C194.012 30.7423 194.007 30.7259 194.007 30.7095C193.996 30.578 193.981 30.452 193.97 30.3205C193.96 30.2384 193.954 30.1507 193.928 30.074C193.881 29.9152 193.828 29.7618 193.776 29.6084C193.728 29.466 193.676 29.3236 193.644 29.1757C193.634 29.1154 193.607 29.099 193.571 29.0716C193.523 29.0332 193.487 28.973 193.445 28.9237C193.418 28.8908 193.397 28.858 193.371 28.8306C193.339 28.7867 193.303 28.7484 193.271 28.7046C193.255 28.6827 193.25 28.6553 193.234 28.6388C193.103 28.5402 192.977 28.4471 192.872 28.3211C192.756 28.1896 192.63 28.0637 192.509 27.9431C192.477 27.9103 192.425 27.8938 192.377 27.8829C192.32 27.8719 192.251 27.7952 192.251 27.735C192.251 27.6583 192.199 27.6035 192.12 27.6035C192.052 27.6035 192.02 27.5597 191.999 27.5049C191.989 27.4775 191.968 27.4556 191.952 27.4227C191.973 27.4118 191.999 27.4008 192.025 27.3899C192.02 27.3734 192.015 27.357 192.01 27.3515C191.747 26.979 191.531 26.5737 191.2 26.2559C191.148 26.2066 191.084 26.1738 191.027 26.13C191.011 26.119 191 26.1026 190.99 26.0861C190.969 26.0533 190.948 26.0149 190.932 25.9821C190.906 25.9328 190.843 25.8561 190.853 25.8341C190.943 25.6972 190.911 25.5548 190.89 25.4069C190.874 25.2864 190.864 25.1658 190.853 25.0727C190.89 25.0015 190.916 24.9522 190.953 24.8865C191.048 24.8591 191.069 24.755 191.084 24.6454C191.095 24.5961 191.084 24.5304 191.105 24.4921C191.153 24.4044 191.179 24.3113 191.179 24.2072C191.179 24.1524 191.2 24.0538 191.232 24.0429C191.363 24.0045 191.5 23.9936 191.636 23.9717C191.642 23.9717 191.652 23.9826 191.657 23.9826C191.689 23.9826 191.72 23.9771 191.752 23.9771C191.805 23.9717 191.857 23.9662 191.904 23.9662C191.941 23.9662 191.973 23.9826 192.01 23.9826C192.178 23.9771 192.346 23.9552 192.509 23.9607C192.651 23.9607 192.793 23.9826 192.935 24.0045C193.003 24.0155 193.071 24.0484 193.14 24.0703C193.276 24.1196 193.408 24.0703 193.544 24.0593C193.629 24.0538 193.713 24.0429 193.786 24.01C193.918 23.9552 194.044 23.884 194.17 23.8128C194.354 23.7032 194.538 23.5882 194.717 23.4787C194.759 23.4513 194.795 23.4184 194.822 23.38C194.874 23.2979 194.906 23.2102 194.958 23.1281C195.048 23.0076 195.058 22.9089 195.021 22.8213ZM183.342 33.2567C183.331 33.2512 183.326 33.2457 183.316 33.2403V33.0759C183.394 32.9773 183.394 32.9773 183.489 33.054L183.342 33.2567ZM183.794 32.4788C183.831 32.4131 183.867 32.3419 183.957 32.3529C183.915 32.4131 183.883 32.4898 183.794 32.4788ZM184.756 32.4624C184.808 32.561 184.772 32.6432 184.656 32.6487C184.556 32.6541 184.503 32.7363 184.435 32.7911C184.367 32.8404 184.325 32.9226 184.225 32.9116C184.209 32.9116 184.188 32.9554 184.162 32.9828C184.141 32.9664 184.115 32.9445 184.088 32.928C184.088 32.9171 184.088 32.9061 184.094 32.9006C184.167 32.8842 184.235 32.8733 184.309 32.8623C184.309 32.8513 184.309 32.8459 184.309 32.8349C184.267 32.8294 184.225 32.8185 184.178 32.813C184.178 32.8075 184.178 32.802 184.178 32.7911C184.22 32.7856 184.256 32.7746 184.293 32.7692C184.272 32.7308 184.256 32.698 184.241 32.6706C184.288 32.6487 184.335 32.6267 184.388 32.6103C184.398 32.6048 184.414 32.6213 184.435 32.6267C184.43 32.6048 184.43 32.5884 184.425 32.5665C184.509 32.561 184.514 32.4569 184.572 32.435C184.651 32.4076 184.74 32.4022 184.829 32.3912C184.835 32.4022 184.835 32.4131 184.84 32.4186C184.808 32.435 184.782 32.4515 184.756 32.4624ZM185.45 30.6985C185.455 30.7314 185.471 30.7807 185.455 30.7971C185.429 30.83 185.387 30.8629 185.345 30.8683C185.313 30.8683 185.25 30.8519 185.287 30.7752C185.329 30.693 185.429 30.6164 185.523 30.6273C185.481 30.6492 185.46 30.6602 185.439 30.6711C185.444 30.6821 185.444 30.693 185.45 30.6985ZM185.828 31.3723C185.881 31.2956 185.917 31.2354 185.96 31.1696C185.97 31.1806 185.986 31.197 185.996 31.208C185.944 31.2573 185.891 31.312 185.828 31.3723Z" fill="#666666"/>
<path fill-rule="evenodd" clip-rule="evenodd" d="M188.945 18.6035C189.087 18.6144 189.224 18.6309 189.366 18.6309C189.55 18.6309 189.702 18.7076 189.855 18.8062C189.965 18.8774 190.102 18.9102 190.217 18.9705C190.275 19.0034 190.317 19.0581 190.37 19.102C190.412 19.1348 190.464 19.1622 190.496 19.2006C190.727 19.469 190.943 19.7484 191.058 20.0989C191.132 20.3235 191.127 20.5481 191.153 20.7782C191.174 20.9754 191.1 21.1343 191.006 21.2876C190.985 21.3205 190.953 21.3479 190.922 21.3643C190.601 21.5451 190.28 21.7368 189.949 21.9012C189.77 21.9888 189.576 22.0272 189.387 22.0929C189.066 22.2025 188.74 22.3175 188.42 22.427C188.388 22.438 188.357 22.4599 188.33 22.449C188.309 22.438 188.288 22.4161 188.262 22.4161C188.209 22.4106 188.162 22.4106 188.109 22.4161C187.994 22.4325 187.878 22.3284 187.778 22.4325C187.784 22.3613 187.794 22.3065 187.799 22.2353C187.705 22.2791 187.626 22.2956 187.584 22.3942C187.573 22.427 187.531 22.449 187.5 22.4709C187.494 22.4654 187.489 22.4599 187.479 22.4544C187.489 22.4325 187.5 22.4161 187.51 22.3942C187.505 22.3887 187.5 22.3777 187.494 22.3723C187.458 22.3942 187.41 22.4051 187.384 22.438C187.311 22.5366 187.205 22.4928 187.116 22.5092C187.084 22.5147 187.037 22.4435 186.99 22.3997C186.943 22.427 186.879 22.4654 186.801 22.5202C186.811 22.4654 186.816 22.4435 186.822 22.4161C186.795 22.4216 186.769 22.4325 186.727 22.4435C186.937 22.2791 187.132 22.1258 187.326 21.9724C187.316 21.9669 187.311 21.9614 187.3 21.9505C187.311 21.9176 187.316 21.8738 187.337 21.8464C187.494 21.6273 187.663 21.4246 187.81 21.2C187.904 21.0576 187.957 20.8823 188.031 20.7289C188.052 20.6851 188.078 20.6412 188.109 20.6029C188.141 20.5536 188.178 20.5098 188.209 20.466C188.104 20.3454 188.01 20.2359 187.915 20.1318C187.815 20.0222 187.715 19.9127 187.61 19.8031C187.505 19.6991 187.4 19.5895 187.284 19.4909C187.174 19.3978 187.116 19.2553 186.985 19.1951C186.985 19.1896 186.99 19.1786 186.99 19.1732C187.027 19.1732 187.063 19.1677 187.074 19.1677C187.121 19.1074 187.148 19.0362 187.195 19.0034C187.326 18.9102 187.458 18.8062 187.6 18.7404C187.747 18.6802 187.91 18.6582 188.062 18.6254C188.12 18.6144 188.178 18.598 188.236 18.587C188.477 18.6035 188.714 18.6035 188.945 18.6035Z" fill="#666666"/>
<path fill-rule="evenodd" clip-rule="evenodd" d="M189.098 22.6079C188.992 22.6353 188.892 22.6572 188.787 22.6846C188.782 22.6737 188.777 22.6572 188.777 22.6572C188.85 22.597 188.924 22.5367 188.998 22.4819C188.998 22.4819 189.034 22.5093 189.034 22.5203C189.029 22.5696 189.029 22.5751 189.098 22.6079Z" fill="#666666"/>
</g>
<path d="M127.479 47.2237V41.5955C127.505 41.1087 127.749 40.8521 128.213 40.8258C128.676 40.8521 128.92 41.1087 128.946 41.5955V43.6777H132.032V41.5955C132.058 41.1087 132.314 40.8521 132.801 40.8258C133.265 40.8521 133.508 41.1087 133.535 41.5955V47.2237C133.508 47.6875 133.265 47.9177 132.801 47.9177C132.314 47.9177 132.055 47.6875 132.032 47.2237V45.0658H128.943V47.2237C128.916 47.6875 128.673 47.9177 128.209 47.9177C127.749 47.9177 127.505 47.6875 127.479 47.2237Z" fill="#666666"/>
<path d="M139.199 43.523V47.0295C139.225 47.6216 139.005 47.9176 138.545 47.9176C138.186 47.9439 137.952 47.763 137.85 47.3782C137.492 47.763 137.041 47.9571 136.502 47.9571C135.038 47.8814 134.252 46.9933 134.15 45.296C134.278 43.625 135.061 42.7138 136.502 42.5592C137.12 42.5592 137.568 42.7796 137.85 43.2138C137.926 42.8289 138.16 42.6217 138.545 42.5954C139.005 42.5987 139.222 42.9079 139.199 43.523ZM135.574 45.296C135.627 46.1973 135.999 46.6709 136.693 46.7236C137.387 46.6709 137.758 46.1973 137.811 45.296C137.758 44.398 137.387 43.921 136.693 43.8684C135.999 43.921 135.627 44.398 135.574 45.296Z" fill="#666666"/>
<path d="M139.969 47.1842V41.0922C139.995 40.6054 140.238 40.3488 140.702 40.3225C141.14 40.3488 141.37 40.6054 141.396 41.0922V44.4079L142.975 42.9047C143.232 42.7007 143.439 42.5955 143.594 42.5955C143.952 42.6218 144.159 42.8389 144.212 43.2501C144.212 43.431 144.123 43.6218 143.942 43.829L142.669 44.9474L144.327 46.875C144.482 47.0296 144.544 47.1973 144.521 47.375C144.495 47.7335 144.278 47.9276 143.867 47.9539C143.636 47.9539 143.403 47.8388 143.173 47.6085L141.439 45.4507H141.4V47.1842C141.373 47.6743 141.143 47.9177 140.706 47.9177C140.238 47.9177 139.995 47.6743 139.969 47.1842Z" fill="#666666"/>
<path d="M144.903 47.1842V41.0922C144.929 40.6054 145.173 40.3488 145.636 40.3225C146.074 40.3488 146.304 40.6054 146.33 41.0922V44.4079L147.909 42.9047C148.166 42.7007 148.373 42.5955 148.528 42.5955C148.886 42.6218 149.094 42.8389 149.146 43.2501C149.146 43.431 149.057 43.6218 148.876 43.829L147.603 44.9474L149.261 46.875C149.416 47.0296 149.478 47.1973 149.455 47.375C149.429 47.7335 149.212 47.9276 148.801 47.9539C148.57 47.9539 148.337 47.8388 148.107 47.6085L146.373 45.4507H146.334V47.1842C146.307 47.6743 146.077 47.9177 145.64 47.9177C145.173 47.9177 144.929 47.6743 144.903 47.1842Z" fill="#666666"/>
<path d="M154.695 43.523V47.0295C154.722 47.6216 154.501 47.9176 154.041 47.9176C153.682 47.9439 153.449 47.763 153.347 47.3782C152.988 47.763 152.537 47.9571 151.998 47.9571C150.534 47.8814 149.748 46.9933 149.646 45.296C149.774 43.625 150.557 42.7138 151.998 42.5592C152.616 42.5592 153.064 42.7796 153.347 43.2138C153.422 42.8289 153.656 42.6217 154.041 42.5954C154.501 42.5987 154.718 42.9079 154.695 43.523ZM151.07 45.296C151.123 46.1973 151.495 46.6709 152.189 46.7236C152.883 46.6709 153.254 46.1973 153.307 45.296C153.254 44.398 152.883 43.921 152.189 43.8684C151.495 43.921 151.123 44.398 151.07 45.296Z" fill="#666666"/>
<path d="M159.899 40.7863C161.132 40.8619 161.774 41.1843 161.826 41.75C161.8 42.2138 161.583 42.4573 161.172 42.4836C161.07 42.4836 160.889 42.4441 160.632 42.3684C160.323 42.2665 160.067 42.2138 159.863 42.2138C159.349 42.2402 159.08 42.4441 159.053 42.8323C159.053 43.1151 159.425 43.3586 160.172 43.5658C161.636 44.0033 162.369 44.7368 162.369 45.7631C162.267 47.1512 161.419 47.8848 159.826 47.9604C158.257 47.9341 157.461 47.5887 157.435 46.921C157.461 46.4835 157.678 46.2532 158.09 46.2269C158.218 46.2269 158.448 46.2795 158.784 46.3815C159.195 46.5361 159.517 46.6118 159.747 46.6118C160.389 46.5854 160.724 46.3026 160.751 45.7631C160.751 45.4539 160.34 45.171 159.517 44.9144C158.155 44.5296 157.475 43.9013 157.475 43.0263C157.57 41.6349 158.379 40.8882 159.899 40.7863Z" fill="#666666"/>
<path d="M162.905 49.1906V43.4079C162.932 42.8947 163.175 42.625 163.639 42.5987C164.024 42.5987 164.257 42.8059 164.333 43.2171C164.589 42.8059 165.04 42.5888 165.682 42.5625C167.096 42.6645 167.866 43.6019 167.994 45.3749C167.866 46.9933 167.083 47.8551 165.642 47.9571C165.103 47.9571 164.665 47.8157 164.333 47.5328V49.1906C164.307 49.7038 164.076 49.9735 163.639 49.9998C163.175 49.9735 162.928 49.7038 162.905 49.1906ZM164.33 45.2565C164.382 46.1808 164.754 46.6709 165.448 46.7203C166.116 46.6677 166.487 46.194 166.566 45.2927C166.491 44.3947 166.116 43.9177 165.448 43.8651C164.754 43.921 164.382 44.3848 164.33 45.2565Z" fill="#666666"/>
<path d="M172.734 45.7598H169.688C169.816 46.4275 170.267 46.7762 171.036 46.7992C171.319 46.7992 171.678 46.6841 172.115 46.4538C172.372 46.2992 172.553 46.2236 172.655 46.2236C172.987 46.2762 173.181 46.4802 173.234 46.842C173.053 47.5097 172.283 47.8814 170.921 47.9604C169.25 47.8847 168.366 46.9966 168.26 45.2993C168.415 43.6019 169.264 42.6908 170.803 42.5625C172.293 42.6908 173.142 43.5526 173.346 45.1447C173.349 45.5526 173.145 45.7598 172.734 45.7598ZM169.648 44.8355H171.921C171.819 44.1151 171.444 43.7434 170.803 43.7171C170.165 43.7434 169.777 44.1151 169.648 44.8355Z" fill="#666666"/>
<path d="M177.898 43.4475C177.846 43.885 177.668 44.1152 177.359 44.1415C177.257 44.1415 177.102 44.1021 176.895 44.0264C176.612 43.9244 176.395 43.8718 176.24 43.8718C175.494 43.9244 175.096 44.3981 175.046 45.2994C175.122 46.2007 175.52 46.6744 176.24 46.727C176.369 46.727 176.599 46.6645 176.934 46.5329C177.115 46.4803 177.231 46.4573 177.28 46.4573C177.665 46.4836 177.872 46.6875 177.898 47.0757C177.872 47.6151 177.293 47.9112 176.165 47.9638C174.573 47.8881 173.724 47 173.622 45.3027C173.777 43.6054 174.625 42.6942 176.165 42.5659C177.296 42.612 177.872 42.908 177.898 43.4475Z" fill="#666666"/>
<path d="M179.056 40.4769C179.543 40.5296 179.813 40.7861 179.866 41.2466C179.839 41.7368 179.569 42.0065 179.056 42.0558C178.593 42.0032 178.336 41.7335 178.287 41.2466C178.336 40.7861 178.593 40.5296 179.056 40.4769ZM178.362 47.184V43.4078C178.389 42.8946 178.619 42.6249 179.056 42.5986C179.52 42.6249 179.764 42.8946 179.79 43.4078V47.184C179.764 47.6741 179.52 47.9175 179.056 47.9175C178.619 47.9175 178.389 47.6741 178.362 47.184Z" fill="#666666"/>
<path d="M185.378 43.523V47.0295C185.405 47.6216 185.184 47.9176 184.724 47.9176C184.365 47.9439 184.132 47.763 184.03 47.3782C183.671 47.763 183.22 47.9571 182.681 47.9571C181.217 47.8814 180.431 46.9933 180.329 45.296C180.457 43.625 181.24 42.7138 182.681 42.5592C183.299 42.5592 183.747 42.7796 184.03 43.2138C184.105 42.8289 184.339 42.6217 184.724 42.5954C185.184 42.5987 185.401 42.9079 185.378 43.523ZM181.753 45.296C181.806 46.1973 182.178 46.6709 182.872 46.7236C183.566 46.6709 183.938 46.1973 183.99 45.296C183.938 44.398 183.566 43.921 182.872 43.8684C182.178 43.921 181.806 44.398 181.753 45.296Z" fill="#666666"/>
<path d="M186.148 47.1842V41.0922C186.174 40.6054 186.405 40.3488 186.842 40.3225C187.306 40.3488 187.549 40.6054 187.576 41.0922V47.1842C187.549 47.6743 187.306 47.9177 186.842 47.9177C186.405 47.9177 186.174 47.6743 186.148 47.1842Z" fill="#666666"/>
<path d="M188.655 47.1839V43.9077H188.346C187.987 43.8814 187.806 43.6775 187.806 43.2893C187.832 42.9045 188.01 42.6972 188.346 42.6709H188.655V41.8222C188.681 41.3091 188.925 41.0394 189.388 41.0131C189.826 41.0394 190.056 41.3091 190.082 41.8222V42.6709H190.507C190.944 42.6709 191.161 42.8781 191.161 43.2893C191.135 43.6742 190.918 43.8814 190.507 43.9077H190.082V47.1839C190.056 47.6741 189.826 47.9175 189.388 47.9175C188.925 47.9175 188.678 47.6741 188.655 47.1839Z" fill="#666666"/>
<path d="M192.431 47.4934L190.852 43.5987C190.826 43.4968 190.812 43.3685 190.812 43.2139C190.865 42.8553 191.082 42.6481 191.467 42.5955C191.826 42.5955 192.059 42.7632 192.161 43.0954L193.164 45.7927L194.204 43.0954C194.332 42.7632 194.562 42.5955 194.898 42.5955C195.309 42.6481 195.539 42.852 195.592 43.2139C195.592 43.3685 195.566 43.4968 195.516 43.5987L193.125 49.4209C192.97 49.8058 192.753 49.9999 192.47 49.9999C192.007 49.9736 191.763 49.7696 191.737 49.3815C191.737 49.3058 191.75 49.1874 191.776 49.0361C191.75 49.1381 191.763 49.1117 191.816 48.9604L192.431 47.4934Z" fill="#666666"/>
<defs>
<clipPath id="clip0_108_441">
<rect width="161.29" height="29.0323" fill="white" transform="translate(38.7095 12.0968)"/>
</clipPath>
</defs>
</svg>
