<svg width="178" height="206" viewBox="0 0 178 206" fill="none" xmlns="http://www.w3.org/2000/svg">
<g opacity="0.8">
<path d="M3.62261 34.4291C4.12503 33.4097 4.54485 34.25 4.99221 34.4911C5.43956 34.3947 5.88691 34.2914 6.32739 34.1949C7.28404 31.3432 10.3054 30.4683 11.9572 28.2847C13.5057 27.9128 14.9441 27.341 15.9696 26.0322C16.8712 25.4674 17.7659 24.9026 18.6675 24.3446C19.4245 24.4066 20.0302 24.1517 20.4569 23.5042C23.2098 22.6018 25.6118 21.0933 27.821 19.2541C28.2202 19.1095 28.6125 18.9717 29.0117 18.827C31.8059 18.9648 31.3792 20.9969 31.0764 22.6776C30.746 24.503 29.693 26.1838 29.9821 28.147C29.9064 28.5947 29.8307 29.0425 29.755 29.4902C26.9745 32.6588 26.3 36.7092 25.13 40.5529C24.9855 41.097 24.8478 41.6412 24.7033 42.1785C22.8933 45.6227 21.7095 49.06 24.8134 52.449C26.8988 55.4592 30.3469 56.6578 33.148 58.7105C38.5369 62.6713 41.455 68.3336 44.146 74.1887C41.4344 74.6571 38.6195 74.2644 35.9698 75.2288C34.607 74.8982 33.1617 74.1198 32.1845 75.9176L32.0743 75.9796C30.106 75.7454 28.0757 75.7592 26.3069 74.6433C25.1507 74.7948 23.9875 74.9464 22.8313 75.0979C22.556 74.905 22.2876 74.7122 22.0123 74.5262C21.5994 74.3333 21.1864 74.1404 20.7735 73.9545C18.7157 73.6031 16.6578 73.2518 14.6069 72.9074C13.3543 72.0808 12.0191 72.5079 10.7046 72.6732C9.30057 75.029 6.34115 76.1243 5.93509 79.3756C5.28815 84.5143 6.10027 85.706 11.207 85.7542C11.8883 85.644 12.5697 85.5338 13.251 85.4304C15.3089 83.9908 17.8003 83.8806 20.1059 83.2124C20.2848 83.5017 20.4707 83.791 20.6496 84.0803L20.9593 84.0596C21.1314 83.8874 21.3034 83.7221 21.4824 83.5499C21.0075 83.1573 20.5326 82.7715 20.0508 82.3789C20.5257 82.7715 21.0006 83.1573 21.4824 83.5499C27.8692 84.2801 33.8569 81.9036 40.051 81.1734C42.3015 81.4421 44.6347 80.4295 46.837 81.5867C46.9334 82.372 47.1192 83.7566 46.4447 83.7083C43.4165 83.481 41.221 86.4224 38.0689 85.644C36.4791 85.2513 34.2698 87.7243 34.4075 89.4463C37.2361 92.5737 40.1061 95.6321 44.614 96.2038C44.7241 95.1086 44.8411 94.0133 44.9513 92.9112C45.3848 92.9043 45.8115 92.8905 46.2451 92.8836C46.3415 92.7183 46.4791 92.6563 46.665 92.7114C46.7407 92.305 46.8164 91.8917 46.899 91.4853C47.5046 90.2798 48.4888 89.0813 48.1791 87.6967C47.539 84.8105 48.8467 82.6269 50.3746 80.457C51.5239 80.6706 52.6664 80.8841 53.8157 81.0908C57.1675 83.3088 61.2005 83.0608 64.8619 84.163C65.268 84.1768 65.6741 84.1905 66.0801 84.1974L66.0457 84.2594C66.7477 84.1492 67.4497 84.0459 68.1517 83.9357C68.1793 84.3696 68.2137 84.7967 68.2481 85.2307C69.1221 85.5406 69.9893 85.8506 70.8634 86.1606C71.5791 86.2157 72.2949 86.2639 73.0176 86.319C73.871 86.2639 74.7313 86.2019 75.5847 86.1468C75.8462 86.1399 76.1009 86.1399 76.3624 86.1399C76.1077 86.1399 75.8462 86.1399 75.5847 86.1468C75.7017 86.4361 75.8118 86.7254 75.9288 87.0147C77.8146 86.7048 79.4939 88.4957 81.4416 87.552C81.8752 87.6416 82.3088 87.7243 82.7423 87.8138C83.5132 88.7782 83.2241 89.8528 83.0452 90.9136C82.6942 91.32 82.3432 91.7264 81.9922 92.1397C78.0142 93.4829 77.2571 98.5872 73.1346 99.7651C72.3156 100.805 71.5034 101.845 71.7099 103.299C70.4367 103.223 69.7553 103.864 69.5351 105.076C68.3238 105.675 67.6493 106.647 67.5461 108.004C66.4931 108.286 65.8048 108.954 65.4607 109.987C65.5571 110.504 65.6465 111.021 65.7429 111.537C65.6465 111.021 65.5571 110.504 65.4607 109.987C64.0017 111.503 64.4352 113.17 65.0684 114.851C64.9239 115.422 64.7794 115.994 64.6348 116.573C63.162 118.095 60.8495 118.563 59.5144 120.299C61.6548 121.264 64.6211 116.58 65.7842 121.622C67.7319 121.174 69.6727 120.616 71.6961 121.188C71.937 121.064 72.1779 120.933 72.4257 120.809C74.6211 121.408 76.3968 121.188 76.9405 118.515C77.1126 117.999 77.2915 117.475 77.4636 116.951C77.1057 115.911 76.7478 114.871 76.3899 113.831C75.5571 113.569 75.0066 113.128 75.2956 112.137C74.8139 111.303 74.0774 110.573 74.2013 109.485C73.9329 109.23 73.6576 108.975 73.3892 108.72C73.9604 108.21 74.5317 107.707 75.1029 107.198C75.3163 103.609 78.021 102.19 80.8153 101.804C85.3508 101.184 89.3081 99.5102 93.0521 97.058C92.8594 96.934 92.6736 96.8444 92.4947 96.7893C92.6736 96.8513 92.8594 96.934 93.0521 97.058C93.6991 96.9615 94.3529 96.8582 94.9998 96.7618C95.1306 96.4105 95.2683 96.0592 95.399 95.7147C98.909 94.1786 96.4107 91.2373 96.748 89.033C97.0577 87.0079 94.8897 88.4131 93.8849 88.0756C93.2655 87.8689 92.708 87.3936 92.1987 86.9459C91.0218 85.8988 89.6935 85.3753 88.1175 85.5475C87.0714 85.4167 86.0321 85.2927 84.986 85.1618C85.2062 84.8794 85.1994 84.5832 84.9447 84.2663C83.0383 83.2882 81.9371 80.6568 79.1704 81.4283C78.5028 81.387 77.8421 81.3456 77.1745 81.3043C74.9309 81.6694 72.8042 81.4765 70.9322 80.03C70.2715 79.9611 69.6108 79.8991 68.9501 79.8302C65.4676 76.9715 60.7188 77.5364 56.9541 75.4079C56.3691 75.0773 55.6327 75.4974 55.1303 76.0416C54.9926 76.0072 54.8756 76.0278 54.7655 76.1174C52.7696 74.7191 52.1227 72.5286 51.3932 70.3863C50.7531 70.0419 50.1199 69.6906 49.4799 69.3461C49.3491 68.4507 49.2252 67.5552 49.0944 66.6597C48.8398 66.6597 48.592 66.6597 48.3374 66.6597C48.4062 66.4393 48.3718 66.2326 48.241 66.0466C48.3305 65.7987 48.42 65.5438 48.5026 65.2958C46.6168 60.5084 43.4784 56.7198 39.4866 53.503C36.4033 51.0163 33.0792 48.7362 30.863 45.3127C30.9319 44.865 31.0076 44.4103 31.0764 43.9626C31.8679 42.9294 31.5375 41.6688 31.7853 40.5253C32.1294 40.0294 32.4666 39.5334 32.8107 39.0374C32.9415 38.1557 33.0723 37.2809 33.1962 36.3992C33.9119 35.8688 34.6277 35.3315 34.4143 34.2707C34.4625 33.8298 34.5038 33.389 34.552 32.955C34.8204 32.6864 35.0957 32.4177 35.3641 32.1491C35.3297 31.7289 35.2953 31.3156 35.254 30.8954C35.2884 31.3156 35.3228 31.7289 35.3641 32.1491C37.6903 34.3465 38.8948 37.3085 40.6773 39.8778C43.272 40.2222 45.8666 40.5667 48.4613 40.9111C48.9568 40.2911 49.5762 39.9054 50.3883 39.9054C50.9871 39.375 51.6822 39.1683 52.4737 39.2303C54.5866 37.5771 56.6926 35.917 59.3423 35.18C59.7002 34.5738 60.1613 34.0985 60.8839 33.9469C63.6162 31.0676 66.2247 28.0643 69.1153 25.3572C71.352 23.27 72.935 21.1553 72.233 17.9109C71.9439 16.5745 72.2949 15.4104 73.6163 14.7216C73.6576 13.9156 73.692 13.1028 73.7333 12.2969C72.6941 11.2567 71.6548 10.2166 70.6156 9.17647C70.2853 9.07314 69.9549 8.96982 69.6245 8.86649C69.0464 8.99737 68.5647 8.84583 68.193 8.37053C64.9377 7.48882 61.6754 6.614 58.42 5.7323C51.6547 5.29833 45.0889 6.2007 38.7158 8.4463C37.5733 7.46127 37.7661 5.93895 37.2361 4.69904C35.5293 0.710694 31.4549 -1.0045 27.1947 0.593592C24.607 1.57862 21.4342 2.01948 22.1431 6.05605C22.2945 6.09738 22.3771 6.2007 22.3908 6.35914C24.5794 8.12255 27.2016 7.13752 29.6173 7.5026C29.6449 8.28787 30.0165 8.85272 30.7116 9.20402C31.5857 11.5943 29.2113 11.5392 28.2202 12.5242C27.9931 12.5793 27.7729 12.6344 27.5457 12.6895C27.119 12.8204 26.6923 12.9513 26.2656 13.089C26.3757 13.1993 26.4859 13.3577 26.596 13.4817C26.4859 13.3508 26.3688 13.1993 26.2656 13.089C25.8389 13.1648 25.4122 13.2406 24.9855 13.3164C24.4418 13.1579 23.96 13.2544 23.5471 13.6539C17.642 16.8363 10.7115 17.7318 5.2675 22.0646C3.73961 23.2838 3.64326 25.309 2.01214 26.2527C-1.08493 30.7025 -0.651338 32.8861 3.62261 34.4291ZM69.8723 112.15C70.0237 112.323 70.1683 112.536 70.299 112.798C70.1683 112.536 70.0306 112.323 69.8723 112.15C69.6383 111.882 69.3768 111.709 69.1015 111.592C69.3768 111.703 69.6383 111.882 69.8723 112.15ZM35.488 28.8909C35.2402 29.4764 35.3228 30.1997 35.2196 30.8472C35.3228 30.1997 35.2402 29.4764 35.488 28.8909ZM24.607 50.9267C24.6345 51.0852 24.6689 51.2436 24.7033 51.3951C24.6689 51.2436 24.6345 51.0852 24.607 50.9267ZM47.188 81.1459C47.4289 80.891 47.6904 80.6844 47.9657 80.5259C47.6835 80.6844 47.4289 80.891 47.188 81.1459ZM49.3147 80.1815C48.9843 80.1677 48.6746 80.216 48.3856 80.3262C48.6746 80.216 48.9843 80.1677 49.3147 80.1815ZM64.0842 82.5236C63.7332 82.3996 63.2859 82.3376 62.9899 82.1722C63.2859 82.3376 63.7332 82.3996 64.0842 82.5236ZM67.4497 81.0839C67.5323 81.3525 67.7732 81.5247 68.1104 81.6694C67.7732 81.5247 67.5323 81.3456 67.4497 81.0839ZM49.6932 73.5274C50.0373 73.8649 50.4916 74.1473 50.6017 74.5124C50.6361 74.6364 50.6361 74.7673 50.581 74.9119C50.6361 74.7673 50.643 74.6364 50.6017 74.5124C50.4916 74.1473 50.0373 73.8649 49.6932 73.5274C49.528 72.6525 49.3078 71.7846 49.2734 70.9098C49.3078 71.7846 49.528 72.6525 49.6932 73.5274ZM30.4019 43.2393C30.4707 42.702 30.4707 42.1303 30.629 41.6343C30.4707 42.1303 30.4639 42.702 30.4019 43.2393ZM44.7173 35.3797C44.8274 35.3177 44.9031 35.2351 44.965 35.1317C45.1784 34.7667 45.1646 34.1812 45.3435 33.7747C45.1646 34.1812 45.1715 34.7598 44.965 35.1317C44.9031 35.2351 44.8205 35.3177 44.7173 35.3797ZM39.6381 15.7204C39.8583 13.771 41.3999 13.7917 42.7971 13.6057C43.038 13.5368 43.2788 13.461 43.5197 13.3921C46.0868 11.8423 48.826 11.3394 51.7717 11.9594C54.0291 11.3256 56.314 11.5323 58.5921 11.7665C59.1221 11.5116 59.6176 11.5736 60.0856 11.9249C61.4483 12.3176 62.811 12.7033 64.1668 13.0959C64.9652 12.3451 65.4401 12.4691 65.5502 13.6057C66.4036 14.7629 66.3761 16.0441 65.6672 17.1601C62.4325 22.2781 59.418 27.589 53.6368 30.4408C52.0126 31.2398 50.581 32.4453 49.06 33.4579C48.9017 33.7196 48.7366 33.8918 48.5576 33.9745C48.7366 33.8918 48.9017 33.7196 49.06 33.4579C48.5714 33.5061 48.0896 33.5543 47.601 33.6025C47.0366 33.513 46.4791 33.4165 45.9148 33.327C44.6003 31.9562 42.8659 32.7002 41.3311 32.4246C40.2162 31.2467 39.0186 30.2272 37.2705 30.1997C36.9746 29.4764 36.6855 28.7531 36.3896 28.023C36.5135 27.3755 36.6373 26.728 36.7681 26.0873C36.9952 26.1011 37.2155 26.0874 37.4357 26.0529C37.0159 24.1448 38.0276 22.7878 39.1838 21.4859C38.8259 19.5296 39.1838 17.6216 39.6381 15.7204Z" fill="white"/>
<path d="M132.904 53.6588C132.74 54.1262 132.205 54.6124 132.973 55.0231C134.654 53.8477 136.647 53.3048 138.462 52.7619C140.959 52.0208 142.141 51.0814 141.429 48.2159C141.196 48.0271 140.968 47.8383 140.735 47.6447C139.467 47.6919 138.199 47.7344 136.931 47.7816C136.129 48.2112 135.362 48.8013 134.396 48.2962C133.512 47.8288 133.223 48.8626 132.636 49.1459C132.615 49.3017 132.537 49.4008 132.395 49.4338C132.373 50.1939 132.352 50.9586 132.33 51.7186C132.442 51.8886 132.554 52.0538 132.662 52.2237C133.538 52.5495 133.865 52.9743 132.904 53.6588Z" fill="white"/>
<path d="M141.425 48.202C141.425 48.2068 141.425 48.2112 141.429 48.2159C141.434 48.2206 141.438 48.2256 141.442 48.2256C141.442 48.2303 141.425 48.202 141.425 48.202Z" fill="white"/>
<path d="M152.387 30.2776C151.003 32.4303 148.954 33.6387 146.932 34.885C146.337 35.645 145.703 36.3389 144.754 36.5325C144.53 36.7355 144.31 36.9337 144.086 37.1367C144.802 38.6237 145.849 38.298 147.005 37.8684C150.904 36.4097 154.181 33.7615 157.489 31.2123C158.981 30.0652 157.238 29.7112 156.799 29.0597C156.195 28.7387 155.595 28.413 154.992 28.092C154.418 27.9929 153.849 27.8937 153.275 27.7993C153.068 28.2431 152.866 28.6868 152.659 29.1305C152.935 29.6168 152.741 29.9708 152.387 30.2776Z" fill="white"/>
<path d="M138.656 41.1541C138.518 41.3759 138.38 41.5506 138.242 41.6781C138.152 41.7677 138.057 41.8338 137.962 41.881C138.057 41.8291 138.148 41.763 138.242 41.6781C138.38 41.5506 138.518 41.3759 138.656 41.1541C137.906 40.8897 137.16 40.7717 136.418 41.1777C136.129 41.206 135.845 41.2296 135.556 41.2579C135.551 41.2957 135.556 41.3382 135.56 41.3807C135.556 41.3382 135.551 41.3004 135.556 41.2579C135.465 41.1305 135.357 41.1021 135.224 41.1729C133.758 41.0785 132.291 40.9841 130.825 40.8897C130.696 41.0738 130.566 41.2626 130.433 41.4467C130.592 41.8716 130.747 42.3012 130.907 42.726C131.179 42.9196 131.45 43.1178 131.722 43.3114C132.727 44.7795 134.448 44.6473 135.737 45.4829C135.827 45.7331 135.918 45.988 136.009 46.2382C136.436 46.1721 136.858 46.1107 137.285 46.0446C137.363 45.8228 137.44 45.6056 137.518 45.3838C138.876 44.4963 140.424 44.3122 141.925 43.9487C142.374 43.6654 142.848 43.6418 143.335 43.8071C143.473 43.7268 143.607 43.6466 143.745 43.5663C144.909 43.6938 146.078 43.8165 147.242 43.944C147.514 43.8684 147.79 43.7929 148.062 43.7174C148.402 43.3775 148.739 43.0423 149.075 42.7024C149.545 42.0321 150.503 41.6733 150.214 40.5309C148.394 39.8937 146.544 39.4216 144.616 39.3885C143.025 39.8464 141.334 39.955 139.898 40.9794C139.484 41.036 139.07 41.0974 138.656 41.1541Z" fill="white"/>
<path d="M138.574 30.3344C138.238 30.1975 137.902 30.0606 137.57 29.9237C136.906 29.48 136.237 29.0362 135.573 28.5925C135.288 28.6114 134.999 28.6302 134.715 28.6491C134.551 28.8096 134.387 28.9701 134.223 29.1306C134.253 30.2353 134.284 31.3399 134.314 32.4445C134.922 33.3745 135.534 34.2997 136.142 35.2297C136.28 35.2533 136.371 35.3382 136.418 35.4846C138.764 36.6883 138.829 34.3516 139.562 33.0535C139.333 32.7938 138.859 32.6333 138.441 32.4587C138.863 32.6381 139.333 32.7938 139.562 33.0535C139.924 32.7891 140.286 32.52 140.649 32.2557C141.011 31.3446 142.839 31.3257 141.96 29.6593C141.96 29.6546 141.848 29.48 141.848 29.48L141.938 29.2864C141.153 30.9245 139.739 30.1503 138.574 30.3344C137.902 30.9245 137.63 31.3352 137.608 31.642C137.634 31.3352 137.902 30.9197 138.574 30.3344ZM137.712 31.996C137.677 31.9536 137.656 31.9016 137.634 31.8544C137.656 31.9064 137.682 31.9536 137.712 31.996Z" fill="white"/>
<path d="M170.163 97.825C170.163 97.8392 170.163 97.8486 170.163 97.8628C170.176 97.8722 170.193 97.8817 170.206 97.8911C170.21 97.8911 170.163 97.825 170.163 97.825Z" fill="white"/>
<path d="M170.27 100.478C170.236 99.6048 170.201 98.7361 170.163 97.8628C169.831 97.6362 169.499 97.4097 169.167 97.1831L169.141 97.1453C169.076 96.6072 168.727 96.3759 168.304 96.2248L168.287 96.1965C168.265 95.7291 168.248 95.2618 168.226 94.7944C167.942 94.8369 167.653 94.8841 167.368 94.9266C167.105 94.752 166.842 94.5726 166.583 94.3979C166.113 93.8314 165.596 93.3971 164.833 93.6379C164.565 93.534 164.298 93.4302 164.03 93.3263C163.599 91.6363 161.762 91.929 160.973 90.7394C160.688 90.7347 160.408 90.7253 160.123 90.7205C160.158 90.8622 160.197 91.0038 160.24 91.1407C160.201 91.0038 160.162 90.8622 160.123 90.7205C159.101 89.8661 157.519 89.8095 157.062 88.1431C156.885 88.0015 156.708 87.8646 156.527 87.7229C156.704 87.8646 156.881 88.0015 157.062 88.1431C157.303 88.0062 157.54 87.874 157.782 87.7371C157.907 87.0668 158.183 86.5758 158.903 86.6183C159.403 85.509 160.046 84.5271 160.973 83.7954C161.65 82.6294 162.564 81.7136 163.517 80.8308C163.647 80.557 163.793 80.2832 163.931 80.0141C163.793 80.2879 163.647 80.557 163.517 80.8308C166.687 79.443 167.368 77.4131 165.902 73.7404C164.311 73.2164 162.719 72.6972 161.128 72.1732C160.813 72.4706 160.503 72.7727 160.188 73.0701C160.158 73.5374 160.132 74.0048 160.102 74.4721C160.309 74.5713 160.52 74.6657 160.727 74.7648C160.731 76.0252 161.197 77.262 160.882 78.5413C160.132 79.0559 160.274 79.8867 160.248 80.6609C159.088 81.317 159.395 83.0117 158.407 83.7906C157.803 84.6215 157.204 85.4523 156.6 86.2831C156.423 86.6466 156.247 87.0054 156.074 87.3689C154.254 88.8559 152.637 88.0581 151.059 86.8307C150.481 86.8685 149.899 86.9016 149.321 86.9393C149.088 86.6183 148.808 86.5145 148.454 86.6891C147.648 86.5239 146.841 86.3634 146.035 86.1982C145.668 85.627 145.19 85.4334 144.582 85.6836C143.866 85.627 143.146 85.5703 142.43 85.5137C142.348 85.6459 142.223 85.6836 142.085 85.6884C142.223 85.6884 142.348 85.6459 142.43 85.5137C141.809 84.5648 140.86 84.7348 139.985 84.6262C139.204 84.5271 138.229 84.7206 138.091 83.4083C138.648 82.8512 139.036 82.1856 139.234 81.3926C140.023 80.6939 140.455 79.7687 140.67 78.7018C140.989 78.0834 141.309 77.465 141.623 76.8466C141.503 76.5492 141.399 76.2896 141.317 76.0583C141.403 76.2896 141.507 76.5492 141.623 76.8466C142.438 76.1432 142.52 75.0008 142.986 74.0898L142.99 74.085C143.698 73.0276 144.754 72.48 145.746 71.838C146.419 71.7436 147.117 71.7294 147.622 71.111C149.429 70.8844 150.796 69.4494 152.465 68.9301C154.815 68.1984 155.91 66.4707 156.406 64.0584C156.462 63.5863 156.518 63.119 156.574 62.6469C156.152 60.5887 154.897 58.7666 155.121 56.5196C155.13 55.6934 154.776 55.2355 154.004 55.2072H153.996C154 55.2072 154.004 55.2072 154.004 55.2072C154.008 54.924 154.008 54.636 154.013 54.3528C153.957 54.6408 153.896 54.9334 153.84 55.2214C153.84 55.2214 153.914 55.2167 153.961 55.212L153.84 55.2214C153.517 55.3913 153.193 55.566 152.866 55.7359C152.137 55.7171 151.412 55.6982 150.684 55.684C149.869 56.1561 149.054 56.6234 148.243 57.0955C148.195 57.2324 148.17 57.3787 148.17 57.5251C147.85 57.6431 147.531 57.7611 147.208 57.8791C146.22 59.0687 145.267 60.2913 144.659 61.7783C144.254 62.2268 143.848 62.6753 143.439 63.1237C143.611 64.6107 142.852 65.6398 141.994 66.617C141.584 67.5281 141.175 68.4344 140.765 69.3455C136.737 69.9261 132.731 70.6767 128.66 70.8325C128.389 70.8136 128.113 70.7948 127.841 70.7759C127.086 70.4124 126.332 70.0536 125.577 69.6901C127.517 67.5422 129.506 65.4746 132.028 64.1103C133.49 63.3173 135.099 62.9491 136.517 62.0002C137.587 61.2874 137.992 60.6076 137.233 59.4086C137.263 59.0829 137.294 58.7571 137.324 58.4314C137.022 58.3134 136.72 58.1907 136.418 58.0727C136.134 57.9027 135.853 57.7375 135.569 57.5675C135.146 57.5298 134.723 57.492 134.301 57.4543C133.576 57.3362 132.848 57.2229 132.123 57.1049C131.243 57.5534 130.467 54.9712 129.536 57.0011C129.406 57.0199 129.273 57.0294 129.143 57.0294C130.152 61.2024 127.013 62.6658 124.913 64.809C124.443 65.3566 123.968 65.8995 123.498 66.4471C123.455 66.9994 123.196 67.4053 122.787 67.7122L122.705 67.8821C122.476 68.4061 122.248 68.9301 122.019 69.4588C121.661 69.7987 121.446 70.2 121.536 70.7428C121.48 71.2007 121.42 71.6586 121.364 72.1165C121.29 72.7491 121.661 73.0512 122.101 73.3014C122.347 74.0331 123.209 73.8396 123.537 74.4485C125.534 74.9395 127.543 75.0292 129.562 74.6421C129.963 74.7318 130.368 74.8167 130.773 74.9064C131.192 74.7176 131.61 74.5241 132.033 74.3352C133.783 74.17 135.534 74.0048 137.285 73.8348C137.755 73.882 138.221 73.9245 138.691 73.9717C138.389 74.9772 138.091 75.9827 137.79 76.9835C137.686 77.0166 137.587 77.0449 137.483 77.0826C136.811 77.9135 136.444 78.9142 136.091 79.9386C135.073 82.8701 134.09 83.5641 131.243 83.498C129.234 83.4508 127.229 83.4272 125.219 83.413C124.361 83.4083 123.468 83.3422 122.873 84.2438C120.066 85.3532 118.996 87.8079 118.367 90.7961C117.603 94.431 118.815 96.2201 122.209 96.0454C123.382 96.0974 124.576 96.4231 125.676 95.6772C127.358 95.1532 128.794 94.1996 129.967 92.774C130.114 92.3916 130.299 92.0518 130.51 91.7402C130.299 92.0518 130.118 92.3916 129.971 92.774C130.709 92.368 131.45 91.9621 132.188 91.5561C132.464 90.8999 133.111 90.4184 132.955 89.564C133.042 89.4837 133.085 89.3799 133.085 89.2571C133.434 88.9503 133.779 88.6482 134.128 88.3461C134.219 88.3649 134.288 88.3272 134.327 88.2375C136.224 87.4067 138.087 87.6427 139.941 88.4169C140.506 88.4924 141.067 88.5632 141.632 88.6388C142.503 88.7237 143.37 88.804 144.241 88.8889C144.547 88.8889 144.849 88.8842 145.155 88.8842C145.155 89.0494 145.159 89.2099 145.159 89.3752C145.444 89.3232 145.729 89.2713 146.013 89.2194C146.005 89.3091 146 89.3988 146.005 89.4885C146.561 89.4554 147.117 89.4224 147.674 89.3846C147.725 89.564 147.777 89.7387 147.829 89.918C148.23 89.9416 148.635 89.97 149.036 89.9936C150.093 90.4609 151.145 90.9235 152.202 91.3909C152.542 91.3767 152.827 91.4853 153.06 91.7024C152.823 91.4806 152.538 91.3767 152.202 91.3909C151.663 93.7984 149.17 94.6953 148.445 97.1123C149.593 97.4474 149.981 96.4042 150.628 95.9416C151.512 94.6151 152.396 93.2886 153.28 91.9621C153.866 92.2123 154.72 91.7071 155.048 92.6985C159.313 93.9258 162.771 96.9187 166.635 99.0241C167.084 99.331 167.532 99.6378 167.981 99.9447C168.541 101.054 169.391 100.846 170.27 100.478ZM143.853 68.9773C143.939 69.473 144.206 69.6949 144.668 69.6382C144.202 69.6901 143.939 69.4683 143.853 68.9773ZM143.818 68.5524C143.818 68.6327 143.831 68.6941 143.836 68.7649C143.827 68.6988 143.818 68.6327 143.818 68.5524ZM143.848 68.0285C143.616 67.7641 143.284 67.4856 143.189 67.1835C143.284 67.4856 143.616 67.7688 143.848 68.0285ZM149.834 68.4297C149.644 68.0379 149.45 67.6508 149.261 67.259C149.45 67.6461 149.64 68.0379 149.834 68.4297ZM154.134 63.4117C154.159 63.2842 154.181 63.1521 154.185 63.0293C154.181 63.1568 154.159 63.2842 154.134 63.4117ZM145.535 63.9829C145.681 64.4408 145.875 64.8751 146.246 65.2102C147.872 63.8082 148.368 61.2874 150.464 60.2913C151.391 59.8476 152.258 59.3567 153.284 59.3472C153.15 60.1544 152.749 60.9098 152.913 61.7736C152.805 62.1418 152.702 62.51 152.594 62.8783C151.852 63.5675 151.387 64.4738 150.968 65.4132C150.589 65.6257 150.209 65.8334 149.83 66.0458C149.105 65.9419 148.51 66.1874 148.049 66.8105C147.781 66.8955 147.514 66.9758 147.247 67.0607C146.57 67.1032 145.492 68.5808 145.414 66.4518C145.69 66.0411 145.966 65.6257 146.242 65.215C145.875 64.8704 145.681 64.4408 145.535 63.9829C145.487 63.8318 145.444 63.6713 145.401 63.5155C145.444 63.6713 145.487 63.8271 145.535 63.9829ZM145.341 63.2795C145.297 63.1237 145.254 62.9679 145.207 62.8122C145.259 62.9632 145.302 63.1237 145.341 63.2795ZM143.167 66.9852C143.163 67.0513 143.171 67.1174 143.189 67.1835C143.167 67.1174 143.159 67.0513 143.167 66.9852ZM126.159 92.3822C125.379 92.7693 124.231 94.143 123.529 92.2736C122.839 90.4373 123.654 88.1006 125.085 87.8126C126.543 87.52 128.052 87.5341 129.54 87.4161C130.519 88.2894 129.605 89.1533 129.531 90.0219C128.414 90.8291 127.362 91.7874 126.159 92.3822ZM141.653 85.6223C141.619 85.6175 141.58 85.6128 141.546 85.6128C141.58 85.6128 141.615 85.6175 141.653 85.6223ZM145.651 88.7804C145.565 88.7379 145.466 88.7332 145.354 88.7662C145.461 88.7332 145.561 88.7379 145.651 88.7804C145.72 88.8134 145.785 88.8653 145.841 88.9361C145.78 88.8653 145.72 88.8134 145.651 88.7804ZM167.11 97.1359C167.407 97.8393 167.912 98.316 168.606 98.5851C168.705 99.1421 168.688 99.6284 168.196 99.8455C168.684 99.6284 168.705 99.1421 168.602 98.5851C167.912 98.316 167.407 97.8393 167.11 97.1359Z" fill="white"/>
<path d="M86.9297 192.575C80.4376 194.078 73.9042 195.27 67.1922 195.223C65.6602 196.355 64.2587 195.554 62.8434 194.945C56.736 193.853 55.2796 192.178 55.836 186.505C55.9803 185.062 55.8017 183.699 55.6299 182.302C55.5269 181.581 55.4238 180.859 55.3208 180.138C54.9361 179.727 54.7231 179.284 54.9841 178.728C54.1529 177.543 54.991 176.113 54.3796 174.895L54.1391 174.994L53.933 174.835L53.8437 174.968C53.8437 174.968 53.6857 174.902 53.6926 174.902C49.7904 178.496 48.8286 183.275 48.6019 188.081C48.2378 195.892 50.6079 198.672 58.4329 200.777C62.6305 201.902 66.9929 200.466 71.1974 201.545C71.8775 201.485 72.5576 201.426 73.2378 201.366C78.459 200.552 83.639 198.884 88.9632 200.83C90.5708 200.936 92.1784 201.035 93.786 201.141C95.4829 200.969 97.1729 200.803 98.8629 200.611C101.419 200.327 103.59 199.221 104.201 196.759C104.668 194.872 101.515 192.635 98.5332 192.562C94.6654 192.476 90.7975 192.569 86.9297 192.575Z" fill="white"/>
<path d="M19.7341 195.217C20.8539 195.217 21.9669 195.217 23.0867 195.217C24.179 194.634 25.292 194.111 26.5629 194.025C27.7858 193.449 28.6308 192.648 28.3629 191.192C29.0361 190.987 29.7094 190.782 30.3895 190.576C29.5376 189.219 29.6682 187.942 30.7261 186.744C30.3139 185.433 30.7399 184.533 32.107 184.076C31.3857 181.686 33.797 181.475 34.8894 180.349C35.7962 177.291 38.7228 175.597 40.2549 172.949C41.3747 171.023 43.1196 169.275 41.7113 166.806C43.7311 163.443 45.8264 160.259 49.2683 157.89C51.0545 156.658 52.3598 154.461 52.9232 152.164C53.2873 151.78 53.6582 151.389 54.0224 151.005C55.6368 150.8 56.1933 149.801 56.1521 148.358C57.8627 147.391 59.0856 145.955 60.1985 144.419C61.6962 144.055 63.132 143.585 64.0045 142.208L64.1213 142.142C65.1655 141.831 66.1067 141.387 66.5876 140.348C67.6937 140.083 68.4356 139.315 69.1982 138.581C69.789 138.581 70.2356 138.349 70.5516 137.866C72.0768 137.118 73.595 136.37 75.1202 135.622H75.1339C75.7591 135.165 76.3499 134.662 77.0094 134.265C82.1619 131.147 82.1276 129.671 76.8033 126.685C76.082 126.169 75.3606 125.659 74.6393 125.143C73.7118 125.13 72.7775 125.117 71.85 125.097C71.2249 125.567 70.5173 125.719 69.7409 125.633C69.7409 125.805 69.789 125.964 69.8783 126.11C70.6615 126.997 71.534 127.579 72.434 127.857C72.7363 127.95 73.0317 128.009 73.334 128.036C73.0317 128.009 72.7294 127.95 72.434 127.857C71.534 127.579 70.6615 126.997 69.8783 126.11C69.6242 126.136 69.37 126.156 69.1227 126.182C69.0814 126.275 69.0265 126.348 68.9578 126.414C69.0265 126.355 69.0814 126.275 69.1227 126.182C68.6143 125.931 68.6624 126.242 68.7173 126.56C68.2021 126.679 67.6937 126.805 67.1784 126.924C66.2304 127.215 65.2754 127.513 64.3274 127.804C64.2999 127.89 64.2656 127.956 64.2312 128.036C64.2656 127.963 64.2999 127.89 64.3274 127.804C63.5167 127.652 62.8297 127.857 62.2732 128.446C61.5794 128.334 60.8855 128.221 60.1916 128.109C59.2848 128.254 58.3779 128.393 57.478 128.539C57.2925 128.678 57.107 128.817 56.9215 128.956C53.7682 128.4 50.8209 129.386 47.8394 130.094C47.5577 130.147 47.2691 130.2 46.9875 130.247C43.3944 132.742 47.1043 134.49 47.6813 136.562L47.7226 136.608C47.8119 136.913 47.8943 137.217 47.9836 137.522C49.0828 137.641 50.182 137.76 51.2812 137.879C51.7484 137.839 52.2155 137.8 52.6827 137.76C52.5316 138.362 52.3873 138.971 52.2362 139.574C51.9201 139.613 51.6041 139.66 51.2881 139.699C50.9996 140.275 50.7179 140.844 50.4293 141.42C49.811 141.97 49.1927 142.513 48.5744 143.062C48.6431 143.307 48.7187 143.558 48.7874 143.803C48.5057 144.055 48.2241 144.306 47.9493 144.558C47.9493 144.81 47.9424 145.061 47.9149 145.306C47.9424 145.068 47.9493 144.816 47.9493 144.558C47.7226 144.518 47.4958 144.472 47.2623 144.432C47.0905 145.313 46.9188 146.2 46.7539 147.08C46.6371 147.444 46.5134 147.802 46.3966 148.166C44.1982 149.873 41.78 151.409 41.2029 154.375C39.1076 159.002 35.8855 162.993 33.3711 167.388C33.3986 167.594 33.4054 167.792 33.4054 167.984C33.4054 167.786 33.3986 167.587 33.3711 167.388C31.7841 169.632 30.101 171.804 27.8476 173.492C28.1636 174.723 28.1636 175.855 26.7759 176.53C26.824 176.662 26.7828 176.762 26.6454 176.821C27.0644 177.801 26.2606 178.595 26.2125 179.502C25.8003 179.965 25.4981 180.568 24.7218 180.535C24.4676 180.733 24.2134 180.938 23.9592 181.137C23.5745 181.091 23.1897 181.038 22.805 180.991C22.8256 181.389 22.8394 181.792 22.86 182.19C22.1111 183.143 21.3967 184.116 20.6204 185.049C16.4571 189.981 16.4503 189.981 19.7341 195.217ZM63.7434 128.698C63.5923 128.817 63.4274 128.877 63.235 128.877C63.4274 128.877 63.5992 128.817 63.7434 128.698ZM52.7926 142.863C52.7171 143.062 52.6278 143.254 52.5384 143.453C52.6278 143.261 52.7171 143.062 52.7926 142.863C52.985 142.374 53.1224 141.87 53.1018 141.374C53.1224 141.877 52.985 142.374 52.7926 142.863ZM52.0163 137.032C51.8789 136.919 51.7278 136.82 51.5835 136.747C51.7346 136.82 51.8789 136.919 52.0163 137.032ZM28.5621 179.343C28.4728 179.343 28.3766 179.35 28.2804 179.356C28.3697 179.35 28.4659 179.343 28.5621 179.343ZM27.7995 179.403C27.4972 179.442 27.1812 179.489 26.8858 179.509C27.1812 179.489 27.4904 179.442 27.7995 179.403Z" fill="white"/>
<path d="M92.7418 180.025C89.9869 179.992 89.7602 178.893 90.509 176.861C90.667 176.523 90.8182 176.186 90.9762 175.848C93.2502 172.088 93.099 170.937 90.0006 167.951C88.7366 166.733 87.5137 165.476 86.2702 164.238C86.2428 164.026 86.174 163.827 86.0573 163.642C86.4214 162.867 86.1534 162.272 85.4802 161.802C85.3428 161.53 85.2122 161.259 85.0749 160.988C85.2191 159.948 84.6352 159.134 84.168 158.287C84.1955 157.85 84.223 157.406 84.2504 156.97C85.4115 156.102 86.7717 155.401 87.6923 154.342C90.4953 151.118 95.2356 149.311 95.6753 144.34C95.6409 143.83 95.6134 143.32 95.5791 142.811C92.8311 139.825 91.8006 139.819 88.503 142.248C84.0993 145.491 80.0941 149.205 74.9691 151.568C71.0051 153.395 70.9638 157.188 74.6118 159.432C77.0438 160.928 78.6376 162.92 79.5445 165.502C79.6407 165.555 79.7369 165.615 79.8399 165.661C79.7369 165.615 79.6475 165.555 79.5445 165.502C78.1842 168.626 74.2821 168.944 72.3516 171.539C71.7882 172.3 70.9364 172.903 71.6921 173.611C73.3546 175.18 73.5882 177.477 75.0309 179.112C75.9377 180.515 76.8446 181.912 77.7583 183.315C77.4697 183.864 77.6003 184.341 78.0194 184.765C78.4934 186.069 79.4208 186.922 80.7742 187.353C81.207 187.77 81.7085 187.869 82.2788 187.644C84.0581 187.757 85.8443 187.876 87.6236 187.988C89.4373 187.723 91.2441 187.452 93.0578 187.187C93.2983 186.704 93.5456 186.466 93.8066 186.459C93.5456 186.466 93.2983 186.711 93.0578 187.187C93.5799 187.161 94.102 187.141 94.6242 187.114C94.6723 187.247 94.631 187.34 94.5074 187.406C95.3799 187.273 96.2592 187.141 97.1317 187.002C98.4233 187.353 99.6667 187.426 100.436 186.108C101.206 184.791 99.8522 184.242 99.3576 183.322C97.9286 180.641 95.3386 180.052 92.7418 180.025ZM77.7652 173.406C77.6827 173.333 77.6209 173.247 77.5591 173.167C77.6209 173.247 77.6896 173.326 77.7652 173.406ZM77.4491 172.962C77.4011 172.856 77.3667 172.744 77.3461 172.625C77.3667 172.744 77.4079 172.856 77.4491 172.962ZM80.8086 176.854C80.3071 176.927 79.8124 177 79.3109 177.073C78.3422 176.808 77.5522 176.305 76.9682 175.511C77.7102 175.021 78.4522 174.531 79.1941 174.048C80.3551 173.915 81.8185 172.982 82.5536 174.306C83.3161 175.669 82.1207 176.444 80.8086 176.854Z" fill="white"/>
<path d="M156.069 165.312C157.514 164.746 159.058 164.362 160.244 163.266C159.746 162.139 158.091 162.932 157.753 161.679L157.673 161.542C157.028 161.058 156.368 160.622 155.492 160.893C155.234 160.905 154.979 160.917 154.72 160.929C153.877 161.542 153.204 162.386 152.189 162.775C151.807 163.309 151.652 164.024 152.321 164.236C153.554 164.625 154.585 165.791 156.069 165.312Z" fill="white"/>
<path d="M175.131 200.936C175.119 200.857 175.071 200.814 174.996 200.795C174.697 200.217 174.236 199.931 173.567 200.005C173.185 199.962 172.799 199.923 172.417 199.879C171.924 199.738 171.434 199.518 170.933 199.475C169.353 199.333 169.162 198.532 169.775 197.291C170.634 196.564 170.833 195.245 172.043 194.832C172.059 194.318 172.075 193.803 172.095 193.289C171.804 192.967 171.701 192.637 171.693 192.307C171.705 192.637 171.808 192.967 172.095 193.289C172.198 193.356 172.31 193.391 172.433 193.391C172.588 192.688 172.743 191.989 172.899 191.286C172.891 191.026 172.887 190.763 172.879 190.504C172.592 190.375 172.306 190.245 172.019 190.119C170.519 189.397 168.959 190.339 167.443 189.962C167.18 189.334 166.913 188.701 166.651 188.073L166.742 187.932C166.894 187.107 167.124 186.345 167.642 185.795C167.124 186.345 166.894 187.111 166.742 187.932C167.443 188.407 167.912 188.242 168.302 187.492C168.704 186.718 168.931 185.928 168.927 185.068C169.046 184.943 169.162 184.813 169.281 184.687C169.265 184.565 169.261 184.448 169.269 184.338C169.261 184.452 169.265 184.569 169.281 184.687C169.807 184.393 170.089 184.023 169.699 183.43C169.643 183.042 169.588 182.653 169.528 182.268C169.417 182.024 169.289 181.804 169.15 181.604C168.939 181.306 168.692 181.058 168.406 180.862C168.688 181.058 168.935 181.306 169.15 181.604C169.293 181.804 169.417 182.024 169.528 182.268C171.076 180.037 171.032 179.503 169.233 178.525C168.82 178.548 168.41 178.572 167.996 178.599C167.813 178.87 167.558 178.988 167.236 178.973C166.846 179.043 166.456 179.114 166.066 179.189C165.282 179.719 163.821 179.196 163.646 180.689C162.21 181.899 160.769 183.108 159.333 184.314C158.95 184.279 158.568 184.243 158.186 184.208C158.119 183.175 157.872 182.142 158.242 181.121C159.261 179.915 159.36 178.399 159.416 176.977C159.456 175.956 158.883 174.978 157.586 176.113L157.474 176.133C157.474 176.133 157.45 176.243 157.454 176.247C156.889 175.862 156.642 176.251 156.412 176.667C156.248 176.887 156.085 177.103 155.922 177.323C154.768 178.509 154.776 180.041 154.637 181.533C154.287 182.13 154.076 182.759 154.191 183.462C154.231 183.536 154.263 183.607 154.294 183.678C154.267 183.607 154.231 183.533 154.191 183.462C154.028 183.462 153.865 183.462 153.706 183.458C154 184.511 153.097 185.555 153.69 186.612C153.745 187.374 153.805 188.14 153.861 188.902C153.757 189.444 153.658 189.986 153.554 190.528C153.554 190.913 153.55 191.294 153.55 191.678C153.765 192.071 153.98 192.464 154.195 192.857C154.179 193.124 154.163 193.395 154.151 193.662C153.853 193.866 153.793 194.153 153.857 194.483C153.777 194.502 153.709 194.487 153.646 194.436C153.709 195.217 153.773 195.999 153.837 196.781C153.825 197.044 153.813 197.303 153.801 197.566C154.501 198.069 153.996 198.992 154.517 199.557C154.72 199.934 154.927 200.308 155.13 200.685C155.067 201.093 155.007 201.502 154.943 201.906C155.078 202.016 155.218 202.126 155.353 202.236C155.572 202.212 155.795 202.189 156.014 202.165C156.149 201.761 156.284 201.36 156.42 200.956C156.845 200.952 157.271 200.944 157.697 200.94C158.282 201.073 158.576 200.944 158.282 200.296C158.31 200.123 158.338 199.95 158.366 199.777C159.384 198.693 160.212 197.562 159.337 196.007C159.344 195.237 159.492 194.459 159.161 193.713C158.986 193.638 158.867 193.552 158.803 193.458C158.867 193.556 158.986 193.642 159.161 193.713C159.313 193.383 159.237 193.1 158.97 192.861C158.935 192.613 158.895 192.362 158.859 192.114C158.6 192.063 158.354 192.008 158.171 191.91C158.079 191.863 158.007 191.804 157.956 191.73C158.003 191.804 158.079 191.863 158.171 191.91C158.35 192.008 158.6 192.063 158.859 192.114C158.99 191.478 158.664 191.121 158.099 190.913C158.107 190.39 158.111 189.864 158.119 189.342C158.258 189.239 158.401 189.133 158.541 189.031C161.481 188.839 162.624 186.533 163.996 184.499C164.534 184.153 164.96 183.564 165.732 183.705C166.253 185.543 164.82 186.726 164.191 188.179C163.746 188.285 163.706 188.607 163.754 188.98L163.742 189.019C162.982 189.526 162.771 190.367 162.448 191.133C161.752 192.77 162.385 193.426 164.096 193.25C164.96 193.308 165.819 193.363 166.679 193.422C167.089 194.306 166.695 195.127 166.261 195.803C165.357 197.213 164.311 198.54 163.292 199.876C161.637 202.051 161.871 202.931 164.426 203.984C164.486 204.055 164.562 204.094 164.657 204.098C165.461 204.824 166.38 204.75 167.327 204.467C167.28 204.412 167.228 204.365 167.176 204.322C167.077 204.231 166.973 204.161 166.866 204.106C166.973 204.161 167.073 204.235 167.176 204.322C167.228 204.365 167.276 204.416 167.327 204.467C168.382 204.593 169.432 204.718 170.487 204.848C171 204.797 171.514 204.742 172.023 204.691C172.851 204.051 173.511 203.277 174.112 202.456C173.507 203.277 172.847 204.051 172.023 204.691C173.106 205.19 174.14 205.139 175.111 204.416C175.207 204.11 175.302 203.803 175.402 203.493C175.215 202.9 175.258 202.366 175.784 201.949C175.776 201.667 175.772 201.384 175.764 201.101C175.533 201.042 175.33 200.991 175.131 200.936ZM154.549 190.155C154.549 190.1 154.549 190.049 154.545 189.994C154.545 190.045 154.549 190.1 154.549 190.155ZM158.962 197.197C159.046 197.024 159.042 196.761 159.062 196.525C159.042 196.765 159.05 197.024 158.962 197.197ZM163.543 190.602C163.539 190.697 163.535 190.791 163.531 190.885C163.531 190.791 163.535 190.697 163.543 190.602ZM163.587 190.056C163.587 190.072 163.583 190.092 163.583 190.107C163.583 190.088 163.583 190.072 163.587 190.056ZM167.789 185.63C167.904 185.528 168.032 185.437 168.175 185.355C168.036 185.434 167.908 185.528 167.789 185.63ZM167.053 180.335C166.794 180.292 166.516 180.273 166.221 180.273C166.519 180.273 166.794 180.292 167.053 180.335ZM167.518 194.015C167.518 194.019 167.518 194.023 167.518 194.027C167.514 194.023 167.518 194.019 167.518 194.015ZM169.767 200.339C169.862 200.351 169.966 200.355 170.069 200.359C169.962 200.355 169.862 200.347 169.767 200.339Z" fill="white"/>
<path d="M156.085 202.264L155.99 202.158H155.986V202.161L156.085 202.264Z" fill="white"/>
<path d="M176.122 165.673L176.086 165.654C174.224 164.252 172.087 164.083 170.208 165.186C170.013 165.245 169.818 165.304 169.623 165.359C169.361 165.359 169.094 165.359 168.832 165.359C168.457 165.128 168.167 165.183 167.984 165.599C167.662 165.685 167.339 165.776 167.021 165.862C164.8 166.353 162.56 166.765 160.502 167.791C160.24 167.853 159.977 167.92 159.711 167.983C159.201 168.077 158.692 168.168 158.182 168.262C157.8 168.533 157.371 168.588 156.917 168.529C156.722 168.835 156.439 168.918 156.093 168.843C155.846 168.886 155.596 168.926 155.349 168.969C155.341 169.114 155.333 169.256 155.321 169.401C155.532 169.428 155.739 169.444 155.946 169.448C155.743 169.444 155.536 169.428 155.321 169.401C155.051 169.362 154.78 169.322 154.505 169.287C154.115 169.389 153.721 169.491 153.331 169.593C151.768 169.711 150.208 169.833 148.644 169.951C148.293 170.237 147.887 170.214 147.478 170.163C146.837 170.485 146.188 170.787 145.559 171.125C142.69 172.669 143.136 175.607 142.531 178.116C142.149 179.703 143.558 180.19 144.274 181.109C144.469 181.361 144.628 181.636 144.807 181.899C144.994 181.891 145.181 181.879 145.368 181.871C146.041 180.575 146.714 179.279 147.386 177.987C147.474 177.563 147.561 177.134 147.645 176.71C147.279 175.913 148.644 174.998 147.458 174.232C147.004 173.941 146.948 173.419 147.287 173.042C147.693 172.582 148.154 172.967 148.52 173.199C149.973 174.126 151.469 173.922 152.854 173.207C154.553 172.331 156.392 172.292 158.198 172.028C158.835 171.934 159.539 172.127 160.033 171.534C161.175 171.545 162.13 170.866 163.216 170.677C163.431 171.023 163.61 171.361 163.105 171.632C162.727 171.836 162.114 171.993 162.468 172.57C162.731 172.999 163.308 172.92 163.722 172.751C165.087 172.197 166.404 172.433 167.709 172.904C168.485 173.183 169.102 173.03 169.623 172.417C169.365 172.013 169.102 171.612 168.843 171.208C168.66 171.274 168.465 171.322 168.29 171.412C168.461 171.322 168.656 171.274 168.843 171.208C169.102 171.612 169.365 172.013 169.623 172.417C170.324 172.402 171 172.3 171.577 171.856C172.353 171.938 172.986 171.675 173.476 171.074C173.683 170.929 173.886 170.787 174.092 170.642C175.246 170.336 175.812 169.444 176.301 168.474C176.389 168.403 176.44 168.313 176.456 168.203C177.185 167.252 177.865 166.31 176.122 165.673ZM164.052 170.426C164.319 170.418 164.589 170.414 164.856 170.406C164.597 170.772 164.331 170.862 164.052 170.426ZM168.446 169.177C168.684 168.694 169.046 168.49 169.512 168.627C169.046 168.49 168.688 168.694 168.446 169.177ZM171.299 168.831C171.231 168.871 171.164 168.91 171.092 168.945C171.108 168.961 171.124 168.977 171.144 168.988C171.128 168.973 171.112 168.957 171.092 168.945C171.164 168.906 171.231 168.871 171.299 168.831ZM174.789 169.212C174.634 169.314 174.478 169.417 174.319 169.519C174.474 169.417 174.63 169.314 174.789 169.212C174.904 169.106 175.024 169.004 175.139 168.902C175.02 169.004 174.904 169.11 174.789 169.212Z" fill="white"/>
<path d="M135.444 167.645C134.23 167.7 132.511 168.301 132.125 166.919C131.886 166.074 133.589 165.45 134.68 164.994C135.854 164.507 136.9 163.765 136.717 162.225C136.379 161.879 136.295 161.479 136.454 161.031C136.295 160.772 136.136 160.509 135.977 160.249C135.364 159.597 134.688 159.876 134.011 160.112C133.43 160.591 132.849 161.07 132.268 161.55C131.265 162.787 129.598 163.262 128.675 164.593C128.05 164.758 127.66 165.159 127.469 165.76C126.585 166.337 125.75 166.97 125.121 167.826C124.329 168.207 123.979 168.985 123.469 169.621C121.905 170.022 121.854 171.891 120.552 172.547C119.426 174.24 118.3 175.933 117.174 177.622C117.094 177.9 116.911 178.057 116.617 178.089C116.251 178.281 115.884 178.474 115.518 178.666C115.522 178.812 115.526 178.957 115.526 179.102C115.093 179.193 114.838 179.468 114.714 179.876C114.854 179.978 115.001 180.088 115.12 180.214C115.24 180.339 115.323 180.477 115.343 180.63C115.327 180.477 115.24 180.339 115.12 180.214C115.001 180.088 114.854 179.978 114.714 179.876C114.583 179.88 114.448 179.88 114.317 179.884C114.122 180.32 113.927 180.756 113.735 181.192L113.684 181.239C113.194 181.408 112.82 181.706 112.621 182.193C111.372 183.124 110.807 184.263 111.491 185.787C111.567 185.913 111.638 186.042 111.714 186.168C111.797 186.321 111.881 186.474 111.969 186.624C112.359 186.769 112.745 186.91 113.135 187.052C113.405 187.146 113.676 187.24 113.946 187.335C114.42 186.624 115.447 186.408 115.666 185.469C115.904 185.316 116.139 185.163 116.378 185.009C116.334 184.876 116.294 184.742 116.251 184.613C116.784 184.173 117.321 183.733 117.854 183.293C117.814 183.203 117.822 183.112 117.87 183.026C117.938 182.684 118.005 182.343 118.073 181.997C117.874 181.934 117.719 181.962 117.596 182.04C117.723 181.958 117.874 181.93 118.077 181.993C117.99 181.506 118.125 181.097 118.427 180.795C118.129 181.094 117.994 181.502 118.081 181.993C119.677 180.697 122.188 180.591 123.02 178.297C123.465 177.696 123.41 177.009 123.366 176.321C123.266 176.098 123.199 175.874 123.151 175.646C123.199 175.87 123.266 176.094 123.366 176.321C124.17 173.859 125.411 171.651 127.218 169.762C128.121 169.389 129.132 167.893 129.594 168.356C130.883 169.644 133.128 170.045 133.649 171.891C134.242 173.984 136.001 173.882 137.425 174.216C138.46 174.46 139.204 173.702 139.264 172.445C139.34 170.874 138.659 169.696 137.612 168.635C136.884 168.313 136.164 167.979 135.444 167.645ZM115.212 183.093C114.961 183.199 114.778 183.313 114.647 183.442C114.774 183.317 114.961 183.199 115.212 183.093ZM115.2 183.379C115.204 183.466 115.22 183.548 115.244 183.627C115.276 183.745 115.331 183.843 115.399 183.941C115.335 183.847 115.28 183.745 115.244 183.627C115.224 183.548 115.208 183.466 115.2 183.379ZM117.48 182.146C117.488 182.138 117.496 182.134 117.504 182.127C117.5 182.134 117.488 182.138 117.48 182.146Z" fill="white"/>
<path d="M134.333 183.285C133.374 184.522 132.415 185.76 131.456 186.997C131.209 186.95 130.963 186.906 130.716 186.863C130.74 186.757 130.72 186.667 130.648 186.584C130.099 186.584 129.55 186.584 129.001 186.584C128.893 186.958 128.675 187.338 128.694 187.704C128.675 187.338 128.889 186.958 128.997 186.584C129.546 186.584 130.095 186.584 130.644 186.584C130.748 186.035 130.708 185.496 130.489 184.978C130.72 184.42 130.72 183.87 130.425 183.332C129.992 181.903 128.905 182.17 127.847 182.362C126.323 181.938 124.962 182.244 123.756 183.254C122.845 183.796 123.024 184.283 123.827 184.742C123.987 184.837 124.15 184.931 124.309 185.029C124.6 185.406 124.886 185.779 125.177 186.156C125.005 186.596 124.989 187.016 125.308 187.409C125.296 187.845 125.28 188.281 125.268 188.717C125.077 188.804 124.886 188.886 124.691 188.972C124.743 189.373 124.795 189.77 124.85 190.17C124.767 190.807 124.687 191.439 124.603 192.075C124.592 192.609 124.58 193.144 124.568 193.678C124.568 194.059 124.564 194.444 124.564 194.825C124.643 195.873 124.727 196.922 124.806 197.975L124.862 198.096C125.053 198.202 125.24 198.304 125.431 198.411C125.63 198.407 125.825 198.418 126.004 198.458C126.124 198.485 126.235 198.524 126.343 198.583C126.239 198.524 126.124 198.481 126.004 198.458C125.825 198.418 125.63 198.407 125.431 198.411C125.59 199.208 126.14 199.157 126.74 199.004C127.115 199.345 127.489 199.687 127.863 200.029C128.062 200.044 128.261 200.056 128.46 200.072C128.483 200.033 128.507 199.993 128.531 199.954C128.511 199.997 128.491 200.037 128.476 200.08C128.535 200.174 128.575 200.276 128.595 200.386C128.889 200.268 129.188 200.154 129.482 200.037C130.425 200.041 130.278 199.208 130.597 198.701C131.229 197.688 130.708 196.14 132.133 195.52C133.128 193.697 132.853 191.404 134.309 189.75C134.353 189.491 134.397 189.232 134.441 188.972C134.401 188.544 134.624 188.25 134.966 188.026C135.093 187.798 135.221 187.57 135.344 187.342C135.36 186.117 135.388 184.895 135.38 183.67C135.38 183.434 135.288 183.112 135.121 182.987C134.775 182.72 134.536 183.026 134.333 183.285ZM129.327 196.486C129.252 196.266 129.152 196.042 129.021 195.822C129.156 196.042 129.252 196.266 129.327 196.486Z" fill="white"/>
<path d="M128.384 179.491C129.94 178.973 129.932 177.311 130.875 176.369C130.772 175.984 130.668 175.599 130.565 175.214C129.355 174.64 128.082 173.941 126.967 175.253C125.925 176.482 126.955 177.869 126.963 179.181C126.967 179.903 127.751 179.703 128.384 179.491Z" fill="white"/>
<path d="M173.745 138.604C173.296 137.05 174.249 135.36 173.227 133.857C172.694 133.864 172.278 133.731 172.234 133.147C172.008 132.58 171.778 132.013 171.552 131.446C170.61 130.558 169.639 129.708 168.358 129.254C167.945 129.261 167.613 129.103 167.332 128.83C166.945 128.799 166.562 128.769 166.175 128.738C165.646 128.765 165.117 128.817 164.587 128.813C162.948 128.796 162.408 128.089 162.718 126.477C162.824 125.927 163.313 125.296 162.474 124.859C162.288 124.937 162.102 125.019 161.912 125.098C161.799 125.122 161.689 125.145 161.576 125.173C161.576 125.176 161.663 125.207 161.663 125.207L161.645 125.292C161.339 125.972 161.032 126.648 160.725 127.328C160.375 127.437 160.39 127.741 160.324 128C160.174 128.116 160.028 128.233 159.879 128.349C159.941 128.789 160.167 129.056 160.685 129.011C160.784 129.233 160.882 129.455 160.985 129.677C160.908 129.8 160.831 129.923 160.758 130.046C160.985 130.128 161.215 130.213 161.441 130.295C162.981 131.391 164.773 131.648 166.642 131.853C168.58 132.061 171.293 134.97 170.895 136.548C170.541 137.948 169.376 139.058 168.069 139.943C164.339 142.473 160.127 144.225 156.192 146.421C154.363 147.442 152.323 148.006 150.494 148.996C148.366 149.874 146.234 150.751 144.106 151.629C143.858 152.022 143.741 152.442 143.796 152.896C144.293 152.619 144.836 152.585 145.395 152.636C145.632 152.517 145.873 152.394 146.11 152.274C146.472 152.148 146.833 152.022 147.194 151.895C147.432 151.629 147.68 151.615 147.939 151.871C148.928 151.24 150.129 151.226 151.221 150.895C151.461 150.881 151.702 150.867 151.943 150.854C152.476 151.069 152.684 150.635 152.991 150.396C153.63 150.239 154.298 150.15 154.9 149.915C156.959 149.115 158.889 148.033 161.061 147.476C161.404 147.247 161.784 147.251 162.175 147.336C162.401 147.217 162.631 147.097 162.857 146.974L162.981 146.916C163.62 146.503 164.303 146.199 165.098 146.189C165.376 145.864 165.752 145.772 166.175 145.789C166.42 145.666 166.664 145.54 166.909 145.417C167.219 145.12 167.511 144.799 167.978 144.72C168.573 143.996 169.318 143.44 170.183 143.02C170.194 142.941 170.241 142.904 170.329 142.907C170.471 142.535 170.76 142.32 171.157 142.217C172.001 141.271 172.844 140.325 173.687 139.379C173.694 139.127 173.72 138.864 173.745 138.604Z" fill="white"/>
<path d="M171.22 142.316L171.143 142.224H171.139L171.136 142.227L171.22 142.316Z" fill="white"/>
<path d="M139.004 139.116C139.248 138.611 139.628 138.273 140.237 138.208C140.478 137.989 140.715 137.774 140.956 137.556C141.259 136.729 142.347 136.453 142.559 135.558C142.909 135.442 143.088 135.186 143.198 134.871C143.165 134.667 143.117 134.499 143.063 134.373C142.986 134.202 142.895 134.096 142.785 134.048C142.895 134.096 142.99 134.202 143.063 134.373C143.117 134.503 143.165 134.667 143.198 134.871C143.866 134.492 144.446 133.666 145.351 134.503C145.504 134.738 144.785 134.94 145.322 135.189C145.483 136.425 145.205 137.781 146.417 138.734C146.366 139.055 146.311 139.376 146.26 139.697C145.939 140.161 144.512 139.26 144.931 140.643C144.931 141.141 144.931 141.637 144.931 142.173C144.366 142.586 143.745 141.264 143.282 142.091C142.927 142.726 143.672 143.201 143.99 143.709C144.289 144.188 144.694 144.608 145.055 145.052C145.76 145.26 146.464 145.472 147.169 145.68C147.976 145.526 148.625 145.205 148.757 144.348C148.811 144.013 148.866 143.679 148.921 143.344C149.341 142.077 149.147 140.814 148.954 139.54C148.841 138.788 148.538 137.945 149.622 137.532C149.618 136.316 149.614 135.097 149.614 133.881C149.498 133.857 149.377 133.837 149.26 133.82C149.056 134.209 148.884 134.602 148.749 134.994C148.888 134.602 149.056 134.209 149.26 133.82C149.235 133.591 149.209 133.362 149.184 133.137C149.275 132.904 149.363 132.672 149.454 132.44C148.884 131.962 148.987 131.313 148.954 130.698L148.979 130.681L149.147 130.719L149.319 130.709C149.494 128.762 151.41 128.741 152.702 128.031C152.823 128.045 152.94 128.069 153.057 128.099C153.213 127.84 153.433 127.679 153.765 127.686L153.83 127.601L153.944 127.604C154.155 127.283 154.447 127.075 154.86 127.037C155.035 126.733 155.261 126.498 155.674 126.511C156.393 125.955 157.287 125.897 158.148 125.743C158.305 125.654 158.462 125.566 158.619 125.477C159.718 124.818 160.86 124.21 161.897 123.476C162.313 123.182 162.97 122.697 162.525 122.086C162.178 121.611 161.536 121.853 161.014 121.987C157.959 122.775 154.863 123.452 151.94 124.633C149.68 125.18 149.68 125.176 150.173 122.926C150.242 122.605 150.279 122.273 150.33 121.946L150.363 121.85C151.231 121.379 152.228 121.481 153.162 121.362C154.473 121.194 155.473 120.545 155.904 119.49C156.36 118.377 154.907 118.155 154.392 117.472C154.17 117.359 153.951 117.25 153.728 117.137C153.381 117.147 153.031 117.158 152.684 117.165C151.688 117.206 151.885 118.056 151.593 118.575C151.826 118.65 152.06 118.725 152.29 118.8C152.056 118.725 151.823 118.65 151.593 118.575C151.221 118.568 150.848 118.561 150.476 118.554C150.323 118.302 150.169 118.049 150.012 117.796C150.089 117.496 149.972 117.267 149.713 117.093C149.684 116.075 149.655 115.061 149.629 114.043C149.801 112.493 151.228 110.922 149.556 109.395C149.527 109.317 149.468 109.262 149.388 109.228C149.235 109.02 149.085 108.811 148.932 108.603C148.114 108.309 147.297 108.016 146.483 107.722C146.234 107.9 145.99 108.074 145.742 108.251C144.161 108.607 144.826 109.669 144.913 110.55C144.756 110.925 144.815 111.277 145.037 111.612C145.059 112.288 145.081 112.968 145.103 113.644C144.92 115.034 144.804 116.424 145.42 117.759C145.442 118.452 145.461 119.145 145.483 119.839C144.639 120.474 144.139 121.573 142.822 121.57C142.577 121.567 142.329 121.563 142.084 121.556C141.723 121.56 141.362 121.563 141 121.563C140.883 121.686 140.767 121.809 140.65 121.932C139.547 122.219 138.441 122.506 137.339 122.789C137.171 123.26 136.777 123.376 136.299 123.557C133.642 124.558 131.13 125.798 129.291 127.959C128.009 128.233 127.287 128.902 127.487 130.213C127.652 130.176 127.82 130.142 127.984 130.104C128.174 129.667 128.44 129.356 129.013 129.544C129.258 129.424 129.502 129.305 129.747 129.185C131.349 128.653 133.05 128.345 134.456 127.369C134.864 127.338 135.072 127.089 135.211 126.764C135.551 126.716 135.89 126.665 136.23 126.617C137.5 125.224 139.467 124.917 141.004 123.943C141.701 123.797 142.489 123.793 143.084 123.476C144.581 122.673 145.256 123.069 145.377 124.596C145.38 124.824 145.384 125.053 145.391 125.282C144.818 126.453 145.431 127.768 144.88 128.943C144.683 129.097 144.482 129.25 144.285 129.407C143.548 129.527 142.836 129.687 142.479 130.408C142.354 130.456 142.23 130.504 142.11 130.551C141.65 130.425 141.274 130.224 141.245 129.708C141.719 128.953 142.285 128.236 142.646 127.437C143.114 126.406 141.902 126.283 141.394 125.917C140.668 125.395 139.803 125.6 139.186 126.327C138.755 126.836 138.701 127.444 138.595 128.058C138.456 128.871 138.387 129.756 137.514 130.271C137.533 130.446 137.547 130.62 137.562 130.794C137.27 130.968 137.065 131.2 137.025 131.535C136.934 131.518 136.843 131.501 136.751 131.477C136.839 132.194 136.668 132.877 136.102 133.348C134.842 134.39 134.419 135.783 134.054 137.221C133.912 137.218 133.769 137.214 133.627 137.211C133.572 137.44 133.514 137.672 133.459 137.901C133.755 138.317 134.05 138.73 134.346 139.147C135.47 139.29 136.595 139.43 137.719 139.574C138.142 139.413 138.573 139.267 139.004 139.116ZM145.227 140.687C145.377 140.711 145.526 140.732 145.665 140.742C145.526 140.735 145.377 140.711 145.227 140.687ZM143.037 131.292C142.971 131.368 142.906 131.443 142.851 131.525C142.906 131.443 142.975 131.368 143.037 131.292ZM146.202 135.671C146.413 135.855 146.545 136.056 146.625 136.275C146.545 136.056 146.413 135.852 146.202 135.671ZM146.705 137.214C146.724 137.05 146.731 136.886 146.716 136.729C146.731 136.886 146.724 137.047 146.705 137.214ZM147.136 132.809C147.184 132.747 147.246 132.696 147.311 132.655C147.242 132.696 147.184 132.747 147.136 132.809ZM148.581 131.781C148.074 131.532 147.935 131.269 148.173 130.989C147.935 131.269 148.078 131.532 148.581 131.781C148.596 131.999 148.614 132.215 148.629 132.433C148.227 132.46 147.753 132.45 147.413 132.6C147.749 132.45 148.227 132.46 148.629 132.433C148.614 132.218 148.6 131.999 148.581 131.781ZM149.83 118.773C149.614 118.609 149.56 118.394 149.604 118.152C149.56 118.391 149.618 118.609 149.83 118.773ZM149.706 117.854C149.629 117.694 149.541 117.53 149.556 117.369C149.538 117.53 149.625 117.694 149.706 117.854Z" fill="white"/>
<path d="M129.035 118.49C129.21 118.363 129.389 118.233 129.564 118.107C129.462 117.769 129.356 117.427 129.254 117.089C129.298 116.628 129.345 116.167 129.389 115.706C128.929 115.341 128.666 114.863 128.51 114.327C128.659 113.958 128.557 113.623 128.345 113.306C128.028 113.411 127.707 113.521 127.389 113.627C127.093 114.402 126.301 114.59 125.633 114.924C123.699 116.113 122.031 117.482 121.75 119.821L121.589 119.791C121.563 119.92 121.538 120.05 121.512 120.18C121.571 120.733 121.629 121.29 121.687 121.843C121.669 122.297 121.651 122.755 121.633 123.209C121.217 123.574 120.8 123.94 120.384 124.305C120.326 124.404 120.264 124.503 120.206 124.602C120.18 125.043 120.151 125.48 120.125 125.917C119.83 126.061 119.702 126.283 119.753 126.593C119.625 126.822 119.497 127.054 119.37 127.283C119.381 127.621 119.395 127.963 119.406 128.301C119.607 128.533 119.694 128.738 119.654 128.916C119.694 128.738 119.607 128.53 119.406 128.301C119.286 128.315 119.169 128.332 119.052 128.356C119.085 128.694 119.114 129.032 119.147 129.366C119.063 129.462 118.975 129.558 118.891 129.657C118.837 131.262 118.786 132.867 118.731 134.472C118.756 134.533 118.786 134.591 118.808 134.653C118.859 134.772 118.906 134.892 118.946 135.011C118.902 134.892 118.855 134.772 118.808 134.653C118.782 134.595 118.756 134.533 118.731 134.472C118.578 134.479 118.424 134.489 118.271 134.496C118.337 135.404 118.402 136.309 118.472 137.217C118.38 137.32 118.289 137.422 118.198 137.525C118.18 137.767 118.165 138.013 118.147 138.256C118.158 138.696 118.169 139.133 118.176 139.574C118.256 139.809 118.337 140.045 118.417 140.277C118.377 141.094 118.41 141.903 118.76 142.671C118.735 142.791 118.713 142.907 118.687 143.026C118.713 143.347 118.738 143.668 118.764 143.989C118.979 144.027 119.194 144.065 119.41 144.102C119.428 144.304 119.443 144.509 119.461 144.71C119.319 144.707 119.176 144.703 119.03 144.696C119.008 145.045 118.983 145.396 118.961 145.745C119.202 145.799 119.443 145.851 119.68 145.902C119.694 145.796 119.705 145.694 119.709 145.591C119.705 145.694 119.698 145.799 119.68 145.902C120.07 146.206 120.465 146.506 120.855 146.81C121.03 147.121 121.209 147.435 121.385 147.746C121.483 147.845 121.585 147.944 121.684 148.04C122.724 148.087 123.264 147.418 123.808 146.749C123.943 146.479 124.082 146.209 124.217 145.936L124.221 145.875C124.195 145.595 124.17 145.314 124.144 145.031C124.199 144.816 124.25 144.601 124.305 144.386C123.662 144.15 123.279 143.87 123.093 143.498C123.279 143.867 123.662 144.15 124.305 144.386C125.078 143.347 124.509 142.05 125.046 140.964C125.038 140.807 125.031 140.646 125.024 140.489C124.111 139.396 124.808 138.321 125.067 137.241C125.075 136.866 125.086 136.494 125.093 136.118C124.575 135.718 124.498 135.295 125.013 134.837C125.013 134.369 125.016 133.902 125.016 133.434C124.743 133.379 124.469 133.321 124.191 133.266C124.082 133.283 123.98 133.314 123.878 133.355C123.998 133.635 124.06 134.028 123.684 134.028C123.085 134.028 123.301 133.44 123.162 133.109C123.023 132.88 122.888 132.652 122.75 132.423C122.775 131.87 123.089 131.446 123.469 131.057C123.469 130.715 123.465 130.374 123.465 130.036C122.921 129.25 123.221 128.591 123.823 127.98C123.896 127.744 123.965 127.505 124.038 127.27C123.903 127.266 123.764 127.263 123.629 127.259C123.753 126.935 123.779 126.617 123.607 126.3C122.582 125.688 122.056 125.388 121.771 125.528C122.056 125.388 122.582 125.685 123.607 126.3C123.662 125.832 123.717 125.367 123.772 124.9C123.903 124.9 124.031 124.903 124.162 124.903C124.137 124.548 124.111 124.193 124.086 123.837L124.21 123.889C124.275 123.393 124.345 122.895 124.41 122.4L124.487 122.379C124.648 122.314 124.812 122.253 124.973 122.188C125.064 121.952 125.151 121.713 125.243 121.478C125.272 121.263 125.301 121.044 125.33 120.829C125.666 120.668 126.002 120.508 126.341 120.347C126.637 119.623 126.933 118.899 127.228 118.179C127.203 117.547 126.823 117.161 126.385 116.816C126.82 117.158 127.203 117.547 127.228 118.179C126.933 118.903 126.637 119.627 126.341 120.347C127.823 120.467 128.265 119.272 129.035 118.49ZM121.388 128.062C121.392 128.079 121.395 128.096 121.399 128.113C121.395 128.099 121.392 128.082 121.388 128.062ZM123.221 135.059C122.863 134.421 122.293 133.898 121.279 133.809C122.293 133.902 122.863 134.424 123.221 135.059ZM125.911 116.468C126.031 116.56 126.155 116.649 126.276 116.741C126.152 116.652 126.027 116.56 125.911 116.468Z" fill="white"/>
</g>
</svg>
