<svg width="117" height="51" viewBox="0 0 117 51" fill="none" xmlns="http://www.w3.org/2000/svg">
<g filter="url(#filter0_d_85_75)">
<path d="M7.00427 25.1423H11.533L15.1235 34.5995L18.9252 25.1423H23.5008L26.1756 42.8372H21.5777L20.2866 32.6518H20.2397L15.9925 42.8372H14.162L10.1024 32.6518H10.0554L8.57676 42.8372H4L7.00427 25.1423Z" fill="white"/>
<path d="M34.3909 39.7626L33.1702 42.8372H28.2886L35.0945 25.1423H40.1169L46.7821 42.8372H41.877L40.7266 39.7626H34.3909ZM37.6063 30.6102H37.5594L35.6585 36.2424H39.4836L37.6063 30.6102Z" fill="white"/>
<path d="M64.6882 42.8372H58.9623L54.6212 36.0313H54.5743V42.8372H49.9741V25.1423H56.8504C60.3472 25.1423 62.9997 26.8086 62.9997 30.5868C62.9997 33.027 61.6382 35.1389 59.1276 35.5857L64.6882 42.8372ZM54.5732 33.0739H55.0188C56.5209 33.0739 58.2107 32.7925 58.2107 30.8682C58.2107 28.9439 56.5209 28.6625 55.0188 28.6625H54.5732V33.0739Z" fill="white"/>
<path d="M77.9003 25.1423H83.6028L76.5623 33.5207L84.236 42.8372H78.2755L72.3385 35.1635H72.2916V42.8372H67.6914V25.1423H72.2916V32.4407H72.3385L77.9003 25.1423Z" fill="white"/>
<path d="M91.8405 29.0377V31.9951H97.027V35.8906H91.8405V38.9417H97.3084V42.8372H87.2402V25.1423H97.3084V29.0377H91.8405Z" fill="white"/>
<path d="M108.949 42.8372H104.349V29.0377H100.547V25.1423H112.75V29.0377H108.949V42.8372Z" fill="white"/>
<path d="M6.04834 0H11.854C16.2396 0 19.8525 3.44635 19.8525 7.87302C19.8525 12.3009 16.2185 15.746 11.854 15.746H6.04834V0ZM10.142 12.2798H11.0613C13.5051 12.2798 15.5935 10.943 15.5935 7.87302C15.5935 5.05402 13.7349 3.46629 11.1035 3.46629H10.1432V12.2798H10.142Z" fill="white"/>
<path d="M27.3306 13.0115L26.2448 15.7472H21.9014L27.9568 0H32.4257L38.358 15.7472H33.9935L32.9698 13.0115H27.3306ZM30.1918 4.8664H30.1496L28.4587 9.87821H31.8628L30.1918 4.8664Z" fill="white"/>
<path d="M48.8215 0V10.6299C48.8215 13.9507 47.0883 16.1647 43.5998 16.1647C41.8455 16.1647 40.4876 15.2875 39.5483 13.8464L41.9077 11.3616C42.3673 11.9878 43.0146 12.6984 43.5576 12.6984C44.7689 12.6984 44.7267 11.2572 44.7267 10.3801V0H48.8215Z" fill="white"/>
<path d="M57.0707 15.7472H52.9771V0H57.0707V15.7472Z" fill="white"/>
<path d="M61.3096 0H67.1152C71.5009 0 75.1137 3.44635 75.1137 7.87302C75.1137 12.3009 71.4798 15.746 67.1152 15.746H61.3096V0ZM65.4032 12.2798H66.3225C68.7663 12.2798 70.8548 10.943 70.8548 7.87302C70.8548 5.05402 68.9961 3.46629 66.3648 3.46629H65.4044V12.2798H65.4032Z" fill="white"/>
<path d="M82.5904 13.0115L81.5045 15.7472H77.1611L83.2178 0H87.6866L93.6178 15.7472H89.2533L88.2296 13.0115H82.5904ZM85.4516 4.8664H85.4094L83.7173 9.87821H87.1214L85.4516 4.8664Z" fill="white"/>
<path d="M100.552 12.2798H105.459V15.7472H96.458V0H100.552V12.2798Z" fill="white"/>
<path d="M112.456 15.7472H108.363V0H112.456V15.7472Z" fill="white"/>
</g>
<defs>
<filter id="filter0_d_85_75" x="0" y="0" width="116.75" height="50.8372" filterUnits="userSpaceOnUse" color-interpolation-filters="sRGB">
<feFlood flood-opacity="0" result="BackgroundImageFix"/>
<feColorMatrix in="SourceAlpha" type="matrix" values="0 0 0 0 0 0 0 0 0 0 0 0 0 0 0 0 0 0 127 0" result="hardAlpha"/>
<feOffset dy="4"/>
<feGaussianBlur stdDeviation="2"/>
<feComposite in2="hardAlpha" operator="out"/>
<feColorMatrix type="matrix" values="0 0 0 0 0 0 0 0 0 0 0 0 0 0 0 0 0 0 0.25 0"/>
<feBlend mode="normal" in2="BackgroundImageFix" result="effect1_dropShadow_85_75"/>
<feBlend mode="normal" in="SourceGraphic" in2="effect1_dropShadow_85_75" result="shape"/>
</filter>
</defs>
</svg>
